<?xml version="1.0" encoding="UTF-8"?>
<svg width="50px" height="77px" viewBox="0 0 50 77" version="1.1" xmlns="http://www.w3.org/2000/svg" xmlns:xlink="http://www.w3.org/1999/xlink">
  <title>农机</title>
  <defs>
    <linearGradient x1="89.2607972%" y1="45.340987%" x2="-4.59429078%" y2="66.4649411%" id="linearGradient-1">
      <stop stop-color="#FF73BE" offset="0%"></stop>
      <stop stop-color="#D75F9F" offset="100%"></stop>
    </linearGradient>
    <path d="M42.6015206,0.72098811 L3.2942133,3.48982339 C3.2942133,3.48982339 1.30108613,4.20830168 0.743620014,5.21223036 L0.743620014,5.21223036 C0.287612734,6.03344401 -0.0113749247,7.46588291 0,8.55865927 L0,8.55865927 C0.0122244741,9.65160296 0.76517537,11.1355769 1.68350788,11.771231 L1.68350788,11.771231 C2.60184039,12.4070525 42.3424846,2.6612476 43.3773276,0.841292229 L43.3773276,0.841292229 C43.7380081,0.206641986 43.7528739,0 43.619082,0 L43.619082,0 C43.3693372,0 42.6015206,0.72098811 42.6015206,0.72098811" id="path-2"></path>
    <linearGradient x1="89.2607972%" y1="48.9680819%" x2="-4.59429078%" y2="53.6467963%" id="linearGradient-4">
      <stop stop-color="#FF4CAB" offset="0%"></stop>
      <stop stop-color="#FF8ECA" offset="100%"></stop>
    </linearGradient>
    <path d="M1.68350676,0.0297831691 C0.76517486,0.665603632 0.0122244659,2.14940781 0,3.24251704 L0,3.24251704 C-0.0113749171,4.33529163 0.287612542,5.7677282 0.743619518,6.58877321 L0.743619518,6.58877321 C1.30108526,7.59286758 3.29421111,8.31117738 3.29421111,8.31117738 L3.29421111,8.31117738 L42.6014922,11.0800082 C42.6014922,11.0800082 44.4117692,12.7796567 43.3772987,10.9597042 L43.3772987,10.9597042 C42.3751611,9.197143 5.06658052,0 1.88345114,0 L1.88345114,0 C1.77994833,0 1.71249498,0.00970462812 1.68350676,0.0297831691" id="path-5"></path>
    <path d="M1.06583372,4.72470119 C0.462090249,4.77180289 0,5.22628416 0,5.77146127 L0,5.77146127 L0,7.34920113 L0,8.99609029 C0,9.53208089 0.453921518,9.97887891 1.04726842,10.0253125 L1.04726842,10.0253125 C9.6894143,10.701606 68.9316492,15.3115595 70.2267643,14.6945606 L70.2267643,14.6945606 C71.8048146,13.9429378 72.7330795,11.7717499 72.9605044,11.0722396 L72.9605044,11.0722396 C73.1326047,10.5427631 73.4508139,8.27002262 73.5428977,7.59539936 L73.5428977,7.59539936 C73.5599778,7.46979483 73.5603491,7.34285409 73.5434547,7.21708253 L73.5434547,7.21708253 C73.4521134,6.53494305 73.1331616,4.209589 72.9605044,3.67894327 L72.9605044,3.67894327 C72.7330795,2.97959997 71.8048146,0.808245097 70.2267643,0.0566222541 L70.2267643,0.0566222541 C70.1460053,0.0182059755 69.8391209,0 69.3334022,0 L69.3334022,0 C61.7411239,-0.000167027298 9.22973754,4.08582177 1.06583372,4.72470119" id="path-7"></path>
    <polygon id="path-9" points="0.176306641 2.02379987 0 2.0067532 0.176306641 8.46596446 31.5712579 10.4897643 34.9572685 5.24496412 34.9572685 5.24480021 31.5712579 0"></polygon>
    <linearGradient x1="-1.27058094e-05%" y1="50.0004201%" x2="99.9999319%" y2="50.0004201%" id="linearGradient-11">
      <stop stop-color="#D75F9F" offset="0%"></stop>
      <stop stop-color="#F876BB" offset="100%"></stop>
    </linearGradient>
    <polygon id="path-12" points="4.47459691 1.27944346 0 0 0 5.24488217 4.47459691 3.96543871 8.16031656 5.24488217 10.19587 2.62235578 8.16031656 0"></polygon>
    <polygon id="path-14" points="0 0 8.98638232 0 8.98638232 16.3901911 0 16.3901911"></polygon>
    <path d="M1.55252806,0.747242569 C0.398965657,1.18657449 -0.130412712,2.06310005 0.0272227405,2.92515119 L0.0272227405,2.92515119 C0.102207101,3.33454735 -0.184266816,3.91961048 0.89244129,4.83742108 L0.89244129,4.83742108 C1.79356257,5.60522392 3.28090823,5.42873454 4.41614527,5.4724868 L4.41614527,5.4724868 C5.18955005,5.50225807 9.6349446,5.40307532 11.1542661,5.37856747 L11.1542661,5.37856747 C11.9774112,5.3654089 13.1663153,5.42001698 14.2720074,5.47462507 L14.2720074,5.47462507 C15.3395528,5.52742385 16.329683,5.58005815 16.8379311,5.57183404 L16.8379311,5.57183404 C18.6117507,5.54272069 19.3780497,4.33163836 19.2929677,3.82799391 L19.2929677,3.82799391 C19.2078857,3.32434945 19.1056003,2.56197452 16.8485897,1.5474484 L16.8485897,1.5474484 C14.5913922,0.533086764 11.6555955,0.125170943 9.18971327,0.027468525 L9.18971327,0.027468525 C8.73606724,0.00953996677 8.25942101,0 7.77230316,0 L7.77230316,0 C5.48013783,0 2.96002752,0.211195126 1.55252806,0.747242569" id="path-16"></path>
    <path d="M1.20089531,0.571456116 C0.308481339,0.907501576 -0.100985786,1.57780415 0.0211064662,2.23688896 L0.0211064662,2.23688896 C0.0788805949,2.55001115 -0.142680384,2.99742145 0.690463686,3.69926386 L0.690463686,3.69926386 C1.38749266,4.28648989 2.53811398,4.15138888 3.41631813,4.1850422 L3.41631813,4.1850422 C4.01443929,4.20764032 7.45340223,4.13187971 8.62851679,4.113346 L8.62851679,4.113346 C9.26534101,4.10310368 10.1848658,4.1450484 11.0402595,4.18666796 L11.0402595,4.18666796 C11.8661117,4.22698692 12.632133,4.26714329 13.0255206,4.26080281 L13.0255206,4.26080281 C14.3977029,4.23869242 14.9904019,3.31249455 14.924775,2.92735102 L14.924775,2.92735102 C14.8587741,2.54220748 14.7796853,1.95920844 13.0337474,1.18339376 L13.0337474,1.18339376 C11.2876225,0.407579085 9.01648222,0.0957575113 7.10881414,0.0209723582 L7.10881414,0.0209723582 C6.75749509,0.00731593889 6.38860073,0 6.01147964,0 L6.01147964,0 C4.23861786,0 2.28962913,0.161438385 1.20089531,0.571456116" id="path-18"></path>
    <linearGradient x1="89.2607972%" y1="48.8472856%" x2="-4.59429078%" y2="54.0736901%" id="linearGradient-20">
      <stop stop-color="#FF73BE" offset="0%"></stop>
      <stop stop-color="#D75F9F" offset="100%"></stop>
    </linearGradient>
    <path d="M14.2720074,0.0980320879 C13.1663153,0.152640566 11.9774112,0.207084562 11.1542661,0.193925892 L11.1542661,0.193925892 C9.6349446,0.16941787 5.18955005,0.0702343986 4.41614527,0.100005888 L4.41614527,0.100005888 C3.28090823,0.143758464 1.79356257,-0.0327321904 0.89244129,0.735240659 L0.89244129,0.735240659 C-0.184266816,1.65289337 0.102207101,2.23796072 0.0272227405,2.64752431 L0.0272227405,2.64752431 C-0.130412712,3.50941716 0.398965657,4.38594903 1.55252806,4.82528411 L1.55252806,4.82528411 C3.25921699,5.47532239 6.60135037,5.64770096 9.18971327,5.54522782 L9.18971327,5.54522782 C11.6555955,5.44736021 14.5913922,5.03960594 16.8485897,4.02507252 L16.8485897,4.02507252 C19.1056003,3.01070359 19.2078857,2.24815869 19.2929677,1.74451061 L19.2929677,1.74451061 C19.3780497,1.24102702 18.6117507,0.0297714898 16.8379311,0.000822416845 L16.8379311,0.000822416845 C16.8027763,0.000328966738 16.7650037,0 16.7251741,0 L16.7251741,0 C16.1916818,0 15.2653164,0.049016044 14.2720074,0.0980320879" id="path-21"></path>
    <path d="M11.0402595,0.0751088796 C10.1848658,0.116727653 9.26534101,0.158671573 8.62851679,0.148266879 L8.62851679,0.148266879 C7.45340223,0.129570946 4.01443929,0.0536491997 3.41631813,0.0767346129 L3.41631813,0.0767346129 C2.53811398,0.110062146 1.38749266,-0.0250362932 0.690463686,0.562341157 L0.690463686,0.562341157 C-0.142680384,1.26400766 0.0788805949,1.71140947 0.0211064662,2.02452571 L0.0211064662,2.02452571 C-0.100985786,2.68376057 0.308481339,3.35405042 1.20089531,3.68992693 L1.20089531,3.68992693 C2.52128656,4.18707618 5.10653859,4.31892315 7.10881414,4.24040023 L7.10881414,4.24040023 C9.01648222,4.16577907 11.2876225,3.85380085 13.0337474,3.0780009 L13.0337474,3.0780009 C14.7796853,2.30220096 14.8587741,1.71921299 14.924775,1.33423934 L14.924775,1.33423934 C14.9904019,0.948940542 14.3977029,0.0227602666 13.0255206,0.00065029333 L13.0255206,0.00065029333 C12.9980358,0.000325146665 12.9686814,0 12.9374571,0 L12.9374571,0 C12.5246245,0 11.8083375,0.0375544398 11.0402595,0.0751088796" id="path-23"></path>
  </defs>
  <g id="页面-1" stroke="none" stroke-width="1" fill="none" fill-rule="evenodd">
    <g id="智能调度-设备监控" transform="translate(-935.000000, -671.000000)">
      <g id="网格" transform="translate(823.000000, 656.000000)">
        <g id="车" transform="translate(112.602740, 15.652696)">
          <g id="编组-5" transform="translate(0.000000, 3.645144)">
            <path d="M6.55448783,23.087028 C2.1362781,23.165073 -1.56926407,22.0320109 -2.31879942,21.5434307 C-3.06817019,21.0548506 -3.27966623,18.2864179 -3.27966623,18.2864179 C-3.27966623,18.1235578 -3.27966623,14.866545 -1.85449568,14.2152928 C-0.429325138,13.5638526 6.55448783,13.6247841 6.55448783,13.6247841 C6.55448783,13.6247841 13.5383008,13.5638526 14.9634714,14.2152928 C16.3886419,14.866545 16.3886419,18.1235578 16.3886419,18.2864179 C16.3886419,18.2864179 16.1771459,21.0548506 15.4277751,21.5434307 C14.6782397,22.0320109 10.9726976,23.165073 6.55448783,23.087028" id="Fill-1" fill="#393939" transform="translate(6.554488, 18.357068) rotate(-90.000000) translate(-6.554488, -18.357068) "></path>
            <path d="M17.6808885,18.2009055 C17.6808885,18.7181422 14.0851954,19.4494824 9.64966265,19.4494824 C5.21412989,19.4494824 1.61843683,18.7181422 1.61843683,18.2009055 C1.61843683,17.6838491 5.21412989,17.2646531 9.64966265,17.2646531 C14.0851954,17.2646531 17.6808885,17.6838491 17.6808885,18.2009055" id="Fill-3" fill="#D75F9F" transform="translate(9.649663, 18.357068) rotate(-90.000000) translate(-9.649663, -18.357068) "></path>
            <path d="M14.2013903,23.087028 C9.78318057,23.165073 6.07763841,22.0320109 5.32810305,21.5434307 C4.57873228,21.0548506 4.36723625,18.2864179 4.36723625,18.2864179 C4.36723625,18.1235578 4.36723625,14.866545 5.79240679,14.2152928 C7.21757734,13.5638526 14.2013903,13.6247841 14.2013903,13.6247841 C14.2013903,13.6247841 21.1852033,13.5638526 22.6103738,14.2152928 C24.0355444,14.866545 24.0355444,18.1235578 24.0355444,18.2864179 C24.0355444,18.2864179 23.8240483,21.0548506 23.0746776,21.5434307 C22.3251422,22.0320109 18.6196,23.165073 14.2013903,23.087028" id="Fill-5" fill="#393939" transform="translate(14.201390, 18.357068) rotate(-90.000000) translate(-14.201390, -18.357068) "></path>
            <path d="M34.9572685,23.0870455 C30.5390587,23.164901 26.8335166,22.0320474 26.0839812,21.543288 C25.3346104,21.0547167 25.1231144,18.2865219 25.1231144,18.2865219 C25.1231144,18.1234767 25.1231144,14.8667106 26.5482849,14.2152822 C27.9734555,13.5638537 34.9572685,13.6247841 34.9572685,13.6247841 C34.9572685,13.6247841 41.9410814,13.5638537 43.366252,14.2152822 C44.7914225,14.8667106 44.7914225,18.1234767 44.7914225,18.2865219 C44.7914225,18.2865219 44.5799265,21.0547167 43.8305557,21.543288 C43.0810204,22.0320474 39.3754782,23.164901 34.9572685,23.0870455" id="Fill-7" fill="#393939" transform="translate(34.957268, 18.357068) rotate(-90.000000) translate(-34.957268, -18.357068) "></path>
            <path d="M46.0836691,18.2010085 C46.0836691,18.7180223 42.487976,19.4494824 38.0524433,19.4494824 C33.6169105,19.4494824 30.0212174,18.7180223 30.0212174,18.2010085 C30.0212174,17.6838145 33.6169105,17.2646531 38.0524433,17.2646531 C42.487976,17.2646531 46.0836691,17.6838145 46.0836691,18.2010085" id="Fill-9" fill="#D75F9F" transform="translate(38.052443, 18.357068) rotate(-90.000000) translate(-38.052443, -18.357068) "></path>
            <path d="M42.6041709,23.0870455 C38.1859612,23.164901 34.480419,22.0320474 33.7308837,21.543288 C32.9815129,21.0547167 32.7700169,18.2865219 32.7700169,18.2865219 C32.7700169,18.1234767 32.7700169,14.8667106 34.1951874,14.2152822 C35.620358,13.5638537 42.6041709,13.6247841 42.6041709,13.6247841 C42.6041709,13.6247841 49.5879839,13.5638537 51.0131544,14.2152822 C52.438325,14.8667106 52.438325,18.1234767 52.438325,18.2865219 C52.438325,18.2865219 52.226829,21.0547167 51.4774582,21.543288 C50.7279228,22.0320474 47.0223807,23.164901 42.6041709,23.0870455" id="Fill-11" fill="#393939" transform="translate(42.604171, 18.357068) rotate(-90.000000) translate(-42.604171, -18.357068) "></path>
            <path d="M25.3277909,18.2009055 C25.3277909,18.7181422 21.7320979,19.4494824 17.2965651,19.4494824 C12.8610324,19.4494824 9.2653393,18.7181422 9.2653393,18.2009055 C9.2653393,17.6838491 12.8610324,17.2646531 17.2965651,17.2646531 C21.7320979,17.2646531 25.3277909,17.6838491 25.3277909,18.2009055" id="Fill-13" fill="#4F4F4F" transform="translate(17.296565, 18.357068) rotate(-90.000000) translate(-17.296565, -18.357068) "></path>
            <path d="M5.4620732,63.4791403 C0.307456212,63.5691448 -4.01577094,62.2617305 -4.89006049,61.6980279 C-5.76435004,61.1343253 -6.01110654,57.9400104 -6.01110654,57.9400104 C-6.01110654,57.7521096 -6.01110654,53.9940921 -4.34832687,53.2424886 C-2.6855472,52.4908851 5.4620732,52.56116 5.4620732,52.56116 C5.4620732,52.56116 13.6096936,52.4908851 15.2724733,53.2424886 C16.9352529,53.9940921 16.9352529,57.7521096 16.9352529,57.9400104 C16.9352529,57.9400104 16.6884964,61.1343253 15.8142069,61.6980279 C14.9399173,62.2617305 10.6166902,63.5691448 5.4620732,63.4791403" id="Fill-15" fill="#393939" transform="translate(5.462073, 58.021489) rotate(-90.000000) translate(-5.462073, -58.021489) "></path>
            <path d="M20.4486619,57.6755174 C20.4486619,58.2787124 16.2659152,59.1320703 11.1062155,59.1320703 C5.94651584,59.1320703 1.76376914,58.2787124 1.76376914,57.6755174 C1.76376914,57.0723225 5.94651584,56.5831028 11.1062155,56.5831028 C16.2659152,56.5831028 20.4486619,57.0723225 20.4486619,57.6755174" id="Fill-17" fill="#4F4F4F" transform="translate(11.106215, 57.857587) rotate(-90.000000) translate(-11.106215, -57.857587) "></path>
            <path d="M43.3324474,63.4791402 C38.1778304,63.5691462 33.8546032,62.2617109 32.9803137,61.6979992 C32.1060241,61.1342876 31.8592676,57.9399214 31.8592676,57.9399214 C31.8592676,57.7520176 31.8592676,53.9939398 33.5220473,53.2423242 C35.184827,52.4907087 43.3324474,52.5611726 43.3324474,52.5611726 C43.3324474,52.5611726 51.4800677,52.4907087 53.1428474,53.2423242 C54.8056271,53.9939398 54.8056271,57.7520176 54.8056271,57.9399214 C54.8056271,57.9399214 54.5588706,61.1342876 53.684581,61.6979992 C52.8102915,62.2617109 48.4870643,63.5691462 43.3324474,63.4791402" id="Fill-19" fill="#393939" transform="translate(43.332447, 58.021489) rotate(-90.000000) translate(-43.332447, -58.021489) "></path>
            <path d="M-5.51015598,34.5712576 C-5.51015598,34.5712576 -5.39434421,39.0044773 -5.31162151,39.8502682 C-5.22889882,40.6960591 -5.39434421,42.1789272 -7.04879813,43.2910783 C-8.70325206,44.4032294 -10.5231514,44.2178709 -10.357706,49.5932679 C-10.1922606,54.9686649 -3.73989029,54.4125894 -0.596427831,54.4125894 C-0.596427831,54.4125894 8.66851414,54.4125894 13.1355397,53.3004383 C17.6025653,52.1882872 20.5805824,52.9297212 22.2350363,52.1882872 C23.8894902,51.4468531 30.0109698,44.4032294 30.0109698,44.4032294 C30.0109698,44.4032294 44.0825967,44.9676461 49.5379931,44.0367757 C54.993224,43.1057198 54.8277786,43.1057198 55.820451,42.7350028 C56.8131233,42.3642858 58.7985898,38.9041983 58.7985898,34.579228 L58.7985898,34.5875692 C58.7985898,29.7682477 56.8131233,26.8025114 55.820451,26.4317944 C54.8277786,26.0610774 54.993224,26.0610774 49.5379931,25.1302069 C44.0825967,24.199151 30.0109698,24.7635677 30.0109698,24.7635677 C30.0109698,24.7635677 25.1690449,19.1922468 22.9338777,17.4378284 C22.6557639,17.2198468 22.4181844,17.0606238 22.2350363,16.97851 C20.5805824,16.2370759 17.6025653,16.97851 13.1355397,15.8663589 C8.66851414,14.7542078 -0.596427831,14.7542078 -0.596427831,14.7542078 C-3.73989029,14.7542078 -10.1922606,14.1981322 -10.357706,19.5735292 C-10.5231514,24.9489262 -8.70325206,24.7635677 -7.04879813,25.8757188 C-5.39434421,26.9878699 -5.22889882,28.4707381 -5.31162151,29.316529 C-5.39434421,30.1625053 -5.51015598,34.5957249 -5.51015598,34.5957249" id="Fill-21" fill="url(#linearGradient-1)" transform="translate(24.215191, 34.583399) rotate(-90.000000) translate(-24.215191, -34.583399) "></path>
            <path d="M24.2803737,62.3360221 C24.2803737,62.3360221 23.4530242,62.3910235 23.4141007,63.292601 C23.3751773,64.1941785 23.4100274,66.9853152 23.4100274,66.9853152 C23.4100274,66.9853152 23.4567958,67.9478402 24.1703923,68.1150743 C24.8838379,68.2821225 25.034704,67.7246756 25.034704,67.7246756 L25.034704,62.5218377 C25.034704,62.5218377 24.7371961,62.2529625 24.2803737,62.3360221" id="Fill-32" fill="#393939" transform="translate(24.215191, 65.233202) rotate(-90.000000) translate(-24.215191, -65.233202) "></path>
          </g>
          <g id="编组" transform="translate(36.049683, 53.799310) rotate(-90.000000) translate(-36.049683, -53.799310) translate(14.201390, 47.898817)">
            <mask id="mask-3" fill="white">
              <use xlink:href="#path-2"></use>
            </mask>
            <g id="Clip-34"></g>
            <path d="M42.6015206,0.72098811 L3.2942133,3.48982339 C3.2942133,3.48982339 1.30108613,4.20830168 0.743620014,5.21223036 L0.743620014,5.21223036 C0.287612734,6.03344401 -0.0113749247,7.46588291 0,8.55865927 L0,8.55865927 C0.0122244741,9.65160296 0.76517537,11.1355769 1.68350788,11.771231 L1.68350788,11.771231 C2.60184039,12.4070525 42.3424846,2.6612476 43.3773276,0.841292229 L43.3773276,0.841292229 C43.7380081,0.206641986 43.7528739,0 43.619082,0 L43.619082,0 C43.3693372,0 42.6015206,0.72098811 42.6015206,0.72098811" id="Fill-33" fill="url(#linearGradient-4)" mask="url(#mask-3)"></path>
          </g>
          <g id="编组" transform="translate(12.380699, 53.799310) rotate(-90.000000) translate(-12.380699, -53.799310) translate(-9.467594, 47.898817)">
            <mask id="mask-6" fill="white">
              <use xlink:href="#path-5"></use>
            </mask>
            <g id="Clip-36"></g>
            <path d="M1.68350676,0.0297831691 C0.76517486,0.665603632 0.0122244659,2.14940781 0,3.24251704 L0,3.24251704 C-0.0113749171,4.33529163 0.287612542,5.7677282 0.743619518,6.58877321 L0.743619518,6.58877321 C1.30108526,7.59286758 3.29421111,8.31117738 3.29421111,8.31117738 L3.29421111,8.31117738 L42.6014922,11.0800082 C42.6014922,11.0800082 44.4117692,12.7796567 43.3772987,10.9597042 L43.3772987,10.9597042 C42.3751611,9.197143 5.06658052,0 1.88345114,0 L1.88345114,0 C1.77994833,0 1.71249498,0.00970462812 1.68350676,0.0297831691" id="Fill-35" fill="url(#linearGradient-4)" mask="url(#mask-6)"></path>
          </g>
          <g id="编组" transform="translate(24.033122, 36.589540) rotate(-90.000000) translate(-24.033122, -36.589540) translate(-12.744837, 29.213925)">
            <mask id="mask-8" fill="white">
              <use xlink:href="#path-7"></use>
            </mask>
            <g id="Clip-38"></g>
          </g>
          <g id="编组" transform="translate(24.397260, 22.330017) rotate(-90.000000) translate(-24.397260, -22.330017) translate(6.918626, 17.085135)">
            <mask id="mask-10" fill="white">
              <use xlink:href="#path-9"></use>
            </mask>
            <g id="Clip-40"></g>
            <polygon id="Fill-39" fill="url(#linearGradient-11)" mask="url(#mask-10)" points="0.176306641 2.02379987 0 2.0067532 0.176306641 8.46596446 31.5712579 10.4897643 34.9572685 5.24496412 34.9572685 5.24480021 31.5712579 0"></polygon>
          </g>
          <g id="编组" transform="translate(24.397260, 11.840252) rotate(-90.000000) translate(-24.397260, -11.840252) translate(19.299325, 9.217811)">
            <mask id="mask-13" fill="white">
              <use xlink:href="#path-12"></use>
            </mask>
            <g id="Clip-42"></g>
            <polygon id="Fill-41" mask="url(#mask-13)" points="4.47459691 1.27944346 0 0 0 5.24488217 4.47459691 3.96543871 8.16031656 5.24488217 10.19587 2.62235578 8.16031656 0"></polygon>
          </g>
          <g id="编组" transform="translate(24.215191, 10.201227) rotate(-90.000000) translate(-24.215191, -10.201227) translate(17.114496, 2.006098)">
            <polygon id="Stroke-43" stroke="#000000" stroke-width="0.5" points="8.10431414 10.8571742 4.4440741 9.62633828 0 10.8571742 0 5.81155121 4.4440741 7.04222298 8.10431414 5.81155121 10.125898 8.33428063"></polygon>
            <g transform="translate(5.215008, 0.000000)">
              <mask id="mask-15" fill="white">
                <use xlink:href="#path-14"></use>
              </mask>
              <g id="Clip-46"></g>
              <path d="M8.96414063,8.04253362 C8.96414063,8.04253362 8.77879325,14.2564577 5.7205615,15.4874577 L0,16.3901911 C0,16.3901911 1.35229448,15.7691106 1.96097527,15.0653068 C2.56965606,14.3616672 2.9950283,8.07224175 2.9950283,8.07224175 L2.9950283,8.15398016 C2.9950283,8.15398016 2.56965606,1.8643906 1.96097527,1.16075097 C1.35229448,0.456947216 0,0 0,0 L2.96203646,0.367002146 C3.06230939,0.37947628 4.57530005,0.674588024 4.89817518,0.740569626 C4.93376188,0.747791493 4.96768045,0.75649056 5.00178437,0.767159227 L5.62788781,0.961657234 C7.28934172,1.63050059 8.31561015,3.70399706 8.73709009,5.45874659 C9.09147428,6.93381291 8.96414063,8.18352416 8.96414063,8.18352416" id="Fill-45" fill="#2E2E2E" mask="url(#mask-15)"></path>
            </g>
            <path d="M5.21495239,16.3902568 C5.21495239,16.3902568 6.43324071,15.7921549 6.92366987,15.3115725 L11.3988823,15.2644662 L10.9355139,15.4875234 L5.21495239,16.3902568 Z" id="Fill-47" fill="#4F4F4F"></path>
            <path d="M5.21495239,0 C5.21495239,0 6.60876468,0.612709755 7.01133918,0.992350169 L11.0300411,1.04454457 C11.0300411,1.04454457 11.0804555,1.0225507 10.5446163,0.869086031 C10.008777,0.715457225 8.19014851,0.376686013 8.26539955,0.382102414 C8.34065058,0.387190547 5.21495239,0 5.21495239,0" id="Fill-49" fill="#4F4F4F"></path>
          </g>
          <g id="编组" transform="translate(11.106215, 22.821724) rotate(-90.000000) translate(-11.106215, -22.821724) translate(1.456553, 20.035381)">
            <mask id="mask-17" fill="white">
              <use xlink:href="#path-16"></use>
            </mask>
            <g id="Clip-52"></g>
            <path d="M1.55252806,0.747242569 C0.398965657,1.18657449 -0.130412712,2.06310005 0.0272227405,2.92515119 L0.0272227405,2.92515119 C0.102207101,3.33454735 -0.184266816,3.91961048 0.89244129,4.83742108 L0.89244129,4.83742108 C1.79356257,5.60522392 3.28090823,5.42873454 4.41614527,5.4724868 L4.41614527,5.4724868 C5.18955005,5.50225807 9.6349446,5.40307532 11.1542661,5.37856747 L11.1542661,5.37856747 C11.9774112,5.3654089 13.1663153,5.42001698 14.2720074,5.47462507 L14.2720074,5.47462507 C15.3395528,5.52742385 16.329683,5.58005815 16.8379311,5.57183404 L16.8379311,5.57183404 C18.6117507,5.54272069 19.3780497,4.33163836 19.2929677,3.82799391 L19.2929677,3.82799391 C19.2078857,3.32434945 19.1056003,2.56197452 16.8485897,1.5474484 L16.8485897,1.5474484 C14.5913922,0.533086764 11.6555955,0.125170943 9.18971327,0.027468525 L9.18971327,0.027468525 C8.73606724,0.00953996677 8.25942101,0 7.77230316,0 L7.77230316,0 C5.48013783,0 2.96002752,0.211195126 1.55252806,0.747242569" id="Fill-51" mask="url(#mask-17)"></path>
          </g>
          <g id="编组" transform="translate(11.106215, 22.821724) rotate(-90.000000) translate(-11.106215, -22.821724) translate(3.641382, 20.690991)">
            <mask id="mask-19" fill="white">
              <use xlink:href="#path-18"></use>
            </mask>
            <g id="Clip-54"></g>
            <path d="M1.20089531,0.571456116 C0.308481339,0.907501576 -0.100985786,1.57780415 0.0211064662,2.23688896 L0.0211064662,2.23688896 C0.0788805949,2.55001115 -0.142680384,2.99742145 0.690463686,3.69926386 L0.690463686,3.69926386 C1.38749266,4.28648989 2.53811398,4.15138888 3.41631813,4.1850422 L3.41631813,4.1850422 C4.01443929,4.20764032 7.45340223,4.13187971 8.62851679,4.113346 L8.62851679,4.113346 C9.26534101,4.10310368 10.1848658,4.1450484 11.0402595,4.18666796 L11.0402595,4.18666796 C11.8661117,4.22698692 12.632133,4.26714329 13.0255206,4.26080281 L13.0255206,4.26080281 C14.3977029,4.23869242 14.9904019,3.31249455 14.924775,2.92735102 L14.924775,2.92735102 C14.8587741,2.54220748 14.7796853,1.95920844 13.0337474,1.18339376 L13.0337474,1.18339376 C11.2876225,0.407579085 9.01648222,0.0957575113 7.10881414,0.0209723582 L7.10881414,0.0209723582 C6.75749509,0.00731593889 6.38860073,0 6.01147964,0 L6.01147964,0 C4.23861786,0 2.28962913,0.161438385 1.20089531,0.571456116" id="Fill-53" fill="url(#linearGradient-20)" mask="url(#mask-19)"></path>
          </g>
          <g id="编组" transform="translate(37.324167, 22.821724) rotate(-90.000000) translate(-37.324167, -22.821724) translate(27.674504, 20.035381)">
            <mask id="mask-22" fill="white">
              <use xlink:href="#path-21"></use>
            </mask>
            <g id="Clip-56"></g>
            <path d="M14.2720074,0.0980320879 C13.1663153,0.152640566 11.9774112,0.207084562 11.1542661,0.193925892 L11.1542661,0.193925892 C9.6349446,0.16941787 5.18955005,0.0702343986 4.41614527,0.100005888 L4.41614527,0.100005888 C3.28090823,0.143758464 1.79356257,-0.0327321904 0.89244129,0.735240659 L0.89244129,0.735240659 C-0.184266816,1.65289337 0.102207101,2.23796072 0.0272227405,2.64752431 L0.0272227405,2.64752431 C-0.130412712,3.50941716 0.398965657,4.38594903 1.55252806,4.82528411 L1.55252806,4.82528411 C3.25921699,5.47532239 6.60135037,5.64770096 9.18971327,5.54522782 L9.18971327,5.54522782 C11.6555955,5.44736021 14.5913922,5.03960594 16.8485897,4.02507252 L16.8485897,4.02507252 C19.1056003,3.01070359 19.2078857,2.24815869 19.2929677,1.74451061 L19.2929677,1.74451061 C19.3780497,1.24102702 18.6117507,0.0297714898 16.8379311,0.000822416845 L16.8379311,0.000822416845 C16.8027763,0.000328966738 16.7650037,0 16.7251741,0 L16.7251741,0 C16.1916818,0 15.2653164,0.049016044 14.2720074,0.0980320879" id="Fill-55" mask="url(#mask-22)"></path>
          </g>
          <g id="编组" transform="translate(37.324167, 22.821724) rotate(-90.000000) translate(-37.324167, -22.821724) translate(29.859333, 20.690991)">
            <mask id="mask-24" fill="white">
              <use xlink:href="#path-23"></use>
            </mask>
            <g id="Clip-58"></g>
            <path d="M11.0402595,0.0751088796 C10.1848658,0.116727653 9.26534101,0.158671573 8.62851679,0.148266879 L8.62851679,0.148266879 C7.45340223,0.129570946 4.01443929,0.0536491997 3.41631813,0.0767346129 L3.41631813,0.0767346129 C2.53811398,0.110062146 1.38749266,-0.0250362932 0.690463686,0.562341157 L0.690463686,0.562341157 C-0.142680384,1.26400766 0.0788805949,1.71140947 0.0211064662,2.02452571 L0.0211064662,2.02452571 C-0.100985786,2.68376057 0.308481339,3.35405042 1.20089531,3.68992693 L1.20089531,3.68992693 C2.52128656,4.18707618 5.10653859,4.31892315 7.10881414,4.24040023 L7.10881414,4.24040023 C9.01648222,4.16577907 11.2876225,3.85380085 13.0337474,3.0780009 L13.0337474,3.0780009 C14.7796853,2.30220096 14.8587741,1.71921299 14.924775,1.33423934 L14.924775,1.33423934 C14.9904019,0.948940542 14.3977029,0.0227602666 13.0255206,0.00065029333 L13.0255206,0.00065029333 C12.9980358,0.000325146665 12.9686814,0 12.9374571,0 L12.9374571,0 C12.5246245,0 11.8083375,0.0375544398 11.0402595,0.0751088796" id="Fill-57" fill="url(#linearGradient-20)" mask="url(#mask-24)"></path>
          </g>
          <g id="编组" transform="translate(24.215191, 40.359299) rotate(-90.000000) translate(-24.215191, -40.359299) translate(-7.282764, 25.280263)">
            <polyline id="Stroke-59" stroke="#000000" stroke-width="0.5" points="32.657674 0 37.0855721 9.75720763 37.0855721 20.3011619 32.657674 30.1580725"></polyline>
            <polyline id="Stroke-61" stroke="#000000" stroke-width="0.5" points="0.556664897 8.89910335 3.33998938 12.2000115 3.33998938 17.9041719 0 21.9181619"></polyline>
            <path d="M34.3579327,18.361487 L29.8461637,17.034367 C29.7589528,17.0088233 29.6999464,16.9363121 29.6999464,16.8547369 L29.6999464,13.3562357 C29.6999464,13.2746606 29.7589528,13.2023142 29.8461637,13.1766057 L34.3579327,11.8494857 C34.4171247,11.8321819 34.4818834,11.838609 34.5353232,11.8671191 L36.9527333,13.1644106 C37.0167498,13.1986886 37.0557163,13.2601584 37.0557163,13.3264073 L37.0557163,16.8847302 C37.0557163,16.9508143 37.0167498,17.012284 36.9527333,17.0465621 L34.5351377,18.3438536 C34.4818834,18.3723637 34.4171247,18.3789556 34.3579327,18.361487" id="Fill-63" fill="#393939"></path>
            <line x1="62.9031334" y1="14.0078479" x2="62.9031334" y2="16.479821" id="Stroke-65" stroke="#000000" stroke-width="0.5"></line>
          </g>
        </g>
      </g>
    </g>
  </g>
</svg>