<?xml version="1.0" encoding="UTF-8"?>
<svg width="32px" height="32px" viewBox="0 0 32 32" version="1.1" xmlns="http://www.w3.org/2000/svg" xmlns:xlink="http://www.w3.org/1999/xlink">
    <title>切片</title>
    <defs>
        <circle id="path-1" cx="16" cy="16" r="16"></circle>
    </defs>
    <g id="页面-1" stroke="none" stroke-width="1" fill="none" fill-rule="evenodd">
        <g id="智能调度-创建调度-下发参数成功备份-3" transform="translate(-1122.000000, -328.000000)">
            <g id="icon/地图中/运维断点" transform="translate(1122.000000, 328.000000)">
                <mask id="mask-2" fill="white">
                    <use xlink:href="#path-1"></use>
                </mask>
                <circle stroke="#FFFFFF" stroke-width="2" cx="16" cy="16" r="15"></circle>
                <path d="M13,19 L13,20 C13,21.6568542 14.3431458,23 16,23 C17.5976809,23 18.9036609,21.75108 18.9949073,20.1762728 L19,20 L19,19 L21,19 L21,20 C21,22.7614237 18.7614237,25 16,25 C13.2385763,25 11,22.7614237 11,20 L11,19 L13,19 Z M24,15 C24.5522847,15 25,15.4477153 25,16 C25,16.5522847 24.5522847,17 24,17 L8,17 C7.44771525,17 7,16.5522847 7,16 C7,15.4477153 7.44771525,15 8,15 L24,15 Z M16,7 C18.7614237,7 21,9.23857625 21,12 L21,13 L19,13 L19,12 C19,10.3431458 17.6568542,9 16,9 C14.4023191,9 13.0963391,10.24892 13.0050927,11.8237272 L13,12 L13,13 L11,13 L11,12 C11,9.23857625 13.2385763,7 16,7 Z" id="形状结合" fill="#FFFFFF" mask="url(#mask-2)" transform="translate(16.000000, 16.000000) rotate(-45.000000) translate(-16.000000, -16.000000) "></path>
            </g>
        </g>
    </g>
</svg>