<?xml version="1.0" encoding="UTF-8"?>
<svg width="48px" height="48px" viewBox="0 0 48 48" version="1.1" xmlns="http://www.w3.org/2000/svg" xmlns:xlink="http://www.w3.org/1999/xlink">
    <title>切片</title>
    <g id="页面-1" stroke="none" stroke-width="1" fill="none" fill-rule="evenodd">
        <g id="界面图标状态" transform="translate(-436.000000, -736.000000)">
            <g id="iicon/电子围栏_激活_未选中_正常状态备份-2" transform="translate(436.000000, 736.000000)">
                <g id="编组-19" transform="translate(6.000000, 2.571429)" fill="#4B7EFF" stroke="#FFFFFF" stroke-width="2.28571429">
                    <path d="M18,1.14285714 C22.654518,1.14285714 26.8682123,3.03635164 29.9183958,6.09716293 C32.9700155,9.15941546 34.8571429,13.3899713 34.8571429,18.0627178 C34.8571429,21.931443 33.5637749,25.4971461 31.3865623,28.3475127 C29.0677863,31.3832116 25.7472492,33.6083793 21.9198906,34.5230023 L21.9198906,34.5230023 L18.0000899,41.4049733 L14.0811385,34.5232482 C10.253509,33.6088171 6.93270422,31.383673 4.61373378,28.3479004 C2.43634242,25.4974694 1.14285714,21.9316184 1.14285714,18.0627178 C1.14285714,13.3899713 3.02998448,9.15941546 6.08160418,6.09716293 C9.13178766,3.03635164 13.345482,1.14285714 18,1.14285714 Z" id="形状结合备份-11"></path>
                </g>
                <text id="入" font-size="17.1428571" font-weight="400" fill="#FFFFFF">
                    <tspan x="15.4285714" y="26.5714286">入</tspan>
                </text>
                <rect id="矩形备份-13" x="0" y="0" width="48" height="48"></rect>
            </g>
        </g>
    </g>
</svg>