<?xml version="1.0" encoding="UTF-8"?>
<svg width="30px" height="30px" viewBox="0 0 30 30" version="1.1" xmlns="http://www.w3.org/2000/svg" xmlns:xlink="http://www.w3.org/1999/xlink">
    <title>切片</title>
    <g id="页面-1" stroke="none" stroke-width="1" fill="none" fill-rule="evenodd">
        <g id="3.3.3_路径规划下发" transform="translate(-1104.000000, -327.000000)">
            <g id="编组" transform="translate(-207.000000, -65.000000)">
                <g id="图示" transform="translate(911.024294, 275.000000)">
                    <g id="icon_34x34_坐标备份-3" transform="translate(399.975706, 117.000000)">
                        <g id="icon_34x34_坐标" transform="translate(6.176471, 0.000000)">
                            <path d="M6.93277311,28.75 C6.93277311,29.4403559 7.77929354,30 8.82352941,30 C9.86776528,30 10.7142857,29.4403559 10.7142857,28.75 C10.7142857,28.059644 9.86776528,27.5 8.82352941,27.5 C7.77929354,27.5 6.93277311,28.059644 6.93277311,28.75 Z" id="路径" fill="#A93529" fill-rule="nonzero"></path>
                            <path d="M10.0840336,17.400625 L10.0840336,28.4375 C10.0840336,28.610089 9.94294687,28.75 9.76890756,28.75 L7.87815126,28.75 C7.70411196,28.75 7.56302522,28.610089 7.5630252,28.4375 L7.5630252,17.400625 C3.28865548,16.7925 0,13.156875 0,8.75000001 C0,3.91749999 3.95042018,0 8.82352941,0 C13.6966386,0 17.6470588,3.91749999 17.6470588,8.75000001 C17.6470588,13.156875 14.3584034,16.7925 10.0840336,17.400625 Z" id="路径" fill="#F0493E" fill-rule="nonzero"></path>
                            <circle id="椭圆形" fill="#FFFFFF" cx="8.82352941" cy="8.82352941" r="2.64705882"></circle>
                        </g>
                    </g>
                </g>
            </g>
        </g>
    </g>
</svg>