<?xml version="1.0" encoding="UTF-8"?>
<svg width="52px" height="52px" viewBox="0 0 52 52" version="1.1" xmlns="http://www.w3.org/2000/svg" xmlns:xlink="http://www.w3.org/1999/xlink">
    <title>icon_无人机小图标</title>
    <g id="icon_无人机小图标" stroke="none" stroke-width="1" fill="none" fill-rule="evenodd">
        <circle id="椭圆形" fill="#3A97FF" cx="26" cy="26" r="23"></circle>
        <g id="编组" transform="translate(12.688183, 13.279485)">
            <path d="M10.3100775,2.72535178 L16.3100775,2.72535178 L15.4220492,5.1590099 C15.3522299,5.35031151 15.2256792,5.51574505 15.0593077,5.63318261 C14.2963341,6.17174719 13.7138372,6.44102948 13.311817,6.44102948 C12.9094888,6.44102948 12.3282062,6.17133445 11.567969,5.63194438 C11.4034687,5.51522224 11.2781052,5.35148693 11.2083432,5.16223138 L10.3100775,2.72535178 L10.3100775,2.72535178 Z" id="矩形" fill="#FF7A46" transform="translate(13.310077, 4.583191) scale(1, -1) translate(-13.310077, -4.583191) "></path>
            <path d="M24.9884609,1.44779357 C25.2198258,1.76671472 25.242356,2.19176619 25.0460021,2.53335889 L21.9922222,7.84595487 C20.2084753,10.9491014 20.2192785,14.7689669 22.0205491,17.8619744 L25.1865284,23.298358 C25.4644651,23.7756102 25.302888,24.3878117 24.8256358,24.6657484 C24.4946713,24.8584918 24.0826922,24.8452707 23.7647669,24.6317033 L18.8835612,21.3527372 C15.5112192,19.0873553 11.1035037,19.0873553 7.73116175,21.3527372 L2.82060395,24.6514206 C2.36215439,24.9593856 1.74085263,24.8373938 1.43288762,24.3789443 C1.22003988,24.0620902 1.20613501,23.6517044 1.39704765,23.32117 L4.60305845,17.77048 C6.39057409,14.6756853 6.39057409,10.8621896 4.60305845,7.76739496 L1.58907899,2.54917621 C1.31285142,2.07093278 1.47661763,1.4593132 1.95486106,1.18308563 C2.29669738,0.985645143 2.72269648,1.00778154 3.04222759,1.23958898 L7.43523875,4.42654842 C10.9376912,6.96744205 15.6770317,6.96744205 19.1794842,4.42654842 L23.5918157,1.22557287 C24.0388531,0.901264485 24.6641525,1.00075608 24.9884609,1.44779357 Z M13.3073615,10.7277418 C12.1974063,10.7277418 11.2976099,11.6416162 11.2976099,12.7689375 C11.2976099,13.8962588 12.1974063,14.8101332 13.3073615,14.8101332 C14.4173167,14.8101332 15.3171131,13.8962588 15.3171131,12.7689375 C15.3171131,11.6416162 14.4173167,10.7277418 13.3073615,10.7277418 Z" id="形状结合" fill="#FFFFFF"></path>
            <rect id="矩形" fill="#FFFFFF" transform="translate(3.811817, 3.220515) rotate(-39.000000) translate(-3.811817, -3.220515) " x="-0.688182978" y="2.72051474" width="9" height="1" rx="0.5"></rect>
            <rect id="矩形" fill="#FFFFFF" transform="translate(22.811817, 3.220515) scale(-1, 1) rotate(-39.000000) translate(-22.811817, -3.220515) " x="18.311817" y="2.72051474" width="9" height="1" rx="0.5"></rect>
            <rect id="矩形" fill="#FFFFFF" transform="translate(3.811817, 22.220515) scale(1, -1) rotate(-39.000000) translate(-3.811817, -22.220515) " x="-0.688182978" y="21.7205147" width="9" height="1" rx="0.5"></rect>
            <rect id="矩形" fill="#FFFFFF" transform="translate(22.811817, 22.220515) scale(-1, -1) rotate(-39.000000) translate(-22.811817, -22.220515) " x="18.311817" y="21.7205147" width="9" height="1" rx="0.5"></rect>
        </g>
    </g>
</svg>