<?xml version="1.0" encoding="UTF-8"?>
<svg width="56px" height="56px" viewBox="0 0 56 56" version="1.1" xmlns="http://www.w3.org/2000/svg" xmlns:xlink="http://www.w3.org/1999/xlink">
    <title>切片</title>
    <g id="页面-1" stroke="none" stroke-width="1" fill="none" fill-rule="evenodd">
        <g id="界面图标状态-pc" transform="translate(-191.000000, -3665.000000)">
            <g id="icon/地图中/无人船备份-2" transform="translate(191.000000, 3665.000000)">
                <rect id="矩形备份-12" x="0" y="0" width="56" height="56"></rect>
                <path d="M28,4 C33.5228475,4 38.5228475,6.23857625 42.1421356,9.85786438 C45.7614237,13.4771525 48,18.4771525 48,24 C48,28.673515 46.3971664,32.9727321 43.710845,36.3775676 C40.8825493,39.9623516 36.8538787,42.5565003 32.2306883,43.5518877 L32.2306883,43.5518877 L28.0001542,50.9792518 L23.7713739,43.5523316 C19.1476524,42.5573434 15.1184516,39.9632582 12.2897661,36.3783421 C9.6030768,32.973384 8,28.6738693 8,24 C8,18.4771525 10.2385763,13.4771525 13.8578644,9.85786438 C17.4771525,6.23857625 22.4771525,4 28,4 Z" id="形状结合备份-11" stroke="#FFFFFF" stroke-width="2" fill="#2878FF"></path>
                <g id="shouge" transform="translate(13.500000, 14.500000)" fill="#FFFFFF" fill-rule="nonzero">
                    <path d="M2.51803489,2.63204402 L0,3.49845188 L0,3.49845188 L0.6379027,4.26372575 L2.67147928,3.60575773 L7.42975185,7.83517825 L8.60959267,6.59165185 L3.34788418,2.75679222 C3.10825491,2.58214464 2.79842111,2.53556846 2.51803489,2.63204402 Z M10.0469543,6.41005849 L10.2931771,6.4053061 L10.2931771,6.4053061 L10.7640819,0.832042648 C10.8037894,0.362095176 11.1968204,0.000872405224 11.6684423,0.000872405224 L11.8062768,0.000872405224 L11.8062768,0.000872405224 L10.9889704,10.2904755 L5.84668533,10.2904755 L9.41926106,6.67918236 C9.5854717,6.51117043 9.81066379,6.41461918 10.0469543,6.41005849 Z" id="形状"></path>
                    <path d="M5.84668533,10.2904755 L7.15294747,12.5894503 C7.31423652,12.8733133 7.6155626,13.0486718 7.94204744,13.0486718 L23.4155991,13.0486718 C23.7354822,13.0486718 24.0317436,12.8802763 24.1954033,12.6054296 L25.5738612,10.2904755 L25.5738612,10.2904755 L24.2167477,10.2412718 L22.3372378,11.0875049 L9.09848852,11.0981483 L7.59725365,10.2274878 L5.84668533,10.2904755 Z" id="路径"></path>
                    <path d="M26.2007716,15.6049937 L26.2006228,15.647636 L26.2183192,15.6049937 L27.9750975,18.6055528 C28.0257487,18.6920646 27.9966781,18.8032571 27.9101663,18.8539083 C27.8823467,18.8701962 27.8506912,18.8787815 27.8184541,18.8787815 L2.28309183,18.8787815 C2.182843,18.8787815 2.10157526,18.7975137 2.10157526,18.6972649 C2.10157526,18.6687685 2.10828455,18.6406723 2.12116008,18.6152505 L3.64578143,15.6049937 L26.2007716,15.6049937 Z M26.0218289,16.0932592 L4.30427884,16.0932592 L4.30479634,18.6238647 L4.95316789,16.6147154 L6.59311524,16.6147154 L6.61108678,18.6238647 L7.3713007,16.6147154 L8.89137956,16.6044211 L8.90184842,18.6290991 L9.51828997,16.5988377 L11.203079,16.5936032 L11.1924355,18.7301236 L11.851625,16.6044211 L13.4882571,16.6042466 L13.4882571,18.7301236 L14.2537055,16.6147154 L15.768201,16.6096555 L15.7844277,18.7301236 L16.4643803,16.508631 L18.1116559,16.503222 L18.1151455,18.5306918 L18.754793,16.508631 L20.4076519,16.5138655 L20.4024175,18.5493613 L21.1675169,16.508631 L22.703648,16.5138655 L22.6982391,18.5334835 L23.463513,16.503222 L24.9994696,16.508631 L25.0101129,18.6078125 L26.0218289,16.0932592 Z M20.3974448,13.7343823 C20.7144316,13.7343823 20.9714002,13.991351 20.9714002,14.3083377 C20.9714002,14.6253246 20.7144316,14.8822931 20.3974448,14.8822931 L11.0011171,14.8822931 C10.6841303,14.8822931 10.4271617,14.6253246 10.4271617,14.3083377 C10.4271617,13.991351 10.6841303,13.7343823 11.0011171,13.7343823 L20.3974448,13.7343823 Z M21.9747313,0 C22.3807767,0 22.7374155,0.269701724 22.8480044,0.660397182 L25.5738612,10.2904755 L9.74031423,10.2904755 L10.0355362,8.99530272 L24.0607616,8.95883618 L22.050042,0.900845634 L10.7465464,0.901369077 L10.7545052,0.819629801 C10.799779,0.35465061 11.1906382,0 11.6578163,0 L21.9747313,0 Z" id="形状结合"></path>
                    <polygon id="路径-2" points="12.4835895 1.71533159 21.474212 1.71533159 22.9574419 8.17850999 12.0300434 8.17850999"></polygon>
                </g>
            </g>
        </g>
    </g>
</svg>