<?xml version="1.0" encoding="UTF-8"?>
<svg width="32px" height="32px" viewBox="0 0 32 32" version="1.1" xmlns="http://www.w3.org/2000/svg" xmlns:xlink="http://www.w3.org/1999/xlink">
    <title>icon/地图中/机库</title>
    <g id="icon/地图中/机库" stroke="none" stroke-width="1" fill="none" fill-rule="evenodd">
        <circle id="椭圆形" stroke="#FFFFFF" stroke-width="1.89830508" fill="#A747FF" cx="16" cy="16" r="14.9491525"></circle>
        <path d="M11,8 L11,24 L13.5297297,24 L13.5297297,17.859944 L17.3567568,17.859944 C21.1189189,17.859944 23,16.2016807 23,12.907563 C23,9.63585434 21.1189189,8 17.4,8 L11,8 Z M13.5297297,10.2408964 L17.2054054,10.2408964 C18.3081081,10.2408964 19.1297297,10.442577 19.6486486,10.8683473 C20.1675676,11.2717087 20.4486486,11.9439776 20.4486486,12.907563 C20.4486486,13.8711485 20.1891892,14.5658263 19.6702703,14.9915966 C19.1513514,15.394958 18.3297297,15.6190476 17.2054054,15.6190476 L13.5297297,15.6190476 L13.5297297,10.2408964 Z" id="P" fill="#FFFFFF" fill-rule="nonzero"></path>
    </g>
</svg>