<?xml version="1.0" encoding="UTF-8"?>
<svg width="65px" height="65px" viewBox="0 0 65 65" version="1.1" xmlns="http://www.w3.org/2000/svg" xmlns:xlink="http://www.w3.org/1999/xlink">
    <title>切片</title>
    <g id="页面-1" stroke="none" stroke-width="1" fill="none" fill-rule="evenodd">
        <g id="界面图标状态" transform="translate(-192.000000, -811.000000)">
            <g id="icon/运维平台_激活_选中_正常状态备份" transform="translate(192.000000, 811.000000)">
                <rect id="矩形备份-4" x="0" y="0" width="65" height="65"></rect>
                <g id="编组-19备份" transform="translate(12.025000, 9.100000)">
                    <path d="M38.5622449,-1.2244898 C39.5597388,-1.2244898 40.4628,-0.820175514 41.1164878,-0.166487761 C41.7701755,0.487199993 42.1744898,1.39026122 42.1744898,2.3877551 L42.1744898,2.3877551 L42.1744898,26.5697449 C42.1744898,27.5672388 41.7701755,28.4703 41.1164878,29.1239878 C40.4628,29.7776755 39.5597388,30.1819898 38.5622017,30.1819898 L38.5622017,30.1819898 L25.5984898,30.1815329 L25.5984898,41.2457133 L30.4040816,41.2465102 C30.9620019,41.2465102 31.467104,41.4726521 31.8327259,41.8382741 C32.1983479,42.203896 32.4244898,42.7089981 32.4244898,43.2669184 L32.4244898,43.2669184 L32.4244898,46.0625816 C32.4244898,46.6205019 32.1983479,47.125604 31.8327259,47.4912259 C31.467104,47.8568479 30.9620019,48.0829898 30.4040816,48.0829898 L30.4040816,48.0829898 L11.5209184,48.0829898 C10.9629981,48.0829898 10.457896,47.8568479 10.0922741,47.4912259 C9.72665209,47.125604 9.5005102,46.6205019 9.5005102,46.0625816 L9.5005102,46.0625816 L9.5005102,43.2669184 C9.5005102,42.7089981 9.72665209,42.203896 10.0922741,41.8382741 C10.457896,41.4726521 10.9629981,41.2465102 11.5207152,41.2465102 L11.5207152,41.2465102 L16.3246008,41.2457133 L16.3254196,30.1819898 L2.3877551,30.1819898 C1.39026122,30.1819898 0.487199993,29.7776755 -0.166487761,29.1239878 C-0.820175514,28.4703 -1.2244898,27.5672388 -1.2244898,26.5697449 L-1.2244898,26.5697449 L-1.2244898,2.3877551 C-1.2244898,1.39026122 -0.820175514,0.487199993 -0.166487761,-0.166487761 C0.487199993,-0.820175514 1.39026122,-1.2244898 2.3877551,-1.2244898 L2.3877551,-1.2244898 Z" id="形状结合" stroke="#FFFFFF" stroke-width="2.44897959" fill="#4B7EFF" stroke-linejoin="round"></path>
                    <path d="M4.51683673,2.89575 L36.4331633,2.89575 C37.3123104,2.89575 38.025,3.60843958 38.025,4.48758673 L38.025,15.444 L38.025,15.444 L2.925,15.444 L2.925,4.48758673 C2.925,3.60843958 3.63768958,2.89575 4.51683673,2.89575 Z" id="矩形备份-4" fill="#FFFFFF"></path>
                    <path d="M5.03970968,18.846014 C5.79991339,18.846014 6.42464714,19.4202297 6.49551476,20.1544489 L6.50220968,20.293889 L6.50220968,24.154889 C6.50220968,24.9545283 5.84742612,25.602764 5.03970968,25.602764 C4.27950596,25.602764 3.65477221,25.0285483 3.58390459,24.294329 L3.57720968,24.154889 L3.57720968,20.293889 C3.57720968,19.4942497 4.23199323,18.846014 5.03970968,18.846014 Z" id="路径" fill="#FFFFFF" fill-rule="nonzero"></path>
                    <line x1="10.5972098" y1="6.4664386" x2="10.5972098" y2="11.3414386" id="路径-2备份-7" stroke="#FFDE02" stroke-width="2.3877551" stroke-linecap="round" stroke-linejoin="round" transform="translate(10.597210, 8.903939) scale(-1, -1) rotate(90.000000) translate(-10.597210, -8.903939) "></line>
                    <path d="M12.8397097,18.846014 C13.5999134,18.846014 14.2246471,19.4202297 14.2955148,20.1544489 L14.3022097,20.293889 L14.3022097,24.154889 C14.3022097,24.9545283 13.6474261,25.602764 12.8397097,25.602764 C12.079506,25.602764 11.4547722,25.0285483 11.3839046,24.294329 L11.3772097,24.154889 L11.3772097,20.293889 C11.3772097,19.4942497 12.0319932,18.846014 12.8397097,18.846014 Z" id="路径" fill="#FFFFFF" fill-rule="nonzero"></path>
                    <path d="M20.6397097,18.846014 C21.3999134,18.846014 22.0246471,19.4202297 22.0955148,20.1544489 L22.1022097,20.293889 L22.1022097,24.154889 C22.1022097,24.9545283 21.4474261,25.602764 20.6397097,25.602764 C19.879506,25.602764 19.2547722,25.0285483 19.1839046,24.294329 L19.1772097,24.154889 L19.1772097,20.293889 C19.1772097,19.4942497 19.8319932,18.846014 20.6397097,18.846014 Z" id="路径" fill="#FFFFFF" fill-rule="nonzero"></path>
                    <path d="M28.4397097,18.846014 C29.1999134,18.846014 29.8246471,19.4202297 29.8955148,20.1544489 L29.9022097,20.293889 L29.9022097,24.154889 C29.9022097,24.9545283 29.2474261,25.602764 28.4397097,25.602764 C27.679506,25.602764 27.0547722,25.0285483 26.9839046,24.294329 L26.9772097,24.154889 L26.9772097,20.293889 C26.9772097,19.4942497 27.6319932,18.846014 28.4397097,18.846014 Z" id="路径" fill="#FFFFFF" fill-rule="nonzero"></path>
                    <path d="M36.2397097,18.846014 C36.9999134,18.846014 37.6246471,19.4202297 37.6955148,20.1544489 L37.7022097,20.293889 L37.7022097,24.154889 C37.7022097,24.9545283 37.0474261,25.602764 36.2397097,25.602764 C35.479506,25.602764 34.8547722,25.0285483 34.7839046,24.294329 L34.7772097,24.154889 L34.7772097,20.293889 C34.7772097,19.4942497 35.4319932,18.846014 36.2397097,18.846014 Z" id="路径" fill="#FFFFFF" fill-rule="nonzero"></path>
                </g>
            </g>
        </g>
    </g>
</svg>