<?xml version="1.0" encoding="UTF-8"?>
<svg width="34px" height="34px" viewBox="0 0 34 34" version="1.1" xmlns="http://www.w3.org/2000/svg" xmlns:xlink="http://www.w3.org/1999/xlink">
    <title>icon_34x34_坐标</title>
    <g id="icon_34x34_坐标" stroke="none" stroke-width="1" fill="none" fill-rule="evenodd">
        <g transform="translate(7.000000, 0.000000)">
            <path d="M7.85714286,32.5833333 C7.85714286,33.3657367 8.81653268,34 10,34 C11.1834673,34 12.1428571,33.3657367 12.1428571,32.5833333 C12.1428571,31.8009299 11.1834673,31.1666666 10,31.1666666 C8.81653268,31.1666666 7.85714286,31.8009299 7.85714286,32.5833333 Z" id="路径" fill="#A93529" fill-rule="nonzero"></path>
            <path d="M11.4285714,19.7207083 L11.4285714,32.2291667 C11.4285714,32.4247675 11.2686731,32.5833333 11.0714286,32.5833333 L8.92857143,32.5833333 C8.73132688,32.5833333 8.57142858,32.4247675 8.57142856,32.2291667 L8.57142856,19.7207083 C3.72714288,19.0315 0,14.911125 0,9.91666668 C0,4.43983332 4.47714287,0 10,0 C15.5228571,0 20,4.43983332 20,9.91666668 C20,14.911125 16.2728572,19.0315 11.4285714,19.7207083 Z" id="路径" fill="#F0493E" fill-rule="nonzero"></path>
        </g>
    </g>
</svg>