<?xml version="1.0" encoding="UTF-8"?>
<svg width="18px" height="18px" viewBox="0 0 18 18" version="1.1" xmlns="http://www.w3.org/2000/svg" xmlns:xlink="http://www.w3.org/1999/xlink">
    <title>icon_作业箭头</title>
    <defs>
        <path d="M16,10.9509277 C16,11.0251807 15.9766959,11.0994337 15.9289953,11.162096 C15.833594,11.288145 15.6650032,11.3352323 15.5175318,11.2769165 L11.116694,9.54772707 L11.0726443,15.6490187 C11.0726443,15.842801 10.9146132,16 10.7194412,16 L7.19250796,16 C6.99806419,16 6.84003312,15.842801 6.84003312,15.6490187 L6.88408287,9.54772707 L2.48251682,11.2769165 C2.33540955,11.3348701 2.16681879,11.2877828 2.07141754,11.162096 C1.97565216,11.036047 1.97601629,10.8621863 2.0736023,10.7368617 L8.72037487,2.13691529 C8.78737422,2.05034716 8.89042213,2 9.00002433,2 C9.10962653,2 9.21303857,2.05034716 9.2796738,2.13691529 L15.9268105,10.7368617 C15.9752394,10.7998862 16,10.8755881 16,10.9509277 Z" id="path-1"></path>
        <filter x="-46.4%" y="-39.3%" width="192.9%" height="192.9%" filterUnits="objectBoundingBox" id="filter-2">
            <feOffset dx="0" dy="1" in="SourceAlpha" result="shadowOffsetOuter1"></feOffset>
            <feGaussianBlur stdDeviation="2" in="shadowOffsetOuter1" result="shadowBlurOuter1"></feGaussianBlur>
            <feColorMatrix values="0 0 0 0 0   0 0 0 0 0   0 0 0 0 0  0 0 0 0.2 0" type="matrix" in="shadowBlurOuter1"></feColorMatrix>
        </filter>
    </defs>
    <g id="icon_作业箭头" stroke="none" stroke-width="1" fill="none" fill-rule="evenodd">
        <g fill-rule="nonzero">
            <use fill="black" fill-opacity="1" filter="url(#filter-2)" xlink:href="#path-1"></use>
            <use fill="#FFEA19" xlink:href="#path-1"></use>
        </g>
    </g>
</svg>