<?xml version="1.0" encoding="UTF-8"?>
<svg width="56px" height="56px" viewBox="0 0 56 56" version="1.1" xmlns="http://www.w3.org/2000/svg" xmlns:xlink="http://www.w3.org/1999/xlink">
    <title>切片</title>
    <g id="页面-1" stroke="none" stroke-width="1" fill="none" fill-rule="evenodd">
        <g id="界面图标状态" transform="translate(-430.000000, -395.000000)">
            <g id="icon/运维平台_激活_未选中_正常状态" transform="translate(430.000000, 395.000000)">
                <rect id="矩形备份-14" x="0" y="0" width="56" height="56"></rect>
                <path d="M28,3.85714286 C33.5622964,3.85714286 38.5980107,6.11170894 42.2431509,9.75684912 C45.8882911,13.4019893 48.1428571,18.4377036 48.1428571,24 C48.1428571,28.706935 46.5285241,33.0368772 43.8229985,36.4660536 C40.9872422,40.0602936 36.9532814,42.6656283 32.3232732,43.6779801 L32.3232732,43.6779801 L28.0001322,51.2679301 L23.6787807,43.6784291 C19.0482466,42.666472 15.0137608,40.061202 12.177617,36.4668336 C9.47172084,33.0375338 7.85714286,28.7072919 7.85714286,24 C7.85714286,18.4377036 10.1117089,13.4019893 13.7568491,9.75684912 C17.4019893,6.11170894 22.4377036,3.85714286 28,3.85714286 Z" id="形状结合备份-11" stroke="#FFFFFF" stroke-width="1.71428571" fill="#4B7EFF"></path>
                <path d="M19,26 C20.1045695,26 21,26.8954305 21,28 C21,29.1045695 20.1045695,30 19,30 C17.8954305,30 17,29.1045695 17,28 C17,26.8954305 17.8954305,26 19,26 Z M31.1546222,26.4 C32.1518323,26.4 32.9546222,27.2092013 32.9546222,28.2 C32.9546222,29.1907987 32.1518323,30 31.1546222,30 C30.1574122,30 29.3546222,29.1907987 29.3546222,28.2 C29.3546222,27.2092013 30.1574122,26.4 31.1546222,26.4 Z M37.7300078,26.4 C38.7272179,26.4 39.5300078,27.2092013 39.5300078,28.2 C39.5300078,29.1907987 38.7272179,30 37.7300078,30 C36.7327978,30 35.9300078,29.1907987 35.9300078,28.2 C35.9300078,27.2092013 36.7327978,26.4 37.7300078,26.4 Z M23.7857143,16.9953704 C24.4563458,16.9953704 25,17.5390246 25,18.2096561 L25,24.9993704 L29,25 L29,22.1619048 C29,22.0724872 29.0724872,22 29.1619048,22 L32.8380952,22 C32.9275128,22 33,22.0724872 33,22.1619048 L33,25 L35,25 L35,22.1619048 C35,22.0724872 35.0724872,22 35.1619048,22 L38.8380952,22 C38.9275128,22 39,22.0724872 39,22.1619048 L39,25 L41.1904762,25 C41.6375638,25 42,25.3624362 42,25.8095238 L42,27.1904762 C42,27.6375638 41.6375638,28 41.1904762,28 L40.5229761,27.9998631 C40.4203089,26.5440797 39.2062758,25.4 37.7300078,25.4 C36.2537398,25.4 35.0397067,26.5440797 34.9370395,27.9998631 L33.9475905,27.9998631 C33.8449233,26.5440797 32.6308902,25.4 31.1546222,25.4 C29.678014,25.4 28.4637615,26.5446071 28.3615831,28.0008697 L24.6818108,28.0005473 C24.4597932,28.2431935 24.1405251,28.3953704 23.7857143,28.3953704 L21.9742192,28.395064 C21.9912252,28.2657879 22,28.1339187 22,28 C22,26.3431458 20.6568542,25 19,25 C17.3431458,25 16,26.3431458 16,28 C16,28.1339187 16.0087748,28.2657879 16.0257808,28.395064 L15.2142857,28.3953704 C14.5436542,28.3953704 14,27.8517161 14,27.1810847 L14,20.2334656 C14,18.445115 15.4497446,16.9953704 17.2380952,16.9953704 L23.7857143,16.9953704 Z" id="形状结合" fill="#FFFFFF"></path>
            </g>
        </g>
    </g>
</svg>