<?xml version="1.0" encoding="UTF-8"?>
<svg width="65px" height="65px" viewBox="0 0 65 65" version="1.1" xmlns="http://www.w3.org/2000/svg" xmlns:xlink="http://www.w3.org/1999/xlink">
    <title>icon/地图中/运维平台_激活_选中_正常状态</title>
    <g id="icon/地图中/运维平台_激活_选中_正常状态" stroke="none" stroke-width="1" fill="none" fill-rule="evenodd">
        <rect id="矩形备份-10" x="0" y="0" width="65" height="65"></rect>
        <circle id="椭圆形" stroke="#FFFFFF" stroke-width="3" fill="#4B7EFF" cx="32.5" cy="32.5" r="24"></circle>
        <path d="M36.4432778,36.2939836 C37.6897903,36.2939836 38.6932778,37.3517932 38.6932778,38.6469918 C38.6932778,39.9421904 37.6897903,41 36.4432778,41 C35.1967652,41 34.1932778,39.9421904 34.1932778,38.6469918 C34.1932778,37.3517932 35.1967652,36.2939836 36.4432778,36.2939836 Z M44.6625098,36.2939836 C45.9090223,36.2939836 46.9125098,37.3517932 46.9125098,38.6469918 C46.9125098,39.9421904 45.9090223,41 44.6625098,41 C43.4159972,41 42.4125098,39.9421904 42.4125098,38.6469918 C42.4125098,37.3517932 43.4159972,36.2939836 44.6625098,36.2939836 Z M21.25,35.7710929 C22.6307119,35.7710929 23.75,36.9416236 23.75,38.3855465 C23.75,39.8294693 22.6307119,41 21.25,41 C19.8692881,41 18.75,39.8294693 18.75,38.3855465 C18.75,36.9416236 19.8692881,35.7710929 21.25,35.7710929 Z M26.9570689,24 C27.9472774,24 28.75,24.8027226 28.75,25.7929311 L28.749,34.463 L33.75,34.4638661 L33.75,30.7812433 C33.75,30.6492155 33.8570297,30.5421858 33.9890575,30.5421858 L38.5109425,30.5421858 C38.6429703,30.5421858 38.75,30.6492155 38.75,30.7812433 L38.75,34.4638661 L41.25,34.4638661 L41.25,30.7812433 C41.25,30.6492155 41.3570297,30.5421858 41.4890575,30.5421858 L46.0109425,30.5421858 C46.1429703,30.5421858 46.25,30.6492155 46.25,30.7812433 L46.25,34.4638661 L48.8047126,34.4638661 C49.4648516,34.4638661 50,34.9990145 50,35.6591536 L50,37.190259 C50,37.8503981 49.4648516,38.3855465 48.8047126,38.3855465 L48.1536861,38.3848635 C48.0251182,36.4820644 46.5076818,34.9867569 44.6625098,34.9867569 C42.8173377,34.9867569 41.2999013,36.4820644 41.1713334,38.3848635 L39.9344541,38.3848635 C39.8058862,36.4820644 38.2884499,34.9867569 36.4432778,34.9867569 C34.5981057,34.9867569 33.0806694,36.4820644 32.9521014,38.3848635 L28.2161596,38.3858919 C27.8924139,38.7052651 27.4477613,38.9023852 26.9570689,38.9023852 L24.9676415,38.9030374 C24.9889859,38.7337074 25,38.560972 25,38.3855465 C25,36.2196622 23.3210678,34.4638661 21.25,34.4638661 C19.1789322,34.4638661 17.5,36.2196622 17.5,38.3855465 C17.5,38.560972 17.5110141,38.7337074 17.5323585,38.9030374 L16.7929311,38.9023852 C15.8027226,38.9023852 15,38.0996626 15,37.1094541 L15,28.7811497 C15,26.1405936 17.1405936,24 19.7811497,24 L26.9570689,24 Z" id="形状结合" fill="#FFFFFF"></path>
    </g>
</svg>