<?xml version="1.0" encoding="UTF-8"?>
<svg width="24px" height="24px" viewBox="0 0 24 24" version="1.1" xmlns="http://www.w3.org/2000/svg" xmlns:xlink="http://www.w3.org/1999/xlink">
    <title>切片</title>
    <g id="页面-1" stroke="none" stroke-width="1" fill="none" fill-rule="evenodd">
        <g id="3.3.3_创建调度" transform="translate(-902.000000, -540.000000)">
            <g id="icon/地图中/入_激活_未选中_正常状态备份-15" transform="translate(902.000000, 540.000000)">
                <rect id="矩形备份-3" x="0" y="0" width="24" height="24"></rect>
                <circle id="椭圆形" stroke="#FFEA19" stroke-width="1.09090909" fill="#000000" cx="12" cy="12" r="11.4545455"></circle>
                <g id="编组" transform="translate(6.000000, 6.000000)" fill="#FFEA19" fill-rule="nonzero">
                    <path d="M11.6126057,9.9215396 L10.4043044,9.9215396 L7.76633359,0.266469282 C7.72021522,0.106587713 7.57263643,0 7.4066103,0 L4.5933897,0 C4.41813989,0 4.27056111,0.115470022 4.23366641,0.266469282 L1.58647194,9.9215396 L0.378170638,9.9215396 C0.175249808,9.9215396 0,10.0814212 0,10.2857143 L0,11.6358253 C0,11.8312361 0.166026134,12 0.378170638,12 L11.6218294,12 C11.8247502,12 12,11.8401184 12,11.6358253 L12,10.2857143 C11.9907763,10.0814212 11.8247502,9.9215396 11.6126057,9.9215396 Z M2.94736842,9.96610169 L8.1226907,5.01050481 L8.71124477,7.13428944 L5.7521964,9.96610169 L2.94736842,9.96610169 Z M9.116665,8.35794543 L9.59830229,9.96610169 L7.57894737,9.96610169 L9.116665,8.35794543 Z M7.65873455,3.39898848 L3.26132137,7.63303001 L4.17957253,4.25797689 L7.16465803,1.63828405 L7.65873455,3.39898848 Z M5.03248213,0.85526472 L6.51864647,0.889716224 L4.48512753,2.60961629 L5.03248213,0.85526472 Z M11.3684211,11.1864407 L0.842105263,11.1864407 L0.842105263,10.779661 L11.3684211,10.779661 L11.3684211,11.1864407 Z" id="形状"></path>
                </g>
            </g>
        </g>
    </g>
</svg>