<?xml version="1.0" encoding="UTF-8"?>
<svg width="65px" height="65px" viewBox="0 0 65 65" version="1.1" xmlns="http://www.w3.org/2000/svg" xmlns:xlink="http://www.w3.org/1999/xlink">
    <title>切片</title>
    <g id="页面-1" stroke="none" stroke-width="1" fill="none" fill-rule="evenodd">
        <g id="界面图标状态-pc" transform="translate(-187.000000, -3792.000000)">
            <g id="icon/虫情监测_激活_选中_正常状态备份-2" transform="translate(187.000000, 3792.000000)">
                <rect id="矩形备份-10" x="0" y="0" width="65" height="65"></rect>
                <circle id="椭圆形" stroke="#FFFFFF" stroke-width="3" fill="#2878FF" cx="32.5" cy="32.5" r="24"></circle>
                <g id="无人船在线map备份" transform="translate(32.500000, 32.017857) scale(-1, 1) translate(-32.500000, -32.017857) translate(16.000000, 22.000000)" fill="#FFFFFF" fill-rule="nonzero">
                    <path d="M29.4713606,2.4912399 L19.3850283,2.4912399 C19.2442372,2.4912399 19.1092136,2.54813443 19.0096661,2.64940526 C18.9101187,2.75067608 18.8542227,2.88802607 18.8542227,3.03123476 L18.8542227,10.7126448 C18.8542227,10.8558535 18.9101187,10.9932035 19.0096661,11.0944743 C19.1092136,11.1957451 19.2442372,11.2526396 19.3850283,11.2526396 L29.4712873,11.2526396 C29.6120784,11.2526396 29.747102,11.1957451 29.8466494,11.0944743 C29.9461969,10.9932035 30.0020929,10.8558535 30.0020929,10.7126448 L30.0020929,3.03123476 C30.0020929,2.88803293 29.9462326,2.75068275 29.8466968,2.64940978 C29.747161,2.54813681 29.612145,2.4912399 29.4713606,2.4912399 L29.4713606,2.4912399 Z M21.0969496,6.11631239 C20.5913646,6.11631239 20.18131,5.69929109 20.18131,5.18480075 C20.18131,4.67031042 20.5913646,4.2533637 21.0969496,4.2533637 C21.6026812,4.2533637 22.0128091,4.670385 22.0128091,5.18480075 C22.0128091,5.69921651 21.6026812,6.11631239 21.0969496,6.11631239 Z M24.4614064,6.11631239 C23.9556015,6.11631239 23.5456202,5.69929109 23.5456202,5.18480075 C23.5456202,4.67031042 23.9556015,4.2533637 24.4614064,4.2533637 C24.9671381,4.2533637 25.3770461,4.670385 25.3770461,5.18480075 C25.3770461,5.69921651 24.9671381,6.11631239 24.4614064,6.11631239 Z M27.8255701,6.11631239 C27.3198384,6.11631239 26.9097838,5.69929109 26.9097838,5.18480075 C26.9097838,4.67031042 27.3198384,4.2533637 27.8255701,4.2533637 C28.331375,4.2533637 28.7413563,4.670385 28.7413563,5.18480075 C28.7413563,5.69921651 28.3314483,6.11631239 27.8255701,6.11631239 Z" id="形状"></path>
                    <path d="M28.2503611,2.99059159 L28.2503611,0.539994859 C28.2503611,0.241780993 28.0126618,4.11807013e-05 27.7194823,0 L21.1369066,0 C20.9961028,0 20.8610604,0.0568660204 20.7614971,0.158138989 C20.6619338,0.259411957 20.6060277,0.396773256 20.6060277,0.539994859 L20.6060277,2.99059159 L28.2503611,2.99059159 L28.2503611,2.99059159 Z M15.0561769,9.39677553 C15.0561769,9.69507403 14.8184874,9.93677039 14.525298,9.93677039 L5.39412242,9.93677039 C5.25331863,9.93677039 5.1182762,9.87990437 5.01871288,9.7786314 C4.91914956,9.67735843 4.86324353,9.53999714 4.86324353,9.39677553 L4.86324353,4.96883264 C4.86324353,4.67060172 5.10092611,4.42883779 5.39412242,4.42883779 L14.525298,4.42883779 C14.8184943,4.42883779 15.0561769,4.67060172 15.0561769,4.96883264 L15.0561769,9.39677553 L15.0561769,9.39677553 Z M9.21914844,3.63931624 C9.21910798,3.75857508 9.12407178,3.85524319 9.00682621,3.85528435 L7.52049729,3.85528435 C7.40325173,3.85524319 7.30821553,3.75857508 7.30817506,3.63931624 L7.30817506,0.558191068 C7.30817506,0.438871669 7.40326551,0.342148381 7.52049729,0.342148381 L9.00682621,0.342148381 C9.12413131,0.342148381 9.21914844,0.438871669 9.21914844,0.558191068 L9.21914844,3.63931624 L9.21914844,3.63931624 Z M12.8024526,3.63931624 C12.8024122,3.75857508 12.707376,3.85524319 12.5901304,3.85528435 L11.1038015,3.85528435 C10.9865273,3.85528435 10.8914464,3.7586042 10.8914059,3.63931624 L10.8914059,0.558191068 C10.8914059,0.438871669 10.9864964,0.342148381 11.1038015,0.342148381 L12.5901304,0.342148381 C12.7074046,0.342189558 12.8024526,0.438903104 12.8024526,0.558191068 L12.8024526,3.63931624 L12.8024526,3.63931624 Z" id="形状"></path>
                    <path d="M1.74556726,11.1922342 L3.25081163,13.1016429 L31.5499336,13.1016429 L32.9051741,8.48375841 C32.9051741,8.48375841 33.3769606,7.29958795 32.21586,7.20674254 C31.0545395,7.11397171 0.783445503,7.31979767 0.783445503,7.31979767 C0.783445503,7.31979767 0.35733473,7.32270608 0.149704705,7.60586593 C-0.0319715675,7.90162889 0.00263343671,8.22155403 0.00263343671,8.22155403 C0.00263343671,8.22155403 -0.0244933675,9.11152759 1.74556726,11.1922342 Z M4.27246573,14.3975261 L7.42071464,18.3909227 C7.42071464,18.3909227 8.57939576,20.0358897 9.17156656,20.0330559 L28.5255882,20.0330559 C28.5255882,20.0330559 29.4966545,20.1368638 29.8081729,19.0471048 C30.1199112,17.9579424 30.7935357,15.6784944 30.7935357,15.6784944 L31.1695719,14.3975261 L4.27246573,14.3975261 Z" id="形状"></path>
                </g>
            </g>
        </g>
    </g>
</svg>