<?xml version="1.0" encoding="UTF-8"?>
<svg width="56px" height="56px" viewBox="0 0 56 56" version="1.1" xmlns="http://www.w3.org/2000/svg" xmlns:xlink="http://www.w3.org/1999/xlink">
  <title>切片</title>
  <g id="页面-1" stroke="none" stroke-width="1" fill="none" fill-rule="evenodd">
    <g id="协同任务-任务监控（无人船）" transform="translate(-845.000000, -503.000000)">
      <g id="路径" transform="translate(845.000000, 310.055450)">
        <g id="icon/地图中/无人船" transform="translate(0.000000, 192.944550)">
          <rect id="矩形备份-12" x="0" y="0" width="56" height="56"></rect>
          <path d="M28,4 C33.5228475,4 38.5228475,6.23857625 42.1421356,9.85786438 C45.7614237,13.4771525 48,18.4771525 48,24 C48,28.673515 46.3971664,32.9727321 43.710845,36.3775676 C40.8825493,39.9623516 36.8538787,42.5565003 32.2306883,43.5518877 L32.2306883,43.5518877 L28.0001542,50.9792518 L23.7713739,43.5523316 C19.1476524,42.5573434 15.1184516,39.9632582 12.2897661,36.3783421 C9.6030768,32.973384 8,28.6738693 8,24 C8,18.4771525 10.2385763,13.4771525 13.8578644,9.85786438 C17.4771525,6.23857625 22.4771525,4 28,4 Z" id="形状结合备份-11" stroke="#FFFFFF" stroke-width="2" fill="#4B7EFF"></path>
          <g id="无人船在线map" transform="translate(28.000000, 23.500000) scale(-1, 1) translate(-28.000000, -23.500000) translate(14.000000, 15.000000)" fill="#FFFFFF" fill-rule="nonzero">
            <path d="M25.0060029,2.11377931 L16.4479028,2.11377931 C16.3284437,2.11377931 16.2138782,2.16205346 16.1294137,2.24798022 C16.0449492,2.33390698 15.9975223,2.45044637 15.9975223,2.57195676 L15.9975223,9.08951678 C15.9975223,9.21102718 16.0449492,9.32756657 16.1294137,9.41349333 C16.2138782,9.49942008 16.3284437,9.54769423 16.4479028,9.54769423 L25.0059407,9.54769423 C25.1253998,9.54769423 25.2399653,9.49942008 25.3244298,9.41349333 C25.4088943,9.32756657 25.4563212,9.21102718 25.4563212,9.08951678 L25.4563212,2.57195676 C25.4563212,2.45045219 25.4089247,2.33391263 25.32447,2.24798405 C25.2400154,2.16205547 25.1254563,2.11377931 25.0060029,2.11377931 L25.0060029,2.11377931 Z M17.9004421,5.18959839 C17.4714609,5.18959839 17.1235357,4.83576213 17.1235357,4.39922488 C17.1235357,3.96268763 17.4714609,3.60891465 17.9004421,3.60891465 C18.3295477,3.60891465 18.677535,3.96275091 18.677535,4.39922488 C18.677535,4.83569886 18.3295477,5.18959839 17.9004421,5.18959839 Z M20.7551327,5.18959839 C20.3259649,5.18959839 19.978102,4.83576213 19.978102,4.39922488 C19.978102,3.96268763 20.3259649,3.60891465 20.7551327,3.60891465 C21.1842383,3.60891465 21.5320391,3.96275091 21.5320391,4.39922488 C21.5320391,4.83569886 21.1842383,5.18959839 20.7551327,5.18959839 Z M23.6095746,5.18959839 C23.180469,5.18959839 22.8325438,4.83576213 22.8325438,4.39922488 C22.8325438,3.96268763 23.180469,3.60891465 23.6095746,3.60891465 C24.0387424,3.60891465 24.3866053,3.96275091 24.3866053,4.39922488 C24.3866053,4.83569886 24.0388046,5.18959839 23.6095746,5.18959839 Z" id="形状"></path>
            <path d="M23.9700034,2.53747165 L23.9700034,0.458177456 C23.9700034,0.20514751 23.7683191,3.49412011e-05 23.5195607,0 L17.934345,0 C17.8148751,0 17.7002937,0.0482499567 17.6158157,0.134178536 C17.5313377,0.220107115 17.4839023,0.336656096 17.4839023,0.458177456 L17.4839023,2.53747165 L23.9700034,2.53747165 L23.9700034,2.53747165 Z M12.7749379,7.97302166 C12.7749379,8.22612342 12.573262,8.43119912 12.3244952,8.43119912 L4.57683115,8.43119912 C4.45736126,8.43119912 4.34277981,8.38294916 4.25830184,8.29702058 C4.17382387,8.211092 4.12638845,8.09454302 4.12638845,7.97302166 L4.12638845,4.21597921 C4.12638845,3.96293479 4.32805852,3.75780176 4.57683115,3.75780176 L12.3244952,3.75780176 C12.5732679,3.75780176 12.7749379,3.96293479 12.7749379,4.21597921 L12.7749379,7.97302166 L12.7749379,7.97302166 Z M7.82230777,3.08790469 C7.82227344,3.18909401 7.74163666,3.27111544 7.64215557,3.27115036 L6.38102801,3.27115036 C6.28154692,3.27111544 6.20091014,3.18909401 6.20087581,3.08790469 L6.20087581,0.473616663 C6.20087581,0.372375961 6.28155861,0.290307717 6.38102801,0.290307717 L7.64215557,0.290307717 C7.74168717,0.290307717 7.82230777,0.372375961 7.82230777,0.473616663 L7.82230777,3.08790469 L7.82230777,3.08790469 Z M10.8626871,3.08790469 C10.8626528,3.18909401 10.782016,3.27111544 10.6825349,3.27115036 L9.42140733,3.27115036 C9.32190195,3.27115036 9.24122727,3.18911871 9.24119292,3.08790469 L9.24119292,0.473616663 C9.24119292,0.372375961 9.32187573,0.290307717 9.42140733,0.290307717 L10.6825349,0.290307717 C10.7820403,0.290342655 10.8626871,0.372402633 10.8626871,0.473616663 L10.8626871,3.08790469 L10.8626871,3.08790469 Z" id="形状"></path>
            <path d="M1.48108737,9.49644113 L2.75826441,11.1165455 L26.7696407,11.1165455 L27.9195417,7.19834047 C27.9195417,7.19834047 28.3198453,6.19358977 27.3346691,6.11481185 C26.3493063,6.03609721 0.664741639,6.21073742 0.664741639,6.21073742 C0.664741639,6.21073742 0.303193104,6.21320516 0.127022174,6.453462 C-0.0271273906,6.70441239 0.00223443115,6.97586402 0.00223443115,6.97586402 C0.00223443115,6.97586402 -0.0207822512,7.73099311 1.48108737,9.49644113 Z M3.62512244,12.2160828 L6.29636394,15.6044192 C6.29636394,15.6044192 7.27948731,17.0001489 7.78193526,16.9977444 L24.2035294,16.9977444 C24.2035294,16.9977444 25.0274644,17.0858238 25.291783,16.1611798 C25.5562883,15.237042 26.1278485,13.302965 26.1278485,13.302965 L26.4469094,12.2160828 L3.62512244,12.2160828 Z" id="形状"></path>
          </g>
        </g>
      </g>
    </g>
  </g>
</svg>