<?xml version="1.0" encoding="UTF-8"?>
<svg width="65px" height="65px" viewBox="0 0 65 65" version="1.1" xmlns="http://www.w3.org/2000/svg" xmlns:xlink="http://www.w3.org/1999/xlink">
    <title>切片</title>
    <g id="页面-1" stroke="none" stroke-width="1" fill="none" fill-rule="evenodd">
        <g id="界面图标状态-pc" transform="translate(-478.000000, -3792.000000)">
            <g id="icon/虫情监测_激活_选中_正常状态备份-3" transform="translate(478.000000, 3792.000000)">
                <rect id="矩形备份-10" x="0" y="0" width="65" height="65"></rect>
                <circle id="椭圆形" stroke="#FFFFFF" stroke-width="3" fill="#2878FF" cx="32.5" cy="32.5" r="24"></circle>
                <g id="拖拉机备份" transform="translate(32.000000, 32.137931) scale(-1, 1) translate(-32.000000, -32.137931) translate(16.000000, 20.000000)" fill="#FFFFFF" fill-rule="nonzero">
                    <path d="M3.21089147,9.30787224 L14.5799188,9.30787224 L15.3716455,1.89288219 L14.8438277,1.89288219 L14.8438277,0.704424056 L19.1836628,0 L27.7502291,0 L28.0895405,1.89288219 L27.7753633,1.89288219 L28.3408823,7.27492912 L29.3211153,7.27492912 L30.1882445,11.3202181 L30.2636471,11.3572931 L30.2259458,11.394368 L30.4898547,12.6569761 L31.6229873,12.9535757 L32,14.2903336 L30.3013483,14.735233 C30.4169665,14.9976265 30.4931664,15.2751599 30.527556,15.5591208 L30.6029585,15.4478959 C30.7160623,15.4478959 30.8668674,15.410821 30.9799712,15.410821 C31.0687455,16.0504391 30.9909109,16.7017507 30.7537636,17.3037032 L30.7160623,17.3037032 C30.6796205,17.9328407 30.5656841,18.5553056 30.3767509,19.1574507 L30.4521534,19.0462258 C30.5652572,19.0833008 30.678361,19.1574507 30.7914648,19.1945256 C30.5378519,19.7908187 30.1351034,20.3144084 29.620631,20.7166583 L29.5829297,20.7166583 C29.3108513,21.1647293 28.9814154,21.5766054 28.6026967,21.9421914 L28.3764891,22.1646411 L28.4895929,22.1646411 C28.5649954,22.2758659 28.640398,22.3500158 28.7158005,22.4612407 C28.1997809,22.8554088 27.5884469,23.1109273 26.9417463,23.2027397 L26.904045,23.1656647 C26.3484172,23.4625729 25.7502919,23.6750708 25.1299908,23.7959389 L25.2430946,23.8700888 C25.2742681,23.9911531 25.2869739,24.1161009 25.2807959,24.2408383 C24.6303725,24.3281378 23.9680581,24.2515963 23.3559366,24.0183886 L23.3559366,23.9813136 C22.7161709,23.9454773 22.0831905,23.8334336 21.4708731,23.6476391 L21.5462757,23.7588639 C21.5085744,23.8700888 21.4331719,23.9813136 21.3954706,24.0925385 C20.7891041,23.8431387 20.2566692,23.447081 19.847624,22.9411553 L19.847624,22.9040804 C19.3919705,22.6365407 18.9731341,22.3125758 18.6013876,21.9401317 L18.37518,21.717682 L18.37518,21.8289068 C18.2620762,21.9030567 18.1866736,21.9772066 18.0735698,22.0513565 C17.6727429,21.5439094 17.4129079,20.9427313 17.3195444,20.3067741 L17.3572457,20.2696992 C17.0553513,19.7232889 16.8392651,19.1351045 16.7163241,18.5251168 L16.6409216,18.6363416 C16.5178067,18.6669671 16.3907527,18.6794615 16.2639089,18.6734166 C16.2336625,18.4647097 16.2210523,18.2538972 16.2262076,18.0431425 L10.1123184,18.0431425 L10.1123184,19.1203757 L8.6775756,19.1203757 C8.72132726,19.3653675 8.74653065,19.6132145 8.75297812,19.8618747 L8.75297812,20.2326242 L8.90378322,20.1213994 C8.97918577,20.1213994 9.0545883,20.1584743 9.12999082,20.1584743 C9.08102814,20.5171728 8.92338156,20.853066 8.6775756,21.1224231 L8.60217305,21.1224231 C8.49113095,21.5272336 8.29885096,21.9061053 8.03665399,22.2367313 L8.22516034,22.1996563 C8.29245819,22.2288916 8.34623623,22.2817763 8.37596544,22.3479561 C8.14298388,22.6238918 7.84544082,22.8401614 7.50883622,22.9782303 L7.43343369,22.9411553 C7.05642099,23.1265301 6.67940829,23.3860547 6.30030108,23.5343545 L6.48880743,23.6085044 C6.52650871,23.6826543 6.52650871,23.7568042 6.56420996,23.7938792 C6.21390031,23.918878 5.83766955,23.9570787 5.46877863,23.905104 L5.43107735,23.8309541 C5.14674881,23.8939589 4.85506794,23.9189011 4.56394815,23.905104 L4.18693545,23.905104 L4.30003927,24.0534038 C4.30003927,24.1275537 4.262338,24.2017036 4.262338,24.2758621 C3.89754327,24.2278282 3.55594017,24.0727844 3.28210497,23.8309541 L3.28210497,23.7568042 C2.87045587,23.6476068 2.48518373,23.4585211 2.14897236,23.20068 L2.18667363,23.3860547 C2.14897236,23.4231297 2.11127108,23.4972796 2.03586856,23.5343545 C1.75527139,23.3052434 1.53534827,23.0126434 1.39494698,22.6816307 L1.43264823,22.6074808 C1.15150662,22.3131616 0.922162756,21.9748609 0.754025379,21.6064571 L0.678622853,21.7918319 C0.603220303,21.8289068 0.527817777,21.8289068 0.490116502,21.8659818 C0.363006022,21.5214917 0.324160011,21.1515112 0.377012677,20.7887485 L0.452415227,20.7516735 C0.388371402,20.4720646 0.363008144,20.1852327 0.377012677,19.8989497 L0.377012677,19.5282002 L0.226207602,19.639425 C0.150805052,19.639425 0.0754025258,19.6023501 0,19.6023501 C0.048962692,19.2436516 0.206609262,18.9077584 0.452415227,18.6384014 L0.527817777,18.6384014 C0.638859862,18.2335909 0.831139852,17.8547191 1.09333681,17.5240932 L0.904830455,17.5611681 C0.86712918,17.5240932 0.791726654,17.4870182 0.754025379,17.4128683 C0.987006936,17.1369326 1.28454998,16.920663 1.62115458,16.7825941 L1.77195966,16.8196691 C2.07125083,16.543198 2.41526663,16.3176642 2.78989396,16.15232 L2.63908889,16.0781701 C2.60138761,16.0040202 2.60138761,15.9298703 2.56368634,15.8927953 C2.86506676,15.785272 3.18752518,15.7472198 3.50621809,15.7815705 L2.66841208,11.4767568 L2.66841208,9.36142492 L3.19622985,9.36142492 L3.19622985,9.32434999 L3.21089147,9.30787224 Z M23.6282236,13.5756109 C22.7062304,13.5672823 21.8205882,13.9287439 21.1755465,14.5766346 C20.5229412,15.2150866 20.1565134,16.0833145 20.1576122,16.9885661 C20.1491429,17.8952425 20.5167108,18.7661718 21.1755465,19.4004976 C21.8247841,20.0422613 22.7076792,20.4026019 23.6282236,20.4015212 C24.5502168,20.4098499 25.435859,20.0483882 26.0809006,19.4004976 C26.7335059,18.7620456 27.0999338,17.8938177 27.0988349,16.9885661 C27.1073043,16.0818897 26.7397363,15.2109604 26.0809006,14.5766346 C25.4213099,13.9507479 24.5446937,13.5944424 23.6282236,13.5797304 L23.6282236,13.5756109 Z M25.6661867,14.9865188 C25.1188224,14.4396962 24.3707842,14.1323873 23.5905223,14.1337901 C22.8117477,14.139628 22.0664148,14.4458255 21.514858,14.9865188 C20.9587977,15.5247899 20.6462974,16.2604012 20.6477239,17.0277008 C20.6536604,17.7935378 20.9650306,18.5264888 21.514858,19.0688827 C22.0622222,19.6157053 22.8102605,19.9230142 23.5905223,19.9216114 C24.3692969,19.9157735 25.1146298,19.609576 25.6661867,19.0688827 C26.221607,18.5301084 26.5342809,17.7949066 26.5342809,17.0277008 C26.5342809,16.2604949 26.221607,15.5252931 25.6661867,14.9865188 L25.6661867,14.9865188 Z M20.5723262,10.7187801 L20.5723262,10.3851055 L19.3637911,10.3851055 L17.3635293,11.7960133 L16.8734127,11.3511139 L18.1196492,10.4242402 L15.8554785,10.4242402 L15.8554785,13.5426554 L17.2902212,13.5426554 C17.3837535,13.4597402 17.4846991,13.3852888 17.5918314,13.3202057 L17.6295327,13.3202057 C17.9016301,12.8721476 18.2310641,12.4602738 18.6097657,12.0946727 L18.8359733,11.8722229 L18.7228695,11.8722229 C18.6474669,11.7609981 18.5720644,11.6868482 18.4966619,11.5756233 C19.0126814,11.1814552 19.6240154,10.9259368 20.2707161,10.8341243 L20.3084173,10.8711993 C20.3817253,10.8300049 20.4948291,10.755855 20.5702317,10.7187801 L20.5723262,10.7187801 Z M26.6108129,14.059645 C25.8069846,13.2778941 24.7231402,12.837801 23.5926168,12.8341119 C22.4635603,12.844951 21.3823393,13.2839788 20.5744207,14.059645 C19.7794634,14.8501196 19.3319357,15.9159585 19.3281843,17.0277008 C19.3392065,18.1380007 19.7856509,19.2012596 20.5744207,19.9957565 C21.378249,20.7775075 22.4620935,21.2176005 23.5926168,21.2212896 C24.7216734,21.2104505 25.8028943,20.7714227 26.6108129,19.9957565 C27.4057703,19.205282 27.853298,18.1394431 27.8570494,17.0277008 C27.8781394,15.9101977 27.425963,14.8343484 26.6087184,14.0575853 L26.6108129,14.059645 Z M4.57232621,15.7671525 L4.94933891,15.7671525 L4.83623511,15.6188526 C4.83623511,15.5447027 4.87393638,15.4705528 4.87393636,15.396403 C5.23873109,15.4444283 5.58033419,15.599472 5.85416939,15.8413023 L5.85416939,15.9525272 C6.10196705,16.0288352 6.34182195,16.128149 6.57049352,16.2491268 L6.83440239,16.2491268 L6.83440239,12.0926129 L14.2699306,12.0926129 L14.3830344,11.2028141 L14.3830344,10.3500903 L3.74080375,10.3500903 L3.74080375,11.314039 L4.57860977,15.7671525 L4.57232621,15.7671525 Z M4.57232621,18.142009 C4.11982483,18.1355861 3.68392198,18.309428 3.36379105,18.6239833 C3.05052915,18.9430609 2.87490492,19.368923 2.87367455,19.8124415 C2.86714318,20.2574256 3.0439218,20.6860869 3.36379105,21.0008996 C3.6881379,21.3091403 4.12127247,21.4818782 4.57232621,21.4828739 C5.02482758,21.4892968 5.46073043,21.315455 5.78086137,21.0008996 C6.09430932,20.681941 6.26996528,20.256002 6.27097787,19.8124415 C6.27724236,19.3675553 6.10029015,18.9390855 5.7803631,18.6244733 C5.46043605,18.3098611 5.02472801,18.1358486 4.57232621,18.142009 L4.57232621,18.142009 Z M5.59026049,18.846433 C5.31823381,18.5843185 4.95316593,18.4365806 4.57232621,18.4344892 C4.189891,18.4285367 3.82179463,18.5775002 3.55439193,18.846433 C3.28784942,19.1139406 3.13761573,19.4729437 3.13548892,19.8474567 C3.12943592,20.2235386 3.28091591,20.5855199 3.55439193,20.8484804 C3.82641861,21.1105949 4.19148649,21.2583328 4.57232621,21.2604242 C4.95476142,21.2663767 5.32285779,21.1174132 5.59026049,20.8484804 C5.856803,20.5809728 6.0070367,20.2219696 6.0091635,19.8474567 C6.02199097,19.4697282 5.86855882,19.104906 5.58816599,18.846433 L5.59026049,18.846433 Z M6.0091635,18.4015336 C5.32698878,17.7457063 4.26930589,17.6535603 3.48051059,18.1812358 C2.69171529,18.7089113 2.39040543,19.7101743 2.76015474,20.5750029 C3.12990405,21.4398315 4.06824438,21.9285569 5.00348968,21.743422 C5.93873498,21.5582871 6.61170193,20.7505981 6.61238382,19.8124415 C6.60543381,19.2810892 6.3865536,18.7736755 6.00287994,18.3994739 L6.0091635,18.4015336 Z M19.5941877,9.30993194 L19.7449928,9.1987071 L19.9712004,9.1987071 L19.9712004,1.88670302 L16.0837806,1.88670302 L15.2459746,9.30169306 L19.5858097,9.30169306 L19.5941877,9.30993194 Z M21.0289305,9.1987071 L27.4067286,9.1987071 L27.8591439,9.53238165 L27.0674172,1.88670302 L21.0289305,1.88670302 L21.0289305,9.1987071 L21.0289305,9.1987071 Z" id="形状"></path>
                </g>
            </g>
        </g>
    </g>
</svg>