<?xml version="1.0" encoding="UTF-8"?>
<svg width="56px" height="56px" viewBox="0 0 56 56" version="1.1" xmlns="http://www.w3.org/2000/svg" xmlns:xlink="http://www.w3.org/1999/xlink">
    <title>icon/地图中/农机方向识别</title>
    <g id="icon/地图中/农机方向识别" stroke="none" stroke-width="1" fill="none" fill-rule="evenodd">
        <rect id="矩形备份-12" x="0" y="0" width="56" height="56"></rect>
        <path d="M9,35 C9,41.7879274 12.6209451,48.0603835 18.499712,51.4544501 C24.3784788,54.8485166 31.6215212,54.8485166 37.500288,51.4544501 C43.3790549,48.0603835 47,41.7879274 47,35 C47,28.2120726 43.3790549,21.9396165 37.500288,18.5455499 C31.6215212,15.1514834 24.3784788,15.1514834 18.499712,18.5455499 C12.6209451,21.9396165 9,28.2120726 9,35 L9,35 Z" id="路径" stroke="#FFFFFF" stroke-width="2" fill="#4B7EFF" fill-rule="nonzero"></path>
        <g id="拖拉机" transform="translate(28.500000, 35.000000) scale(-1, 1) translate(-28.500000, -35.000000) translate(14.000000, 24.000000)" fill="#FFFFFF" fill-rule="nonzero">
            <path d="M2.9098704,8.43525921 L13.2130514,8.43525921 L13.9305537,1.71542449 L13.4522189,1.71542449 L13.4522189,0.638384301 L17.3851944,0 L25.1486451,0 L25.4561461,1.71542449 L25.1714229,1.71542449 L25.6839246,6.59290452 L26.5722608,6.59290452 L27.3580966,10.2589477 L27.4264302,10.2925469 L27.3922634,10.326146 L27.6314308,11.4703846 L28.6583322,11.739178 L29,12.9506148 L27.4605969,13.3538049 C27.5653759,13.591599 27.6344321,13.8431137 27.6655976,14.1004532 L27.7339311,13.9996557 C27.8364315,13.9996557 27.9730986,13.9660565 28.0755989,13.9660565 C28.1560506,14.5457105 28.085513,15.1359616 27.8705983,15.681481 L27.8364315,15.681481 C27.8034061,16.2516369 27.7001512,16.8157457 27.5289305,17.3614397 L27.597264,17.2606422 C27.6997644,17.2942413 27.8022647,17.3614397 27.904765,17.3950389 C27.6749282,17.9354295 27.3099374,18.4099327 26.8436968,18.7744716 L26.80953,18.7744716 C26.562959,19.1805359 26.2644077,19.5537987 25.9211939,19.8851109 L25.7161932,20.086706 L25.8186935,20.086706 C25.8870271,20.1875035 25.9553606,20.2547019 26.0236942,20.3554994 C25.5560515,20.7127143 25.00203,20.9442778 24.4159576,21.0274829 L24.3817908,20.9938837 C23.8782531,21.2629566 23.3362021,21.4555329 22.7740542,21.5650696 L22.8765545,21.632268 C22.9048054,21.7419825 22.9163201,21.8552164 22.9107213,21.9682597 C22.3212751,22.0473749 21.7210526,21.9780091 21.1663176,21.7666647 L21.1663176,21.7330655 C20.5865298,21.7005888 20.0128914,21.5990492 19.4579788,21.4306729 L19.5263123,21.5314704 C19.4921456,21.632268 19.423812,21.7330655 19.3896452,21.833863 C18.8401256,21.6078444 18.3576065,21.2489171 17.9869093,20.790422 L17.9869093,20.7568228 C17.5739733,20.514365 17.1944028,20.2207719 16.8575075,19.8832443 L16.6525069,19.6816493 L16.6525069,19.7824468 C16.5500066,19.8496452 16.481673,19.9168435 16.3791727,19.9840418 C16.0159232,19.5241679 15.7804478,18.9793503 15.6958372,18.4030141 L15.7300039,18.3694149 C15.4564121,17.8742305 15.260584,17.3411885 15.1491687,16.7883871 L15.0808352,16.8891846 C14.9692624,16.916939 14.8541197,16.928262 14.7391674,16.9227838 C14.7117566,16.7336432 14.7003286,16.5425943 14.7050006,16.3515978 L9.16428851,16.3515978 L9.16428851,17.3278405 L7.86405288,17.3278405 C7.90370283,17.5498643 7.9265434,17.7744756 7.93238642,17.999824 L7.93238642,18.3358157 L8.06905354,18.2350182 C8.1373871,18.2350182 8.20572064,18.2686174 8.27405418,18.2686174 C8.22968175,18.5936879 8.08681454,18.8980911 7.86405288,19.1421959 L7.79571932,19.1421959 C7.69508743,19.5090554 7.52083368,19.8524079 7.28321768,20.1520377 L7.45405156,20.1184385 C7.51504024,20.1449331 7.56377658,20.1928597 7.59071868,20.2528352 C7.37957914,20.502902 7.10993074,20.6988963 6.80488282,20.8240212 L6.73654928,20.790422 C6.39488152,20.9584179 6.05321376,21.1936121 5.70964786,21.3280088 L5.88048174,21.3952071 C5.91464852,21.4624055 5.91464852,21.5296038 5.94881528,21.563203 C5.63134716,21.6764832 5.29038803,21.7111026 4.95608063,21.6640005 L4.92191385,21.5968022 C4.66424111,21.6539003 4.39990532,21.6765041 4.13607801,21.6640005 L3.79441025,21.6640005 L3.89691059,21.7983972 C3.89691059,21.8655956 3.86274381,21.9327939 3.86274381,22 C3.53214859,21.9564693 3.22257078,21.8159609 2.97440763,21.5968022 L2.97440763,21.5296038 C2.60135063,21.4306437 2.25219775,21.2592848 1.9475062,21.0256162 L1.98167298,21.1936121 C1.9475062,21.2272113 1.91333942,21.2944096 1.84500588,21.3280088 C1.5907147,21.1203768 1.39140937,20.855208 1.2641707,20.5552278 L1.29833746,20.4880295 C1.04355287,20.2213027 0.835709998,19.9147177 0.6833355,19.5808518 L0.615001961,19.7488476 C0.5466684,19.7824468 0.478334861,19.7824468 0.44416808,19.816046 C0.328974207,19.5038519 0.29377001,19.168557 0.341667739,18.8398033 L0.4100013,18.8062041 C0.351961583,18.5528085 0.32897613,18.2928671 0.341667739,18.0334232 L0.341667739,17.6974314 L0.205000639,17.7982289 C0.136667078,17.7982289 0.068333539,17.7646298 0,17.7646298 C0.0443724396,17.4395593 0.187239644,17.135156 0.4100013,16.8910512 L0.478334861,16.8910512 C0.57896675,16.5241917 0.753220491,16.1808392 0.99083648,15.8812094 L0.820002599,15.9148086 C0.785835819,15.8812094 0.71750228,15.8476102 0.6833355,15.7804119 C0.894475035,15.5303452 1.16412342,15.3343508 1.46917134,15.2092259 L1.60583844,15.2428251 C1.87707107,14.9922732 2.18883538,14.7878831 2.5283414,14.63804 L2.3916743,14.5708416 C2.35750752,14.5036433 2.35750752,14.4364449 2.32334074,14.4028458 C2.59646675,14.3054028 2.8886947,14.270918 3.17751014,14.3020483 L2.41824844,10.4008109 L2.41824844,8.48379134 L2.8965833,8.48379134 L2.8965833,8.45019218 L2.9098704,8.43525921 Z M21.4130776,12.3028974 C20.5775213,12.2953495 19.774908,12.6229242 19.190339,13.2100751 C18.5989155,13.7886722 18.2668402,14.5755037 18.2678361,15.395888 C18.2601607,16.2175635 18.5932692,17.0068432 19.190339,17.5817009 C19.7787106,18.1632993 20.5788343,18.4898579 21.4130776,18.4888786 C22.248634,18.4964265 23.0512472,18.1688518 23.6358162,17.5817009 C24.2272398,17.0031038 24.559315,16.2162723 24.5583192,15.395888 C24.5659945,14.5742125 24.2328861,13.7849328 23.6358162,13.2100751 C23.0380621,12.6428653 22.2436287,12.3199634 21.4130776,12.3066307 L21.4130776,12.3028974 Z M23.2599817,13.5815327 C22.7639328,13.0859747 22.0860231,12.807476 21.3789108,12.8087473 C20.6731463,12.8140379 19.9976884,13.0915294 19.49784,13.5815327 C18.9939105,14.0693408 18.710707,14.7359886 18.7119997,15.4313538 C18.7173797,16.1253937 18.999559,16.7896304 19.49784,17.281175 C19.9938889,17.7767329 20.6717985,18.0552316 21.3789108,18.0539603 C22.0846753,18.0486697 22.7601333,17.7711783 23.2599817,17.281175 C23.7633313,16.7929108 24.0466921,16.1266341 24.0466921,15.4313538 C24.0466921,14.7360735 23.7633313,14.0697969 23.2599817,13.5815327 L23.2599817,13.5815327 Z M18.6436706,9.71389443 L18.6436706,9.41150186 L17.5484357,9.41150186 L15.7356984,10.6901371 L15.2915303,10.286947 L16.420932,9.44696765 L14.3690274,9.44696765 L14.3690274,12.2730315 L15.669263,12.2730315 C15.7540266,12.1978896 15.8455085,12.130418 15.9425972,12.0714365 L15.976764,12.0714365 C16.2233523,11.6653838 16.5219019,11.2921231 16.8651001,10.9607971 L17.0701008,10.759202 L16.9676005,10.759202 C16.8992669,10.6584045 16.8309334,10.5912062 16.7625998,10.4904087 C17.2302426,10.1331938 17.784264,9.90163021 18.3703364,9.81842518 L18.4045032,9.85202436 C18.4709386,9.81469194 18.5734389,9.7474936 18.6417725,9.71389443 L18.6436706,9.71389443 Z M24.1160492,12.7415533 C23.3875798,12.0330915 22.4053458,11.6342571 21.380809,11.6309139 C20.3576015,11.6407368 19.377745,12.0386058 18.6455688,12.7415533 C17.9251387,13.4579209 17.5195667,14.4238374 17.516167,15.4313538 C17.5261559,16.4375631 17.9307462,17.4011415 18.6455688,18.1211543 C19.3740382,18.8296161 20.3562722,19.2284505 21.380809,19.2317937 C22.4040165,19.2219708 23.383873,18.8241018 24.1160492,18.1211543 C24.8364793,17.4047868 25.2420513,16.4388703 25.245451,15.4313538 C25.2645638,14.4186167 24.854779,13.4436283 24.1141511,12.7396867 L24.1160492,12.7415533 Z M4.14367063,14.2889819 L4.48533839,14.2889819 L4.38283807,14.1545852 C4.38283807,14.0873868 4.41700485,14.0201885 4.41700483,13.9529902 C4.74760005,13.9965131 5.05717786,14.1370215 5.30534101,14.3561803 L5.30534101,14.4569778 C5.52990764,14.5261319 5.74727614,14.616135 5.95450975,14.7257712 L6.19367717,14.7257712 L6.19367717,10.9589305 L12.9321246,10.9589305 L13.0346249,10.1525503 L13.0346249,9.37976932 L3.3901034,9.37976932 L3.3901034,10.2533478 L4.1493651,14.2889819 L4.14367063,14.2889819 Z M4.14367063,16.4411956 C3.73359125,16.4353749 3.3385543,16.5929191 3.04843564,16.8779849 C2.76454204,17.167149 2.60538259,17.5530865 2.60426756,17.9550251 C2.59834851,18.3582919 2.75855413,18.7467663 3.04843564,19.0320653 C3.34237497,19.3114084 3.73490318,19.4679521 4.14367063,19.4688545 C4.55375,19.4746752 4.94878695,19.3171311 5.23890561,19.0320653 C5.52296782,18.7430091 5.68215604,18.3570018 5.68307369,17.9550251 C5.68875089,17.551847 5.52838795,17.1635462 5.23845406,16.8784289 C4.94852017,16.5933116 4.55365976,16.4356128 4.14367063,16.4411956 L4.14367063,16.4411956 Z M5.06617357,17.0795799 C4.81964939,16.8420387 4.48880663,16.7081512 4.14367063,16.7062558 C3.79708872,16.7008614 3.46350139,16.8358596 3.22116769,17.0795799 C2.97961354,17.3220087 2.84346425,17.6473553 2.84153684,17.9867576 C2.8360513,18.3275819 2.97333004,18.6556274 3.22116769,18.8939353 C3.46769187,19.1314766 3.79853463,19.2653641 4.14367063,19.2672595 C4.49025254,19.2726539 4.82383987,19.1376557 5.06617357,18.8939353 C5.30772772,18.6515066 5.44387701,18.32616 5.44580442,17.9867576 C5.45742931,17.6444412 5.31838143,17.3138211 5.06427542,17.0795799 L5.06617357,17.0795799 Z M5.44580442,16.6763899 C4.82758358,16.0820464 3.86905846,15.9985391 3.15421272,16.476745 C2.43936698,16.9549509 2.16630492,17.8623454 2.50139023,18.6460964 C2.83647554,19.4298473 3.68684647,19.8727547 4.53441252,19.7049762 C5.38197858,19.5371977 5.99185487,18.8052296 5.99247284,17.9550251 C5.98617439,17.4734871 5.7878142,17.0136434 5.44010994,16.6745232 L5.44580442,16.6763899 Z M17.7572326,8.43712582 L17.8938997,8.33632831 L18.0989004,8.33632831 L18.0989004,1.70982461 L14.5759262,1.70982461 L13.8166645,8.42965934 L17.74964,8.42965934 L17.7572326,8.43712582 Z M19.0574682,8.33632831 L24.8373478,8.33632831 L25.2473491,8.63872087 L24.5298468,1.70982461 L19.0574682,1.70982461 L19.0574682,8.33632831 L19.0574682,8.33632831 Z" id="形状"></path>
        </g>
        <path d="M28,0 L39.9993651,15.9989368 C39.3645485,15.5230435 38.6975105,15.0820542 38.0003032,14.6795263 C31.8121276,11.1068246 24.1878724,11.1068246 17.9996968,14.6795263 C17.3032273,15.0816282 16.6368633,15.5221102 16.0026503,15.9974261 L28,0 Z" id="形状结合" fill="#FFFFFF"></path>
    </g>
</svg>