<?xml version="1.0" encoding="UTF-8"?>
<svg width="56px" height="56px" viewBox="0 0 56 56" version="1.1" xmlns="http://www.w3.org/2000/svg" xmlns:xlink="http://www.w3.org/1999/xlink">
    <title>切片</title>
    <g id="页面-1" stroke="none" stroke-width="1" fill="none" fill-rule="evenodd">
        <g id="界面图标状态" transform="translate(-78.000000, -395.000000)">
            <g id="icon/无人机_激活_未选中_正常状态备份-2" transform="translate(78.000000, 395.000000)">
                <rect id="矩形备份-12" x="0" y="0" width="56" height="56"></rect>
                <path d="M28,4 C33.5228475,4 38.5228475,6.23857625 42.1421356,9.85786438 C45.7614237,13.4771525 48,18.4771525 48,24 C48,28.673515 46.3971664,32.9727321 43.710845,36.3775676 C40.8825493,39.9623516 36.8538787,42.5565003 32.2306883,43.5518877 L32.2306883,43.5518877 L28.0001542,50.9792518 L23.7713739,43.5523316 C19.1476524,42.5573434 15.1184516,39.9632582 12.2897661,36.3783421 C9.6030768,32.973384 8,28.6738693 8,24 C8,18.4771525 10.2385763,13.4771525 13.8578644,9.85786438 C17.4771525,6.23857625 22.4771525,4 28,4 Z" id="形状结合备份-11" stroke="#FFFFFF" stroke-width="2" fill="#4B7EFF"></path>
                <path d="M21.2679376,32.3101749 L22.5897702,33.3029081 C22.6155189,33.322246 22.6385811,33.3449228 22.6583503,33.3703419 L23.6941249,34.7021336 C23.7521487,34.7767402 23.743625,34.8832996 23.6744793,34.947734 C23.604204,35.0132209 23.496668,35.0176641 23.4212298,34.9581978 L22.1295533,33.9399968 C22.1094724,33.9241675 22.0911194,33.9062616 22.0747998,33.8865771 L20.9947422,32.5838266 C20.9321601,32.508341 20.937428,32.3975986 21.0068927,32.3283943 C21.0772792,32.2582715 21.1884926,32.2505095 21.2679376,32.3101749 Z M34.7322883,32.3101749 C34.8117333,32.2505095 34.9229467,32.2582715 34.9933332,32.3283943 C35.0627979,32.3975986 35.0680658,32.508341 35.0054837,32.5838266 L35.0054837,32.5838266 L33.9254261,33.8865771 C33.9091065,33.9062616 33.8907535,33.9241675 33.8706726,33.9399968 L33.8706726,33.9399968 L32.5789961,34.9581978 C32.5035579,35.0176641 32.3960219,35.0132209 32.3257466,34.947734 C32.2566009,34.8832996 32.2480772,34.7767402 32.306101,34.7021336 L32.306101,34.7021336 L33.3418756,33.3703419 C33.3616448,33.3449228 33.384707,33.322246 33.4104557,33.3029081 L33.4104557,33.3029081 Z M19.5286959,15.3762961 C19.8578735,15.1153942 20.2746861,15.4085673 20.278344,15.4116873 C25.4063937,19.7855969 27.230442,19.8855807 27.964435,19.8914057 L28.044415,19.8918978 C28.132375,19.8925392 28.2021249,19.8943876 28.2590654,19.907639 C32.5695317,19.3286454 34.8037579,15.8825206 35.7293153,15.4116873 C36.6548727,14.940854 36.6882047,15.8350093 36.5717642,16.007719 C36.4553238,16.1804288 35.7567303,16.9951348 35.7293153,17.0186486 C30.4887238,21.7203587 32.2034008,24.9770444 32.9394906,26.7054805 C33.6755805,28.4339165 36.1935399,31.217874 36.5717642,31.8930076 C36.9499886,32.5681412 36.3350173,32.9529983 35.7293153,32.5681412 C31.2379857,28.5465421 29.7258131,28.2456265 28.5086785,28.2243801 L28.3609337,28.2229422 L28.3609337,28.2229422 L28.1424506,28.2229561 C23.763689,28.2229561 21.1256443,32.1099867 20.278344,32.5681412 C19.4310436,33.0262957 19.156981,32.2773208 19.4746821,31.8930076 C22.1138893,29.0351377 22.6821317,27.4328391 22.825678,26.7673903 L22.8464328,26.6624312 C22.8722462,26.5185801 22.8761979,26.4354715 22.8862793,26.4076862 C24.5778646,20.1394543 21.4452181,18.4764126 19.4746821,16.2490671 C19.2746411,15.9381977 19.1995182,15.637198 19.5286959,15.3762961 Z M17.3159564,28.3581936 L18.6377889,29.3509268 C18.6635376,29.3702648 18.6865999,29.3929416 18.7063691,29.4183607 L19.7421436,30.7501523 C19.8001675,30.8247589 19.7916438,30.9313184 19.722498,30.9957527 C19.6522227,31.0612397 19.5446867,31.0656829 19.4692485,31.0062165 L18.177572,29.9880156 C18.1574911,29.9721862 18.1391381,29.9542803 18.1228185,29.9345958 L17.0427609,28.6318453 C16.9801789,28.5563597 16.9854467,28.4456173 17.0549114,28.376413 C17.125298,28.3062902 17.2365114,28.2985282 17.3159564,28.3581936 Z M38.6842695,28.3581936 C38.7637146,28.2985282 38.8749279,28.3062902 38.9453145,28.376413 C39.0147792,28.4456173 39.020047,28.5563597 38.957465,28.6318453 L38.957465,28.6318453 L37.8774074,29.9345958 C37.8610878,29.9542803 37.8427348,29.9721862 37.8226539,29.9880156 L37.8226539,29.9880156 L36.5309774,31.0062165 C36.4555392,31.0656829 36.3480032,31.0612397 36.2777279,30.9957527 C36.2085821,30.9313184 36.2000584,30.8247589 36.2580823,30.7501523 L36.2580823,30.7501523 L37.2938568,29.4183607 C37.313626,29.3929416 37.3366883,29.3702648 37.362437,29.3509268 L37.362437,29.3509268 Z M36.4364141,17.0557957 L37.7582398,18.048306 C37.7840098,18.0676557 37.8070896,18.0903495 37.8268712,18.1157895 L38.8624357,19.4475665 C38.9204982,19.5222372 38.9119644,19.6288782 38.8427661,19.693365 C38.7724384,19.7589043 38.6648209,19.763357 38.5893194,19.7038516 L37.2976596,18.6858486 C37.2775622,18.6700091 37.2591952,18.6520898 37.2428647,18.6323894 L36.1629924,17.3296768 C36.1003671,17.2541283 36.1056428,17.1433016 36.1751612,17.0740436 C36.2456027,17.0038659 36.3569008,16.996092 36.4364141,17.0557957 Z M19.4692485,16.9937835 C19.5446867,16.9343171 19.6522227,16.9387603 19.722498,17.0042473 C19.7916438,17.0686816 19.8001675,17.1752411 19.7421436,17.2498477 L19.7421436,17.2498477 L18.7063691,18.5816393 C18.6865999,18.6070584 18.6635376,18.6297352 18.6377889,18.6490732 L18.6377889,18.6490732 L17.3159564,19.6418064 C17.2365114,19.7014718 17.125298,19.6937098 17.0549114,19.623587 C16.9854467,19.5543827 16.9801789,19.4436403 17.0427609,19.3681547 L17.0427609,19.3681547 L18.1228185,18.0654042 C18.1391381,18.0457197 18.1574911,18.0278138 18.177572,18.0119844 L18.177572,18.0119844 Z M32.4844329,13.1038144 L33.8062585,14.0963247 C33.8320285,14.1156745 33.8551083,14.1383683 33.87489,14.1638082 L34.9104545,15.4955853 C34.9685169,15.5702559 34.9599831,15.676897 34.8907848,15.7413838 C34.8204571,15.806923 34.7128396,15.8113758 34.6373381,15.7518703 L33.3456783,14.7338673 C33.325581,14.7180278 33.307214,14.7001086 33.2908835,14.6804081 L32.2110111,13.3776955 C32.1483859,13.3021471 32.1536615,13.1913203 32.2231799,13.1220623 C32.2936214,13.0518847 32.4049195,13.0441108 32.4844329,13.1038144 Z M23.4212298,13.0418022 C23.496668,12.9823359 23.604204,12.9867791 23.6744793,13.052266 C23.743625,13.1167004 23.7521487,13.2232598 23.6941249,13.2978664 L23.6941249,13.2978664 L22.6583503,14.6296581 C22.6385811,14.6550772 22.6155189,14.677754 22.5897702,14.6970919 L22.5897702,14.6970919 L21.2679376,15.6898251 C21.1884926,15.7494905 21.0772792,15.7417285 21.0068927,15.6716057 C20.937428,15.6024014 20.9321601,15.491659 20.9947422,15.4161734 L20.9947422,15.4161734 L22.0747998,14.1134229 C22.0911194,14.0937384 22.1094724,14.0758325 22.1295533,14.0600032 L22.1295533,14.0600032 Z" id="形状结合" fill="#FFFFFF"></path>
            </g>
        </g>
    </g>
</svg>