<?xml version="1.0" encoding="UTF-8"?>
<svg width="65px" height="65px" viewBox="0 0 65 65" version="1.1" xmlns="http://www.w3.org/2000/svg" xmlns:xlink="http://www.w3.org/1999/xlink">
    <title>icon/地图中/无人机_激活_选中_正常状态</title>
    <g id="icon/地图中/无人机_激活_选中_正常状态" stroke="none" stroke-width="1" fill="none" fill-rule="evenodd">
        <rect id="矩形备份-4" x="0" y="0" width="65" height="65"></rect>
        <circle id="椭圆形" stroke="#FFFFFF" stroke-width="3" fill="#4B7EFF" cx="32.5" cy="32.5" r="24"></circle>
        <path d="M23.0151109,44.2098132 L24.8776986,45.6087223 C24.9139752,45.6359681 24.9464674,45.6679173 24.9743207,45.7037297 L26.433876,47.5803525 C26.5156275,47.6854644 26.5036193,47.8355965 26.4061995,47.9263775 C26.3071879,48.0186418 26.1556798,48.0249004 26.0493959,47.9411164 L24.2292986,46.5063271 C24.2010071,46.4840248 24.1751498,46.4587972 24.1521568,46.4310641 L22.6302088,44.5953574 C22.5420355,44.4890066 22.5494565,44.3329811 22.6473255,44.235479 C22.7464932,44.136683 22.9031823,44.1257485 23.0151109,44.2098132 Z M41.9848891,44.2098132 C42.0968177,44.1257485 42.2535068,44.136683 42.3526745,44.235479 C42.4505435,44.3329811 42.4579645,44.4890066 42.3697912,44.5953574 L42.3697912,44.5953574 L40.8478432,46.4310641 C40.8248502,46.4587972 40.7989929,46.4840248 40.7707014,46.5063271 L40.7707014,46.5063271 L38.9506041,47.9411164 C38.8443202,48.0249004 38.6928121,48.0186418 38.5938005,47.9263775 C38.4963807,47.8355965 38.4843725,47.6854644 38.566124,47.5803525 L38.566124,47.5803525 L40.0256793,45.7037297 C40.0535326,45.6679173 40.0860248,45.6359681 40.1223014,45.6087223 L40.1223014,45.6087223 Z M20.5645619,20.3483966 C21.0283426,19.9807615 21.6155926,20.3938698 21.6207462,20.3982661 C29.0095704,26.7013103 31.5297941,26.7056921 32.5177687,26.7110297 L32.6010514,26.7116635 C32.7070194,26.7129392 32.793138,26.7167926 32.8648399,26.7334815 C38.9378857,25.9176255 42.0857025,21.0617141 43.3897267,20.3982661 C44.6937509,19.734818 44.7407126,20.9947662 44.5766588,21.2381304 C44.412605,21.4814946 43.4283519,22.6294914 43.3897267,22.6626244 C36.006221,29.2877727 38.4220413,33.8767467 39.4591234,36.3122744 C40.4962054,38.7478021 44.0437759,42.6706579 44.5766588,43.6219842 C45.1095417,44.5733104 44.2431043,45.1156099 43.3897267,44.5733104 C36.8520086,38.7185722 34.7946577,38.4601262 33.0471471,38.4506905 L32.7005404,38.4505391 C26.5312729,38.4505391 22.8145136,43.927728 21.6207462,44.5733104 C20.4269789,45.2188928 20.0408502,44.1635174 20.4884615,43.6219842 C25.3754979,38.3293485 25.2224872,36.0927648 25.2950844,35.8926546 C27.3172666,28.398392 24.4461849,25.5758356 21.8338422,22.9753945 L21.5551731,22.6974231 L21.5551731,22.6974231 L21.2798924,22.4199353 C21.0067751,22.142284 20.7408526,21.8635339 20.4884615,21.5782123 C20.2066224,21.1401683 20.1007812,20.7160316 20.5645619,20.3483966 Z M17.4464005,38.6411029 L19.3089882,40.0400119 C19.3452649,40.0672578 19.3777571,40.099207 19.4056104,40.1350193 L20.8651657,42.0116422 C20.9469171,42.116754 20.9349089,42.2668862 20.8374892,42.3576671 C20.7384776,42.4499315 20.5869694,42.45619 20.4806856,42.3724061 L18.6605883,40.9376167 C18.6322968,40.9153144 18.6064395,40.8900869 18.5834465,40.8623538 L17.0614985,39.026647 C16.9733252,38.9202963 16.9807462,38.7642707 17.0786152,38.6667686 C17.1777829,38.5679726 17.334472,38.5570382 17.4464005,38.6411029 Z M47.5535995,38.6411029 C47.665528,38.5570382 47.8222171,38.5679726 47.9213848,38.6667686 C48.0192538,38.7642707 48.0266748,38.9202963 47.9385015,39.026647 L47.9385015,39.026647 L46.4165535,40.8623538 C46.3935605,40.8900869 46.3677032,40.9153144 46.3394117,40.9376167 L46.3394117,40.9376167 L44.5193144,42.3724061 C44.4130306,42.45619 44.2615224,42.4499315 44.1625108,42.3576671 C44.0650911,42.2668862 44.0530829,42.116754 44.1348343,42.0116422 L44.1348343,42.0116422 L45.5943896,40.1350193 C45.6222429,40.099207 45.6547351,40.0672578 45.6910118,40.0400119 L45.6910118,40.0400119 Z M44.3860824,22.7149696 L46.2486603,24.1135647 C46.284967,24.1408271 46.317484,24.1728002 46.3453548,24.208642 L47.8046141,26.0852443 C47.88642,26.1904464 47.8743975,26.3406934 47.7769036,26.4315483 C47.6778183,26.5238863 47.5261953,26.5301583 47.4198223,26.4463193 L45.5997486,25.0118088 C45.5714338,24.9894923 45.5455568,24.9642459 45.5225485,24.9364904 L44.0008614,23.1008369 C43.9126273,22.9943977 43.9200593,22.8382533 44.018004,22.7406755 C44.117249,22.6418022 44.2740575,22.630851 44.3860824,22.7149696 Z M20.4806856,22.6275939 C20.5869694,22.54381 20.7384776,22.5500685 20.8374892,22.6423329 C20.9349089,22.7331138 20.9469171,22.883246 20.8651657,22.9883578 L20.8651657,22.9883578 L19.4056104,24.8649807 C19.3777571,24.900793 19.3452649,24.9327422 19.3089882,24.9599881 L19.3089882,24.9599881 L17.4464005,26.3588971 C17.334472,26.4429618 17.1777829,26.4320274 17.0786152,26.3332314 C16.9807462,26.2357293 16.9733252,26.0797037 17.0614985,25.973353 L17.0614985,25.973353 L18.5834465,24.1376462 C18.6064395,24.1099131 18.6322968,24.0846856 18.6605883,24.0623833 L18.6605883,24.0623833 Z M38.817372,17.1462592 L40.67995,18.5448543 C40.7162567,18.5721167 40.7487736,18.6040899 40.7766444,18.6399316 L42.2359037,20.5165339 C42.3177096,20.621736 42.3056872,20.7719831 42.2081933,20.862838 C42.1091079,20.955176 41.957485,20.961448 41.8511119,20.877609 L40.0310382,19.4430985 C40.0027235,19.4207819 39.9768464,19.3955356 39.9538381,19.36778 L38.4321511,17.5321266 C38.343917,17.4256873 38.351349,17.2695429 38.4492936,17.1719652 C38.5485387,17.0730919 38.7053472,17.0621407 38.817372,17.1462592 Z M26.0493959,17.0588836 C26.1556798,16.9750996 26.3071879,16.9813582 26.4061995,17.0736225 C26.5036193,17.1644035 26.5156275,17.3145356 26.433876,17.4196475 L26.433876,17.4196475 L24.9743207,19.2962703 C24.9464674,19.3320827 24.9139752,19.3640319 24.8776986,19.3912777 L24.8776986,19.3912777 L23.0151109,20.7901868 C22.9031823,20.8742515 22.7464932,20.863317 22.6473255,20.764521 C22.5494565,20.6670189 22.5420355,20.5109934 22.6302088,20.4046426 L22.6302088,20.4046426 L24.1521568,18.5689359 C24.1751498,18.5412028 24.2010071,18.5159752 24.2292986,18.4936729 L24.2292986,18.4936729 Z" id="形状结合" fill="#FFFFFF"></path>
    </g>
</svg>