<?xml version="1.0" encoding="UTF-8"?>
<svg width="28px" height="28px" viewBox="0 0 28 28" version="1.1" xmlns="http://www.w3.org/2000/svg" xmlns:xlink="http://www.w3.org/1999/xlink">
    <title>切片</title>
    <g id="页面-1" stroke="none" stroke-width="1" fill="none" fill-rule="evenodd">
        <g id="界面图标状态" transform="translate(-231.000000, -485.000000)">
            <g id="icon/无人机_激活_未选中_故障状态" transform="translate(231.000000, 485.000000)">
                <circle id="椭圆形备份" fill="#F64C4C" cx="14" cy="14" r="14"></circle>
                <g id="编组-10" transform="translate(6.353419, 7.579612)" fill="#FFFFFF">
                    <path d="M1.67213417,1.54180605 L2.39806011,0.408836576 C2.49075611,0.264163771 2.68318155,0.222028248 2.82785436,0.314724251 C2.8656467,0.338938884 2.89775205,0.371044236 2.92196668,0.408836576 L3.64789263,1.54180605 C3.67999032,1.59190167 3.69705043,1.65015053 3.69705043,1.70964702 L3.69705043,12.1333333 C3.69705043,12.3051553 3.55776124,12.4444444 3.38593932,12.4444444 L1.93408747,12.4444444 C1.76226555,12.4444444 1.62297636,12.3051553 1.62297636,12.1333333 L1.62297636,1.70964702 C1.62297636,1.65015053 1.64003648,1.59190167 1.67213417,1.54180605 Z" id="矩形备份-5"></path>
                    <path d="M6.41635951,1.54180605 L7.14228546,0.408836576 C7.23498146,0.264163771 7.4274069,0.222028248 7.5720797,0.314724251 C7.60987204,0.338938884 7.64197739,0.371044236 7.66619203,0.408836576 L8.39211797,1.54180605 C8.42421566,1.59190167 8.44127578,1.65015053 8.44127578,1.70964702 L8.44127578,12.1333333 C8.44127578,12.3051553 8.30198659,12.4444444 8.13016467,12.4444444 L6.67831282,12.4444444 C6.50649089,12.4444444 6.3672017,12.3051553 6.3672017,12.1333333 L6.3672017,1.70964702 C6.3672017,1.65015053 6.38426182,1.59190167 6.41635951,1.54180605 Z" id="矩形备份-6"></path>
                    <path d="M11.1605849,1.54180605 L11.8865108,0.4088366 C11.9792068,0.264163787 12.1716322,0.222028261 12.3163051,0.31472427 C12.3540974,0.338938904 12.3862028,0.371044258 12.4104174,0.4088366 L13.1363433,1.54180605 C13.168441,1.59190167 13.1855011,1.65015053 13.1855011,1.70964702 L13.1855011,12.1333333 C13.1855011,12.3051553 13.0462119,12.4444444 12.87439,12.4444444 L11.4225382,12.4444444 C11.2507162,12.4444444 11.111427,12.3051553 11.111427,12.1333333 L11.111427,1.70964702 C11.111427,1.65015053 11.1284872,1.59190167 11.1605849,1.54180605 Z" id="矩形备份-7"></path>
                    <path d="M6.96565565,-2.30041643 L8.41750754,-2.30041643 C8.58932945,-2.30041643 8.72861863,-2.16112725 8.72861863,-1.98930534 L8.72861863,12.7716357 C8.72861863,12.9434576 8.58932945,13.0827468 8.41750754,13.0827468 L6.96565565,13.0827468 C6.79383374,13.0827468 6.65454456,12.9434576 6.65454456,12.7716357 L6.65454456,-1.98930534 C6.65454456,-2.16112725 6.79383374,-2.30041643 6.96565565,-2.30041643 Z" id="矩形备份-8" transform="translate(7.691582, 5.391165) rotate(-90.000000) translate(-7.691582, -5.391165) "></path>
                </g>
            </g>
        </g>
    </g>
</svg>