<?xml version="1.0" encoding="UTF-8"?>
<svg width="54px" height="54px" viewBox="0 0 54 54" version="1.1" xmlns="http://www.w3.org/2000/svg" xmlns:xlink="http://www.w3.org/1999/xlink">
    <title>切片</title>
    <g id="页面-1" stroke="none" stroke-width="1" fill="none" fill-rule="evenodd">
        <g id="界面图标状态" transform="translate(-216.000000, -186.000000)">
            <g id="icon/电子围栏_激活_点中状态" transform="translate(216.000000, 186.000000)">
                <circle id="椭圆形备份" fill="#4B7EFF" cx="27" cy="27" r="27"></circle>
                <g id="编组-10" transform="translate(12.253022, 14.617823)" fill="#FFFDFD">
                    <path d="M3.22483018,2.9734831 L4.62483021,0.788470539 C4.80360108,0.509458701 5.17470728,0.428197335 5.45371912,0.606968199 C5.52660434,0.653667847 5.58852181,0.715585312 5.63522146,0.788470539 L7.03522149,2.97348311 C7.09712419,3.07009607 7.13002584,3.18243316 7.13002584,3.29717639 L7.13002584,23.4 C7.13002584,23.7313708 6.86139669,24 6.53002584,24 L3.73002584,24 C3.39865499,24 3.13002584,23.7313708 3.13002584,23.4 L3.13002584,3.2971764 C3.13002584,3.18243316 3.16292749,3.07009607 3.22483018,2.9734831 Z" id="矩形备份-5"></path>
                    <path d="M12.3744076,2.97348311 L13.7744077,0.788470539 C13.9531785,0.509458701 14.3242847,0.428197335 14.6032966,0.606968199 C14.6761818,0.653667847 14.7380993,0.715585312 14.7847989,0.788470539 L16.1847989,2.97348311 C16.2467016,3.07009607 16.2796033,3.18243316 16.2796033,3.29717639 L16.2796033,23.4 C16.2796033,23.7313708 16.0109741,24 15.6796033,24 L12.8796033,24 C12.5482324,24 12.2796033,23.7313708 12.2796033,23.4 L12.2796033,3.29717639 C12.2796033,3.18243316 12.3125049,3.07009607 12.3744076,2.97348311 Z" id="矩形备份-6"></path>
                    <path d="M21.5239851,2.9734831 L22.9239851,0.788470586 C23.102756,0.509458731 23.4738622,0.428197361 23.752874,0.606968235 C23.8257593,0.653667886 23.8876767,0.715585355 23.9343764,0.788470586 L25.3343764,2.9734831 C25.3962791,3.07009607 25.4291807,3.18243316 25.4291807,3.2971764 L25.4291807,23.4 C25.4291807,23.7313708 25.1605516,24 24.8291807,24 L22.0291807,24 C21.6978099,24 21.4291807,23.7313708 21.4291807,23.4 L21.4291807,3.2971764 C21.4291807,3.18243316 21.4620824,3.07009607 21.5239851,2.9734831 Z" id="矩形备份-7"></path>
                    <path d="M13.4337645,-4.4365174 L16.2337645,-4.4365174 C16.5651354,-4.4365174 16.8337645,-4.16788826 16.8337645,-3.83651743 L16.8337645,24.6310116 C16.8337645,24.9623825 16.5651354,25.2310116 16.2337645,25.2310116 L13.4337645,25.2310116 C13.1023936,25.2310116 12.8337645,24.9623825 12.8337645,24.6310116 L12.8337645,-3.83651743 C12.8337645,-4.16788826 13.1023936,-4.4365174 13.4337645,-4.4365174 Z" id="矩形备份-8" transform="translate(14.833764, 10.397247) rotate(-90.000000) translate(-14.833764, -10.397247) "></path>
                </g>
            </g>
        </g>
    </g>
</svg>