<?xml version="1.0" encoding="UTF-8"?>
<svg width="68px" height="68px" viewBox="0 0 68 68" version="1.1" xmlns="http://www.w3.org/2000/svg" xmlns:xlink="http://www.w3.org/1999/xlink">
    <title>切片</title>
    <g id="页面-1" stroke="none" stroke-width="1" fill="none" fill-rule="evenodd">
        <g id="界面图标状态" transform="translate(-209.000000, -41.000000)">
            <g id="icon/电子围栏_激活_选中_故障状态" transform="translate(209.000000, 41.000000)">
                <rect id="矩形" x="0" y="0" width="68" height="68"></rect>
                <g id="编组-6备份-4" transform="translate(2.000000, 11.000000)" fill="#F64C4C">
                    <circle id="椭圆形" cx="27" cy="27" r="27"></circle>
                </g>
                <g id="编组" transform="translate(33.608696, 4.000000)">
                    <path d="M18.3374626,2.36010246 L31.2054755,20.857871 C31.8362559,21.7646179 31.6125409,23.01103 30.7057941,23.6418104 C30.3705783,23.875004 29.9720141,24 29.5636651,24 L3.82763926,24 C2.72306976,24 1.82763926,23.1045695 1.82763926,22 C1.82763926,21.591651 1.95263526,21.1930868 2.18582885,20.857871 L15.0538418,2.36010246 C15.6846222,1.45335561 16.9310343,1.22964061 17.8377812,1.86042103 C18.0326798,1.99600273 18.2018809,2.16520376 18.3374626,2.36010246 Z" id="三角形" fill="#FFDE02"></path>
                    <g id="编组-3" transform="translate(15.248726, 8.155172)" fill="#060606">
                        <rect id="矩形备份" x="0" y="0" width="3" height="8.66666667" rx="1.45531915"></rect>
                        <circle id="椭圆形备份-3" cx="1.5" cy="11.25" r="1.5"></circle>
                    </g>
                </g>
                <g id="编组-10" transform="translate(17.000000, 30.000000)" fill="#FFFDFD">
                    <path d="M2.45632049,2.47839397 L3.92858732,0.498759062 C4.08094232,0.293899954 4.37052157,0.251336963 4.57538067,0.40369196 C4.61153322,0.430578832 4.6435609,0.462606519 4.67044778,0.498759062 L6.14271461,2.47839397 C6.20202194,2.55813961 6.23405022,2.65487538 6.23405022,2.7542571 L6.23405022,19.5377341 C6.23405022,19.7930365 6.02708674,20 5.77178436,20 L2.82725074,20 C2.57194835,20 2.36498488,19.7930365 2.36498488,19.5377341 L2.36498488,2.75425711 C2.36498488,2.65487538 2.39701316,2.55813961 2.45632049,2.47839397 Z" id="矩形备份-5"></path>
                    <path d="M9.54960693,2.47839397 L11.0218738,0.498759062 C11.1742288,0.293899954 11.463808,0.251336963 11.6686671,0.40369196 C11.7048197,0.430578832 11.7368474,0.462606519 11.7637342,0.498759062 L13.2360011,2.47839397 C13.2953084,2.55813961 13.3273367,2.65487538 13.3273367,2.7542571 L13.3273367,19.5377341 C13.3273367,19.7930365 13.1203732,20 12.8650708,20 L9.92053719,20 C9.6652348,20 9.45827133,19.7930365 9.45827133,19.5377341 L9.45827133,2.7542571 C9.45827133,2.65487538 9.4902996,2.55813961 9.54960693,2.47839397 Z" id="矩形备份-6"></path>
                    <path d="M16.6428934,2.47839397 L18.1151602,0.498759092 C18.2675152,0.293899972 18.5570945,0.251336978 18.7619536,0.403691984 C18.7981061,0.430578857 18.8301338,0.462606546 18.8570207,0.498759092 L20.3292875,2.47839397 C20.3885948,2.55813961 20.4206231,2.65487538 20.4206231,2.75425711 L20.4206231,19.5377341 C20.4206231,19.7930365 20.2136596,20 19.9583573,20 L17.0138236,20 C16.7585212,20 16.5515578,19.7930365 16.5515578,19.5377341 L16.5515578,2.75425711 C16.5515578,2.65487538 16.5835861,2.55813961 16.6428934,2.47839397 Z" id="矩形备份-7"></path>
                    <path d="M10.3493626,-3.43548387 L12.6506374,-3.43548387 C12.9059398,-3.43548387 13.1129032,-3.22852041 13.1129032,-2.97321804 L13.1129032,19.1022503 C13.1129032,19.3575527 12.9059398,19.5645161 12.6506374,19.5645161 L10.3493626,19.5645161 C10.0940602,19.5645161 9.88709677,19.3575527 9.88709677,19.1022503 L9.88709677,-2.97321804 C9.88709677,-3.22852041 10.0940602,-3.43548387 10.3493626,-3.43548387 Z" id="矩形备份-8" transform="translate(11.500000, 8.064516) rotate(-90.000000) translate(-11.500000, -8.064516) "></path>
                </g>
            </g>
        </g>
    </g>
</svg>