<?xml version="1.0" encoding="UTF-8"?>
<svg width="48px" height="48px" viewBox="0 0 48 48" version="1.1" xmlns="http://www.w3.org/2000/svg" xmlns:xlink="http://www.w3.org/1999/xlink">
    <title>切片</title>
    <g id="页面-1" stroke="none" stroke-width="1" fill="none" fill-rule="evenodd">
        <g id="界面图标状态" transform="translate(-75.000000, -549.000000)">
            <g id="icon/无人机_激活_未选中_故障状态" transform="translate(75.000000, 549.000000)">
                <rect id="矩形备份-18" x="0" y="0" width="48" height="48"></rect>
                <path d="M24,3.428 L24.4290967,3.43383686 C28.9925228,3.54594785 33.1135911,5.44135856 36.1218305,8.44959804 C39.2240775,11.551845 41.1428571,15.8375593 41.1428571,20.5714286 C41.1428571,24.5774331 39.7689074,28.2625892 37.4662066,31.1810662 C35.0418052,34.2537884 31.5884577,36.4773203 27.6255215,37.330358 L27.6255215,37.330358 L24.0000772,43.6963926 L20.3755107,37.3305801 C16.4123086,36.4777422 12.9586957,34.2542421 10.5340992,31.1814539 C8.23121427,28.2629156 6.85714286,24.5776104 6.85714286,20.5714286 C6.85714286,15.8375593 8.7759225,11.551845 11.8781695,8.44959804 C14.9804164,5.34735107 19.2661307,3.42857143 24,3.42857143 L24,3.428 Z" id="形状结合备份-11" stroke="#FFFFFF" stroke-width="1.71428571" fill="#F64C4C"></path>
                <g id="编组-16备份-4" transform="translate(14.587267, 11.119596)" fill="#FFFFFF">
                    <g id="编组" transform="translate(3.039639, 3.039639) scale(1, -1) rotate(-45.000000) translate(-3.039639, -3.039639) translate(2.611067, -0.830488)">
                        <path d="M0.371437873,0.000255370816 L0.402675685,0.000300046351 C0.499600647,0.000438666002 0.582696426,0.0695585451 0.600482545,0.164837722 L0.846862899,1.48468254 C0.853664295,1.52111721 0.854072271,1.55845766 0.848068564,1.59503223 L0.626593159,2.94426002 C0.611439349,3.036577 0.530434906,3.10351732 0.436916187,3.10100496 L0.392755611,3.09981859 C0.302439505,3.09739227 0.226755126,3.03078051 0.212878209,2.94150387 L0.00682066076,1.61584025 C0.00229531748,1.58672662 0.00181999296,1.55712686 0.00540820811,1.52788294 L0.171132663,0.177230199 C0.183544333,0.0760752025 0.269524373,0.000109616683 0.371437873,0.000255370816 Z" id="矩形"></path>
                        <path d="M0.371437873,4.63511923 L0.402675685,4.6351639 C0.499600647,4.63530252 0.582696426,4.7044224 0.600482545,4.79970158 L0.846862899,6.11954639 C0.853664295,6.15598106 0.854072271,6.19332151 0.848068564,6.22989609 L0.626593159,7.57912388 C0.611439349,7.67144086 0.530434906,7.73838117 0.436916187,7.73586881 L0.392755611,7.73468245 C0.302439505,7.73225613 0.226755126,7.66564436 0.212878209,7.57636773 L0.00682066076,6.25070411 C0.00229531748,6.22159048 0.00181999296,6.19199071 0.00540820811,6.16274679 L0.171132663,4.81209405 C0.183544333,4.71093906 0.269524373,4.63497347 0.371437873,4.63511923 Z" id="矩形备份-11"></path>
                    </g>
                    <g id="编组备份-2" transform="translate(15.707413, 3.039639) scale(1, -1) rotate(-315.000000) translate(-15.707413, -3.039639) translate(15.278842, -0.830488)">
                        <path d="M0.371437873,0.000255370816 L0.402675685,0.000300046351 C0.499600647,0.000438666002 0.582696426,0.0695585451 0.600482545,0.164837722 L0.846862899,1.48468254 C0.853664295,1.52111721 0.854072271,1.55845766 0.848068564,1.59503223 L0.626593159,2.94426002 C0.611439349,3.036577 0.530434906,3.10351732 0.436916187,3.10100496 L0.392755611,3.09981859 C0.302439505,3.09739227 0.226755126,3.03078051 0.212878209,2.94150387 L0.00682066076,1.61584025 C0.00229531748,1.58672662 0.00181999296,1.55712686 0.00540820811,1.52788294 L0.171132663,0.177230199 C0.183544333,0.0760752025 0.269524373,0.000109616683 0.371437873,0.000255370816 Z" id="矩形"></path>
                        <path d="M0.371437873,4.63511923 L0.402675685,4.6351639 C0.499600647,4.63530252 0.582696426,4.7044224 0.600482545,4.79970158 L0.846862899,6.11954639 C0.853664295,6.15598106 0.854072271,6.19332151 0.848068564,6.22989609 L0.626593159,7.57912388 C0.611439349,7.67144086 0.530434906,7.73838117 0.436916187,7.73586881 L0.392755611,7.73468245 C0.302439505,7.73225613 0.226755126,7.66564436 0.212878209,7.57636773 L0.00682066076,6.25070411 C0.00229531748,6.22159048 0.00181999297,6.19199071 0.00540820811,6.16274679 L0.171132663,4.81209405 C0.183544334,4.71093906 0.269524373,4.63497347 0.371437873,4.63511923 Z" id="矩形备份-11"></path>
                    </g>
                    <g id="编组备份-4" transform="translate(3.039639, 15.864027) scale(1, -1) rotate(-315.000000) translate(-3.039639, -15.864027) translate(2.611067, 11.993900)">
                        <path d="M0.371437873,0.000255370816 L0.402675685,0.000300046351 C0.499600647,0.000438666002 0.582696426,0.0695585451 0.600482545,0.164837722 L0.846862899,1.48468254 C0.853664295,1.52111721 0.854072271,1.55845766 0.848068564,1.59503223 L0.626593159,2.94426002 C0.611439349,3.036577 0.530434906,3.10351732 0.436916187,3.10100496 L0.392755611,3.09981859 C0.302439505,3.09739227 0.226755126,3.03078051 0.212878209,2.94150387 L0.00682066076,1.61584025 C0.00229531748,1.58672662 0.00181999296,1.55712686 0.00540820811,1.52788294 L0.171132663,0.177230199 C0.183544333,0.0760752025 0.269524373,0.000109616683 0.371437873,0.000255370816 Z" id="矩形"></path>
                        <path d="M0.371437873,4.63511923 L0.402675685,4.6351639 C0.499600647,4.63530252 0.582696426,4.7044224 0.600482545,4.79970158 L0.846862899,6.11954639 C0.853664295,6.15598106 0.854072271,6.19332151 0.848068564,6.22989609 L0.626593159,7.57912388 C0.611439349,7.67144086 0.530434906,7.73838117 0.436916187,7.73586881 L0.392755611,7.73468245 C0.302439505,7.73225613 0.226755126,7.66564436 0.212878209,7.57636773 L0.00682066076,6.25070411 C0.00229531748,6.22159048 0.00181999296,6.19199071 0.00540820811,6.16274679 L0.171132663,4.81209405 C0.183544333,4.71093906 0.269524373,4.63497347 0.371437873,4.63511923 Z" id="矩形备份-11"></path>
                    </g>
                    <g id="编组备份-3" transform="translate(15.849748, 15.864027) scale(1, -1) rotate(-225.000000) translate(-15.849748, -15.864027) translate(15.421176, 11.993900)">
                        <path d="M0.371437873,0.000255370816 L0.402675685,0.000300046351 C0.499600647,0.000438666002 0.582696426,0.0695585451 0.600482545,0.164837722 L0.846862899,1.48468254 C0.853664295,1.52111721 0.854072271,1.55845766 0.848068564,1.59503223 L0.626593159,2.94426002 C0.611439349,3.036577 0.530434906,3.10351732 0.436916187,3.10100496 L0.392755611,3.09981859 C0.302439505,3.09739227 0.226755126,3.03078051 0.212878209,2.94150387 L0.00682066076,1.61584025 C0.00229531748,1.58672662 0.00181999296,1.55712686 0.00540820811,1.52788294 L0.171132663,0.177230199 C0.183544333,0.0760752025 0.269524373,0.000109616683 0.371437873,0.000255370816 Z" id="矩形"></path>
                        <path d="M0.371437873,4.63511923 L0.402675685,4.6351639 C0.499600647,4.63530252 0.582696426,4.7044224 0.600482545,4.79970158 L0.846862899,6.11954639 C0.853664295,6.15598106 0.854072271,6.19332151 0.848068564,6.22989609 L0.626593159,7.57912388 C0.611439349,7.67144086 0.530434906,7.73838117 0.436916187,7.73586881 L0.392755611,7.73468245 C0.302439505,7.73225613 0.226755126,7.66564436 0.212878209,7.57636773 L0.00682066076,6.25070411 C0.00229531748,6.22159048 0.00181999296,6.19199071 0.00540820811,6.16274679 L0.171132663,4.81209405 C0.183544333,4.71093906 0.269524373,4.63497347 0.371437873,4.63511923 Z" id="矩形备份-11"></path>
                    </g>
                    <path d="M2.18599222,2.96446696 C3.84402452,4.82430503 6.47987034,6.2129482 5.05655047,11.4469346 C5.01319476,11.5655162 5.10457411,12.8908734 2.18599222,16.0271891 C1.91867471,16.3480915 2.14927425,16.973487 2.8622028,16.5909271 C3.57513135,16.2083672 5.79481334,12.9626886 9.47915519,12.9626886 C10.5778504,12.9626886 11.6981569,12.8902262 15.862833,16.5909271 C16.3724778,16.9122835 16.8899219,16.5909271 16.5716795,16.0271891 C16.2534371,15.4634512 14.1347962,13.138841 13.5154415,11.6955934 C12.8960868,10.2523458 11.4533373,7.53300658 15.862833,3.60706907 C15.8859003,3.58743505 16.4737051,2.90715386 16.5716795,2.76294086 C16.6696539,2.61872786 16.6416079,1.8721064 15.862833,2.26525314 C15.0840581,2.65839988 13.2041537,5.53592114 9.5772763,6.01938197 C9.15977152,5.92295871 7.92379717,6.54959216 2.8622028,2.26525314 C2.85912501,2.26264797 2.508414,2.01784784 2.23144001,2.23570143 C1.95446603,2.45355501 2.01767534,2.70489037 2.18599222,2.96446696 Z" id="路径-7"></path>
                </g>
            </g>
        </g>
    </g>
</svg>