<?xml version="1.0" encoding="UTF-8"?>
<svg width="80px" height="80px" viewBox="0 0 80 80" version="1.1" xmlns="http://www.w3.org/2000/svg" xmlns:xlink="http://www.w3.org/1999/xlink">
    <title>切片</title>
    <g id="页面-1" stroke="none" stroke-width="1" fill="none" fill-rule="evenodd">
        <g id="界面图标状态" transform="translate(-62.000000, -72.000000)">
            <g id="icon/无人机_激活_选中_故障状态" transform="translate(62.000000, 71.000000)">
                <rect id="矩形" x="0" y="1" width="80" height="80"></rect>
                <path d="M28.5,19.0909091 C35.2403843,19.0909091 41.3426571,21.8229897 45.7598337,26.2401663 C50.1770103,30.6573429 52.9090909,36.7596157 52.9090909,43.5 C52.9090909,49.3198525 50.8724521,54.6640883 47.472641,58.8585071 C43.902966,63.2624906 38.8311656,66.3997582 33.036436,67.4885269 L33.036436,67.4885269 L28.5000825,76.5606201 L23.9645929,67.4887201 C18.169602,66.4001609 13.0975378,63.2629322 9.52766792,58.8588882 C6.12767135,54.664412 4.09090909,49.3200287 4.09090909,43.5 C4.09090909,36.7596157 6.82298965,30.6573429 11.2401663,26.2401663 C15.6573429,21.8229897 21.7596157,19.0909091 28.5,19.0909091 Z" id="形状结合备份-13" stroke="#FFFFFF" stroke-width="2.18181818" fill="#F64C4C"></path>
                <path d="M18.9827341,55.1854964 L20.8926049,56.6199178 C20.918988,56.639733 20.9426187,56.6629687 20.9628756,56.6890141 L22.4558535,58.6086101 C22.525163,58.6977247 22.5149823,58.8250078 22.4323892,58.9019725 L22.3709015,58.9592701 C22.2921994,59.0326089 22.1717691,59.0375837 22.0872865,58.9709857 L20.2176925,57.4971779 C20.1971168,57.480958 20.1783115,57.4626108 20.1615893,57.4424412 L18.6113168,55.5725706 C18.5338449,55.4791274 18.5403652,55.3420383 18.626356,55.2563698 L18.676011,55.206901 C18.7587142,55.1245078 18.8893887,55.1153887 18.9827341,55.1854964 Z M38.0172659,55.1854964 C38.1106113,55.1153887 38.2412858,55.1245078 38.323989,55.206901 L38.323989,55.206901 L38.373644,55.2563698 C38.4596348,55.3420383 38.4661551,55.4791274 38.3886832,55.5725706 L38.3886832,55.5725706 L36.8384107,57.4424412 C36.8216885,57.4626108 36.8028832,57.480958 36.7823075,57.4971779 L36.7823075,57.4971779 L34.9127135,58.9709857 C34.8282309,59.0375837 34.7078006,59.0326089 34.6290985,58.9592701 L34.6290985,58.9592701 L34.5676108,58.9019725 C34.4850177,58.8250078 34.474837,58.6977247 34.5441465,58.6086101 L34.5441465,58.6086101 L36.0371244,56.6890141 C36.0573813,56.6629687 36.081012,56.639733 36.1073951,56.6199178 L36.1073951,56.6199178 Z M16.5645619,31.3483966 C17.0283426,30.9807615 17.6155926,31.3938698 17.6207462,31.3982661 C25.0095704,37.7013103 27.5297941,37.7056921 28.5177687,37.7110297 L28.6010514,37.7116635 C28.7070194,37.7129392 28.793138,37.7167926 28.8648399,37.7334815 C34.9378857,36.9176255 38.0857025,32.0617141 39.3897267,31.3982661 C40.6937509,30.734818 40.7407126,31.9947662 40.5766588,32.2381304 C40.412605,32.4814946 39.4283519,33.6294914 39.3897267,33.6626244 C32.006221,40.2877727 34.4220413,44.8767467 35.4591234,47.3122744 C36.4962054,49.7478021 40.0437759,53.6706579 40.5766588,54.6219842 C41.1095417,55.5733104 40.2431043,56.1156099 39.3897267,55.5733104 C32.8520086,49.7185722 30.7946577,49.4601262 29.0471471,49.4506905 L28.7005404,49.4505391 C22.5312729,49.4505391 18.8145136,54.927728 17.6207462,55.5733104 C16.4269789,56.2188928 16.0408502,55.1635174 16.4884615,54.6219842 C21.3754979,49.3293485 21.2224872,47.0927648 21.2950844,46.8926546 C23.3172666,39.398392 20.4461849,36.5758356 17.8338422,33.9753945 L17.5551731,33.6974231 L17.5551731,33.6974231 L17.2798924,33.4199353 C17.0067751,33.142284 16.7408526,32.8635339 16.4884615,32.5782123 C16.2066224,32.1401683 16.1007812,31.7160316 16.5645619,31.3483966 Z M13.4140238,49.6167861 L15.3238946,51.0512075 C15.3502776,51.0710226 15.3739083,51.0942584 15.3941653,51.1203038 L16.8871432,53.0398997 C16.9564526,53.1290143 16.946272,53.2562974 16.8636788,53.3332622 L16.8021912,53.3905597 C16.7234891,53.4638985 16.6030588,53.4688733 16.5185762,53.4022754 L14.6489821,51.9284676 C14.6284065,51.9122477 14.6096012,51.8939004 14.592879,51.8737309 L13.0426064,50.0038603 C12.9651345,49.9104171 12.9716548,49.773328 13.0576457,49.6876595 L13.1073007,49.6381906 C13.1900039,49.5557974 13.3206784,49.5466784 13.4140238,49.6167861 Z M43.5859762,49.6167861 C43.6793216,49.5466784 43.8099961,49.5557974 43.8926993,49.6381906 L43.8926993,49.6381906 L43.9423543,49.6876595 C44.0283452,49.773328 44.0348655,49.9104171 43.9573936,50.0038603 L43.9573936,50.0038603 L42.407121,51.8737309 C42.3903988,51.8939004 42.3715935,51.9122477 42.3510179,51.9284676 L42.3510179,51.9284676 L40.4814238,53.4022754 C40.3969412,53.4688733 40.2765109,53.4638985 40.1978088,53.3905597 L40.1978088,53.3905597 L40.1363212,53.3332622 C40.053728,53.2562974 40.0435474,53.1290143 40.1128568,53.0398997 L40.1128568,53.0398997 L41.6058347,51.1203038 C41.6260917,51.0942584 41.6497224,51.0710226 41.6761054,51.0512075 L41.6761054,51.0512075 Z M40.3535386,33.6905327 L42.2635791,35.1247671 C42.289984,35.1445943 42.3136327,35.1678475 42.3339024,35.1939142 L43.8267126,37.1136629 C43.8960076,37.202776 43.8858238,37.3300452 43.80324,37.4070054 L43.7414681,37.4645708 C43.6627718,37.5379082 43.5423485,37.5428896 43.457864,37.4763023 L41.5881328,36.0026538 C41.5675403,35.9864235 41.5487206,35.9680626 41.5319873,35.9478767 L39.9818436,34.0778952 C39.9043823,33.9844515 39.9109069,33.8473714 39.9968931,33.7617073 L40.0468351,33.7119524 C40.1295316,33.6295656 40.2601933,33.6204404 40.3535386,33.6905327 Z M16.5185762,33.5977246 C16.6030588,33.5311267 16.7234891,33.5361015 16.8021912,33.6094403 L16.8021912,33.6094403 L16.8636788,33.6667378 C16.946272,33.7437026 16.9564526,33.8709857 16.8871432,33.9601003 L16.8871432,33.9601003 L15.3941653,35.8796962 C15.3739083,35.9057416 15.3502776,35.9289774 15.3238946,35.9487925 L15.3238946,35.9487925 L13.4140238,37.3832139 C13.3206784,37.4533216 13.1900039,37.4442026 13.1073007,37.3618094 L13.1073007,37.3618094 L13.0576457,37.3123405 C12.9716548,37.226672 12.9651345,37.0895829 13.0426064,36.9961397 L13.0426064,36.9961397 L14.592879,35.1262691 C14.6096012,35.1060996 14.6284065,35.0877523 14.6489821,35.0715324 L14.6489821,35.0715324 Z M34.7848283,28.1218224 L36.6948688,29.5560567 C36.7212737,29.5758839 36.7449223,29.5991371 36.765192,29.6252039 L38.2580022,31.5449525 C38.3272973,31.6340657 38.3171135,31.7613349 38.2345297,31.838295 L38.1727578,31.8958605 C38.0940614,31.9691979 37.9736381,31.9741793 37.8891537,31.907592 L36.0194225,30.4339434 C35.99883,30.4177132 35.9800103,30.3993522 35.963277,30.3791664 L34.4131333,28.5091848 C34.335672,28.4157412 34.3421966,28.278661 34.4281828,28.1929969 L34.4781248,28.143242 C34.5608213,28.0608553 34.6914829,28.0517301 34.7848283,28.1218224 Z M22.0872865,28.0290143 C22.1717691,27.9624163 22.2921994,27.9673911 22.3709015,28.0407299 L22.3709015,28.0407299 L22.4323892,28.0980275 C22.5149823,28.1749922 22.525163,28.3022753 22.4558535,28.3913899 L22.4558535,28.3913899 L20.9628756,30.3109859 C20.9426187,30.3370313 20.918988,30.360267 20.8926049,30.3800822 L20.8926049,30.3800822 L18.9827341,31.8145036 C18.8893887,31.8846113 18.7587142,31.8754922 18.676011,31.793099 L18.676011,31.793099 L18.626356,31.7436302 C18.5403652,31.6579617 18.5338449,31.5208726 18.6113168,31.4274294 L18.6113168,31.4274294 L20.1615893,29.5575588 C20.1783115,29.5373892 20.1971168,29.519042 20.2176925,29.5028221 L20.2176925,29.5028221 Z" id="形状结合" fill="#FFFFFF"></path>
                <g id="编组" transform="translate(37.000000, 0.000000)">
                    <path d="M24.1098114,2.28950954 L42.8204439,28.9001869 C43.4455743,29.7892612 43.2316055,31.0167666 42.3425312,31.641897 C42.0110923,31.8749399 41.6158001,32 41.2106325,32 L3.78936746,32 C2.70251833,32 1.82145302,31.1189347 1.82145302,30.0320856 C1.82145302,29.626918 1.94651311,29.2316258 2.17955607,28.9001869 L20.8901886,2.28950954 C21.515319,1.40043525 22.7428244,1.18646642 23.6318986,1.81159678 C23.8175717,1.94214813 23.97926,2.1038365 24.1098114,2.28950954 Z" id="三角形" fill="#FFDE02"></path>
                    <path d="M22.5715257,23.8735627 C23.6879607,23.8735627 24.5930101,24.7689932 24.5930101,25.8735627 C24.5930101,26.9781322 23.6879607,27.8735627 22.5715257,27.8735627 C21.4550907,27.8735627 20.5500414,26.9781322 20.5500414,25.8735627 C20.5500414,24.7689932 21.4550907,23.8735627 22.5715257,23.8735627 Z M23.1610383,10.8735627 C23.9518945,10.8735627 24.5930101,11.5146783 24.5930101,12.3055344 L24.5930101,20.9971464 C24.5930101,21.7880026 23.9518945,22.4291182 23.1610383,22.4291182 L21.9820132,22.4291182 C21.191157,22.4291182 20.5500414,21.7880026 20.5500414,20.9971464 L20.5500414,12.3055344 C20.5500414,11.5146783 21.191157,10.8735627 21.9820132,10.8735627 L23.1610383,10.8735627 Z" id="形状结合" fill="#060606"></path>
                </g>
            </g>
        </g>
    </g>
</svg>