<?xml version="1.0" encoding="UTF-8"?>
<svg width="65px" height="65px" viewBox="0 0 65 65" version="1.1" xmlns="http://www.w3.org/2000/svg" xmlns:xlink="http://www.w3.org/1999/xlink">
    <title>切片</title>
    <g id="页面-1" stroke="none" stroke-width="1" fill="none" fill-rule="evenodd">
        <g id="界面图标状态" transform="translate(-75.000000, -242.000000)">
            <g id="icon/无人机_激活_选中_正常状态" transform="translate(75.000000, 242.000000)">
                <rect id="矩形备份-4" x="0" y="0" width="65" height="65"></rect>
                <path d="M32.5,3.2244898 C39.203497,3.2244898 45.2723746,5.94161883 49.6653779,10.3346221 C54.0583812,14.7276254 56.7755102,20.796503 56.7755102,27.5 C56.7755102,33.2879708 54.7500599,38.6029463 51.3688685,42.7743937 C47.805386,47.1707374 42.7367891,50.2979075 36.9466617,51.3693839 L36.9466617,51.3693839 L32.5000926,60.2619205 L28.0543711,51.369575 C22.2639801,50.2983101 17.1951172,47.1711785 13.6314388,42.7747727 C10.2500628,38.6032682 8.2244898,33.2881461 8.2244898,27.5 C8.2244898,20.796503 10.9416188,14.7276254 15.3346221,10.3346221 C19.7276254,5.94161883 25.796503,3.2244898 32.5,3.2244898 Z" id="形状结合备份-13" stroke="#FFFFFF" stroke-width="2.44897959" fill="#4B7EFF"></path>
                <path d="M23.0026483,39.2004531 L24.8877375,40.6162621 C24.9173512,40.6385036 24.9438754,40.6645846 24.9666128,40.6938192 L26.4408623,42.5893351 C26.5186587,42.6893617 26.5072314,42.8322305 26.4145248,42.9186195 L26.3876506,42.9436624 C26.2993115,43.0259814 26.1641346,43.0315654 26.0693072,42.9568126 L24.2214822,41.5001654 C24.1983871,41.4819594 24.1772791,41.4613655 24.1585093,41.4387262 L22.6280638,39.5927702 C22.5411056,39.4878849 22.5484243,39.3340094 22.6449446,39.2378509 L22.6583673,39.2244786 C22.7511974,39.1319965 22.8978728,39.1217608 23.0026483,39.2004531 Z M41.9973517,39.2004531 C42.1021272,39.1217608 42.2488026,39.1319965 42.3416327,39.2244786 L42.3416327,39.2244786 L42.3550554,39.2378509 C42.4515757,39.3340094 42.4588944,39.4878849 42.3719362,39.5927702 L42.3719362,39.5927702 L40.8414907,41.4387262 C40.8227209,41.4613655 40.8016129,41.4819594 40.7785178,41.5001654 L40.7785178,41.5001654 L38.9306928,42.9568126 C38.8358654,43.0315654 38.7006885,43.0259814 38.6123494,42.9436624 L38.6123494,42.9436624 L38.5854752,42.9186195 C38.4927686,42.8322305 38.4813413,42.6893617 38.5591377,42.5893351 L38.5591377,42.5893351 L40.0333872,40.6938192 C40.0561246,40.6645846 40.0826488,40.6385036 40.1122625,40.6162621 L40.1122625,40.6162621 Z M20.5645619,15.3483966 C21.0283426,14.9807615 21.6155926,15.3938698 21.6207462,15.3982661 C29.0095704,21.7013103 31.5297941,21.7056921 32.5177687,21.7110297 L32.6010514,21.7116635 C32.7070194,21.7129392 32.793138,21.7167926 32.8648399,21.7334815 C38.9378857,20.9176255 42.0857025,16.0617141 43.3897267,15.3982661 C44.6937509,14.734818 44.7407126,15.9947662 44.5766588,16.2381304 C44.412605,16.4814946 43.4283519,17.6294914 43.3897267,17.6626244 C36.006221,24.2877727 38.4220413,28.8767467 39.4591234,31.3122744 C40.4962054,33.7478021 44.0437759,37.6706579 44.5766588,38.6219842 C45.1095417,39.5733104 44.2431043,40.1156099 43.3897267,39.5733104 C36.8520086,33.7185722 34.7946577,33.4601262 33.0471471,33.4506905 L32.7005404,33.4505391 C26.5312729,33.4505391 22.8145136,38.927728 21.6207462,39.5733104 C20.4269789,40.2188928 20.0408502,39.1635174 20.4884615,38.6219842 C25.3754979,33.3293485 25.2224872,31.0927648 25.2950844,30.8926546 C27.3172666,23.398392 24.4461849,20.5758356 21.8338422,17.9753945 L21.5551731,17.6974231 L21.5551731,17.6974231 L21.2798924,17.4199353 C21.0067751,17.142284 20.7408526,16.8635339 20.4884615,16.5782123 C20.2066224,16.1401683 20.1007812,15.7160316 20.5645619,15.3483966 Z M17.4339379,33.6317428 L19.3190272,35.0475518 C19.3486408,35.0697933 19.3751651,35.0958743 19.3979025,35.1251088 L20.872152,37.0206248 C20.9499483,37.1206514 20.9385211,37.2635202 20.8458144,37.3499092 L20.8189403,37.374952 C20.7306012,37.4572711 20.5954243,37.462855 20.5005969,37.3881022 L18.6527719,35.9314551 C18.6296768,35.9132491 18.6085688,35.8926552 18.589799,35.8700159 L17.0593535,34.0240598 C16.9723952,33.9191746 16.9797139,33.7652991 17.0762343,33.6691406 L17.0896569,33.6557682 C17.1824871,33.5632861 17.3291625,33.5530504 17.4339379,33.6317428 Z M47.5660621,33.6317428 C47.6708375,33.5530504 47.8175129,33.5632861 47.9103431,33.6557682 L47.9103431,33.6557682 L47.9237657,33.6691406 C48.0202861,33.7652991 48.0276048,33.9191746 47.9406465,34.0240598 L47.9406465,34.0240598 L46.410201,35.8700159 C46.3914312,35.8926552 46.3703232,35.9132491 46.3472281,35.9314551 L46.3472281,35.9314551 L44.4994031,37.3881022 C44.4045757,37.462855 44.2693988,37.4572711 44.1810597,37.374952 L44.1810597,37.374952 L44.1541856,37.3499092 C44.0614789,37.2635202 44.0500517,37.1206514 44.127848,37.0206248 L44.127848,37.0206248 L45.6020975,35.1251088 C45.6248349,35.0958743 45.6513592,35.0697933 45.6809728,35.0475518 L45.6809728,35.0475518 Z M44.3734523,17.7054857 L46.2587077,19.1211091 C46.2883458,19.1433642 46.3148902,19.1694647 46.3376419,19.1987233 L47.811725,21.0943889 C47.8895051,21.1944138 47.8780743,21.337267 47.7853782,21.4236509 L47.7582158,21.4489636 C47.6698831,21.5312812 47.5347141,21.5368725 47.4398846,21.4621316 L45.5919257,20.0056432 C45.5688117,19.9874256 45.5476875,19.9668163 45.5289052,19.9441587 L43.998588,18.0980944 C43.9116417,17.9932087 43.9189652,17.8393432 44.0154803,17.7431897 L44.0291932,17.7295282 C44.1220158,17.6370532 44.2686769,17.6268107 44.3734523,17.7054857 Z M20.5005969,17.6118978 C20.5954243,17.537145 20.7306012,17.5427289 20.8189403,17.625048 L20.8189403,17.625048 L20.8458144,17.6500908 C20.9385211,17.7364798 20.9499483,17.8793486 20.872152,17.9793752 L20.872152,17.9793752 L19.3979025,19.8748912 C19.3751651,19.9041257 19.3486408,19.9302067 19.3190272,19.9524482 L19.3190272,19.9524482 L17.4339379,21.3682572 C17.3291625,21.4469496 17.1824871,21.4367139 17.0896569,21.3442318 L17.0896569,21.3442318 L17.0762343,21.3308594 C16.9797139,21.2347009 16.9723952,21.0808254 17.0593535,20.9759402 L17.0593535,20.9759402 L18.589799,19.1299841 C18.6085688,19.1073448 18.6296768,19.0867509 18.6527719,19.0685449 L18.6527719,19.0685449 Z M38.8047419,12.1367754 L40.6899973,13.5523988 C40.7196355,13.5746538 40.7461799,13.6007543 40.7689316,13.6300129 L42.2430146,15.5256785 C42.3207948,15.6257035 42.309364,15.7685567 42.2166679,15.8549405 L42.1895054,15.8802533 C42.1011728,15.9625708 41.9660038,15.9681622 41.8711742,15.8934213 L40.0232154,14.4369328 C40.0001013,14.4187152 39.9789772,14.398106 39.9601949,14.3754484 L38.4298777,12.5293841 C38.3429314,12.4244984 38.3502549,12.2706329 38.44677,12.1744793 L38.4604829,12.1608178 C38.5533055,12.0683429 38.6999665,12.0581004 38.8047419,12.1367754 Z M26.0693072,12.0431874 C26.1641346,11.9684346 26.2993115,11.9740186 26.3876506,12.0563376 L26.3876506,12.0563376 L26.4145248,12.0813805 C26.5072314,12.1677695 26.5186587,12.3106383 26.4408623,12.4106649 L26.4408623,12.4106649 L24.9666128,14.3061808 C24.9438754,14.3354154 24.9173512,14.3614964 24.8877375,14.3837379 L24.8877375,14.3837379 L23.0026483,15.7995469 C22.8978728,15.8782392 22.7511974,15.8680035 22.6583673,15.7755214 L22.6583673,15.7755214 L22.6449446,15.7621491 C22.5484243,15.6659906 22.5411056,15.5121151 22.6280638,15.4072298 L22.6280638,15.4072298 L24.1585093,13.5612738 C24.1772791,13.5386345 24.1983871,13.5180406 24.2214822,13.4998346 L24.2214822,13.4998346 Z" id="形状结合" fill="#FFFFFF"></path>
            </g>
        </g>
    </g>
</svg>