<?xml version="1.0" encoding="UTF-8"?>
<svg width="40px" height="40px" viewBox="0 0 40 40" version="1.1" xmlns="http://www.w3.org/2000/svg" xmlns:xlink="http://www.w3.org/1999/xlink">
    <title>切片</title>
    <g id="页面-1" stroke="none" stroke-width="1" fill="none" fill-rule="evenodd">
        <g id="界面图标状态" transform="translate(-51.000000, -576.000000)">
            <g id="icon/地图中/运维点_正常状态" transform="translate(51.000000, 576.000000)">
                <g id="编组-19备份" transform="translate(6.000000, 4.000000)">
                    <path d="M26,-1 C26.8284271,-1 27.5784271,-0.664213562 28.1213203,-0.121320344 C28.6642136,0.421572875 29,1.17157288 29,2 L29,2 L29,17.8 C29,18.6284271 28.6642136,19.3784271 28.1213203,19.9213203 C27.5784271,20.4642136 26.8284271,20.8 26,20.8 L26,20.8 L17.666,20.8 L17.666,28.0392499 L20.6666667,28.04 C21.126904,28.04 21.5435706,28.226548 21.845178,28.5281554 C22.1467853,28.8297627 22.3333333,29.2464294 22.3333333,29.7066667 L22.3333333,29.7066667 L22.3333333,31.3733333 C22.3333333,31.8335706 22.1467853,32.2502373 21.845178,32.5518446 C21.5435706,32.853452 21.126904,33.04 20.6666667,33.04 L20.6666667,33.04 L8,33.04 C7.53976271,33.04 7.12309604,32.853452 6.8214887,32.5518446 C6.51988135,32.2502373 6.33333333,31.8335706 6.33333333,31.3733333 L6.33333333,31.3733333 L6.33333333,29.7066667 C6.33333333,29.2464294 6.51988135,28.8297627 6.8214887,28.5281554 C7.12309604,28.226548 7.53976271,28.04 7.99975,28.04 L7.99975,28.04 L11,28.03925 L11,20.8 L2,20.8 C1.17157288,20.8 0.421572875,20.4642136 -0.121320344,19.9213203 C-0.664213562,19.3784271 -1,18.6284271 -1,17.8 L-1,17.8 L-1,2 C-1,1.17157288 -0.664213562,0.421572875 -0.121320344,-0.121320344 C0.421572875,-0.664213562 1.17157288,-1 2,-1 L2,-1 Z" id="形状结合" stroke="#FFFFFF" stroke-width="2" fill="#4B7EFF" stroke-linejoin="round"></path>
                    <path d="M3.33333333,1.98 L24.6666667,1.98 C25.4030463,1.98 26,2.57695367 26,3.31333333 L26,10.56 L26,10.56 L2,10.56 L2,3.31333333 C2,2.57695367 2.59695367,1.98 3.33333333,1.98 Z" id="矩形备份-4" fill="#FFFFFF"></path>
                    <path d="M3.44595533,12.8861634 C3.96575274,12.8861634 4.39292112,13.2787895 4.44137761,13.7808198 L4.44595533,13.8761634 L4.44595533,16.5161634 C4.44595533,17.0629253 3.99824008,17.5061634 3.44595533,17.5061634 C2.92615792,17.5061634 2.49898955,17.1135373 2.45053305,16.611507 L2.44595533,16.5161634 L2.44595533,13.8761634 C2.44595533,13.3294015 2.89367058,12.8861634 3.44595533,12.8861634 Z" id="路径-2备份-6" fill="#FFFFFF" fill-rule="nonzero"></path>
                    <line x1="7.24595544" y1="4.42149648" x2="7.24595544" y2="7.75482981" id="路径-2备份-7" stroke="#FFDE02" stroke-width="2" stroke-linecap="round" stroke-linejoin="round" transform="translate(7.245955, 6.088163) scale(-1, -1) rotate(90.000000) translate(-7.245955, -6.088163) "></line>
                    <path d="M8.77928867,12.8861634 C9.29908608,12.8861634 9.72625445,13.2787895 9.77471095,13.7808198 L9.77928867,13.8761634 L9.77928867,16.5161634 C9.77928867,17.0629253 9.33157342,17.5061634 8.77928867,17.5061634 C8.25949126,17.5061634 7.83232288,17.1135373 7.78386639,16.611507 L7.77928867,16.5161634 L7.77928867,13.8761634 C7.77928867,13.3294015 8.22700392,12.8861634 8.77928867,12.8861634 Z" id="路径-2备份-8" fill="#FFFFFF" fill-rule="nonzero"></path>
                    <path d="M14.112622,12.8861634 C14.6324194,12.8861634 15.0595878,13.2787895 15.1080443,13.7808198 L15.112622,13.8761634 L15.112622,16.5161634 C15.112622,17.0629253 14.6649067,17.5061634 14.112622,17.5061634 C13.5928246,17.5061634 13.1656562,17.1135373 13.1171997,16.611507 L13.112622,16.5161634 L13.112622,13.8761634 C13.112622,13.3294015 13.5603373,12.8861634 14.112622,12.8861634 Z" id="路径-2备份-9" fill="#FFFFFF" fill-rule="nonzero"></path>
                    <path d="M19.4459553,12.8861634 C19.9657527,12.8861634 20.3929211,13.2787895 20.4413776,13.7808198 L20.4459553,13.8761634 L20.4459553,16.5161634 C20.4459553,17.0629253 19.9982401,17.5061634 19.4459553,17.5061634 C18.9261579,17.5061634 18.4989895,17.1135373 18.4505331,16.611507 L18.4459553,16.5161634 L18.4459553,13.8761634 C18.4459553,13.3294015 18.8936706,12.8861634 19.4459553,12.8861634 Z" id="路径-2备份-10" fill="#FFFFFF" fill-rule="nonzero"></path>
                    <path d="M24.7792887,12.8861634 C25.2990861,12.8861634 25.7262545,13.2787895 25.7747109,13.7808198 L25.7792887,13.8761634 L25.7792887,16.5161634 C25.7792887,17.0629253 25.3315734,17.5061634 24.7792887,17.5061634 C24.2594913,17.5061634 23.8323229,17.1135373 23.7838664,16.611507 L23.7792887,16.5161634 L23.7792887,13.8761634 C23.7792887,13.3294015 24.2270039,12.8861634 24.7792887,12.8861634 Z" id="路径-2备份-11" fill="#FFFFFF" fill-rule="nonzero"></path>
                </g>
                <rect id="矩形" x="0" y="0" width="40" height="40"></rect>
            </g>
        </g>
    </g>
</svg>