<?xml version="1.0" encoding="UTF-8"?>
<svg width="54px" height="54px" viewBox="0 0 54 54" version="1.1" xmlns="http://www.w3.org/2000/svg" xmlns:xlink="http://www.w3.org/1999/xlink">
    <title>切片</title>
    <g id="页面-1" stroke="none" stroke-width="1" fill="none" fill-rule="evenodd">
        <g id="界面图标状态" transform="translate(-591.000000, -244.000000)">
            <g id="icon/运维点_激活_选中_正常状态" transform="translate(591.469388, 244.469388)">
                <rect id="矩形备份-4" x="0" y="0" width="53.0612245" height="53.0612245"></rect>
                <g id="编组-19备份" transform="translate(9.816327, 7.428571)">
                    <path d="M31.0408163,-1.2244898 C32.0383102,-1.2244898 32.9413714,-0.820175514 33.5950592,-0.166487761 C34.2487469,0.487199993 34.6530612,1.39026122 34.6530612,2.3877551 L34.6530612,2.3877551 L34.6530612,21.2510204 C34.6530612,22.2485143 34.2487469,23.1515755 33.5950592,23.8052633 C32.9413714,24.458951 32.0383102,24.8632653 31.0407311,24.8632653 L31.0407311,24.8632653 L21.1214898,24.862575 L21.1214898,33.4455625 L24.6734694,33.4457143 C25.2313897,33.4457143 25.7364917,33.6718562 26.1021137,34.0374781 C26.4677357,34.4031001 26.6938776,34.9082021 26.6938776,35.4661224 L26.6938776,35.4661224 L26.6938776,37.4559184 C26.6938776,38.0138387 26.4677357,38.5189407 26.1021137,38.8845627 C25.7364917,39.2501846 25.2313897,39.4763265 24.6734694,39.4763265 L24.6734694,39.4763265 L9.55102041,39.4763265 C8.9931001,39.4763265 8.48799806,39.2501846 8.1223761,38.8845627 C7.75675413,38.5189407 7.53061224,38.0138387 7.53061224,37.4559184 L7.53061224,37.4559184 L7.53061224,35.4661224 C7.53061224,34.9082021 7.75675413,34.4031001 8.1223761,34.0374781 C8.48799806,33.6718562 8.9931001,33.4457143 9.55096807,33.4457143 L9.55096807,33.4457143 L13.1015691,33.4455625 L13.1019819,24.8632653 L2.3877551,24.8632653 C1.39026122,24.8632653 0.487199993,24.458951 -0.166487761,23.8052633 C-0.820175514,23.1515755 -1.2244898,22.2485143 -1.2244898,21.2510204 L-1.2244898,21.2510204 L-1.2244898,2.3877551 C-1.2244898,1.39026122 -0.820175514,0.487199993 -0.166487761,-0.166487761 C0.487199993,-0.820175514 1.39026122,-1.2244898 2.3877551,-1.2244898 L2.3877551,-1.2244898 Z" id="形状结合" stroke="#FFFFFF" stroke-width="2.44897959" fill="#4B7EFF" stroke-linejoin="round"></path>
                    <path d="M3.97959184,2.36387755 L29.4489796,2.36387755 C30.3281267,2.36387755 31.0408163,3.07656713 31.0408163,3.95571429 L31.0408163,12.6073469 L31.0408163,12.6073469 L2.3877551,12.6073469 L2.3877551,3.95571429 C2.3877551,3.07656713 3.10044468,2.36387755 3.97959184,2.36387755 Z" id="矩形备份-4" fill="#FFFFFF"></path>
                    <path d="M4.11404871,15.3845012 C4.73462318,15.3845012 5.24460991,15.8532487 5.30246103,16.4526114 L5.30792627,16.56644 L5.30792627,19.7182767 C5.30792627,20.3710435 4.77340908,20.9002155 4.11404871,20.9002155 C3.49347425,20.9002155 2.98348752,20.431468 2.9256364,19.8321053 L2.92017116,19.7182767 L2.92017116,16.56644 C2.92017116,15.9136732 3.45468835,15.3845012 4.11404871,15.3845012 Z" id="路径" fill="#FFFFFF" fill-rule="nonzero"></path>
                    <line x1="8.65078354" y1="5.27872539" x2="8.65078354" y2="9.25831723" id="路径-2备份-7" stroke="#FFDE02" stroke-width="2.3877551" stroke-linecap="round" stroke-linejoin="round" transform="translate(8.650784, 7.268521) scale(-1, -1) rotate(90.000000) translate(-8.650784, -7.268521) "></line>
                    <path d="M10.4813957,15.3845012 C11.1019701,15.3845012 11.6119568,15.8532487 11.669808,16.4526114 L11.6752732,16.56644 L11.6752732,19.7182767 C11.6752732,20.3710435 11.140756,20.9002155 10.4813957,20.9002155 C9.86082119,20.9002155 9.35083446,20.431468 9.29298334,19.8321053 L9.2875181,19.7182767 L9.2875181,16.56644 C9.2875181,15.9136732 9.82203529,15.3845012 10.4813957,15.3845012 Z" id="路径" fill="#FFFFFF" fill-rule="nonzero"></path>
                    <path d="M16.8487426,15.3845012 C17.4693171,15.3845012 17.9793038,15.8532487 18.0371549,16.4526114 L18.0426201,16.56644 L18.0426201,19.7182767 C18.0426201,20.3710435 17.508103,20.9002155 16.8487426,20.9002155 C16.2281681,20.9002155 15.7181814,20.431468 15.6603303,19.8321053 L15.654865,19.7182767 L15.654865,16.56644 C15.654865,15.9136732 16.1893822,15.3845012 16.8487426,15.3845012 Z" id="路径" fill="#FFFFFF" fill-rule="nonzero"></path>
                    <path d="M23.2160895,15.3845012 C23.836664,15.3845012 24.3466507,15.8532487 24.4045018,16.4526114 L24.4099671,16.56644 L24.4099671,19.7182767 C24.4099671,20.3710435 23.8754499,20.9002155 23.2160895,20.9002155 C22.5955151,20.9002155 22.0855283,20.431468 22.0276772,19.8321053 L22.022212,19.7182767 L22.022212,16.56644 C22.022212,15.9136732 22.5567292,15.3845012 23.2160895,15.3845012 Z" id="路径" fill="#FFFFFF" fill-rule="nonzero"></path>
                    <path d="M29.5834365,15.3845012 C30.2040109,15.3845012 30.7139977,15.8532487 30.7718488,16.4526114 L30.777314,16.56644 L30.777314,19.7182767 C30.777314,20.3710435 30.2427968,20.9002155 29.5834365,20.9002155 C28.962862,20.9002155 28.4528753,20.431468 28.3950242,19.8321053 L28.3895589,19.7182767 L28.3895589,16.56644 C28.3895589,15.9136732 28.9240761,15.3845012 29.5834365,15.3845012 Z" id="路径" fill="#FFFFFF" fill-rule="nonzero"></path>
                </g>
            </g>
        </g>
    </g>
</svg>