<?xml version="1.0" encoding="UTF-8"?>
<svg width="65px" height="65px" viewBox="0 0 65 65" version="1.1" xmlns="http://www.w3.org/2000/svg" xmlns:xlink="http://www.w3.org/1999/xlink">
    <title>切片</title>
    <g id="页面-1" stroke="none" stroke-width="1" fill="none" fill-rule="evenodd">
        <g id="界面图标状态" transform="translate(-424.000000, -242.000000)">
            <g id="icon/运维平台_激活_选中_正常状态" transform="translate(424.000000, 242.000000)">
                <rect id="矩形备份-10" x="0" y="0" width="65" height="65"></rect>
                <path d="M32.5,3.2244898 C39.203497,3.2244898 45.2723746,5.94161883 49.6653779,10.3346221 C54.0583812,14.7276254 56.7755102,20.796503 56.7755102,27.5 C56.7755102,33.2879708 54.7500599,38.6029463 51.3688685,42.7743937 C47.805386,47.1707374 42.7367891,50.2979075 36.9466617,51.3693839 L36.9466617,51.3693839 L32.5000926,60.2619205 L28.0543711,51.369575 C22.2639801,50.2983101 17.1951172,47.1711785 13.6314388,42.7747727 C10.2500628,38.6032682 8.2244898,33.2881461 8.2244898,27.5 C8.2244898,20.796503 10.9416188,14.7276254 15.3346221,10.3346221 C19.7276254,5.94161883 25.796503,3.2244898 32.5,3.2244898 Z" id="形状结合备份-13" stroke="#FFFFFF" stroke-width="2.44897959" fill="#4B7EFF"></path>
                <path d="M21.25,30.7710929 C22.6307119,30.7710929 23.75,31.9416236 23.75,33.3855465 C23.75,34.8294693 22.6307119,36 21.25,36 C19.8692881,36 18.75,34.8294693 18.75,33.3855465 C18.75,31.9416236 19.8692881,30.7710929 21.25,30.7710929 Z M36.4432778,31.2939836 C37.6897903,31.2939836 38.6932778,32.3517932 38.6932778,33.6469918 C38.6932778,34.9421904 37.6897903,36 36.4432778,36 C35.1967652,36 34.1932778,34.9421904 34.1932778,33.6469918 C34.1932778,32.3517932 35.1967652,31.2939836 36.4432778,31.2939836 Z M44.6625098,31.2939836 C45.9090223,31.2939836 46.9125098,32.3517932 46.9125098,33.6469918 C46.9125098,34.9421904 45.9090223,36 44.6625098,36 C43.4159972,36 42.4125098,34.9421904 42.4125098,33.6469918 C42.4125098,32.3517932 43.4159972,31.2939836 44.6625098,31.2939836 Z M27.2863828,19 C28.0947162,19 28.75,19.6552838 28.75,20.4636172 L28.749,29.463 L33.75,29.4638661 L33.75,25.7373348 C33.75,25.629557 33.8373712,25.5421858 33.945149,25.5421858 L38.554851,25.5421858 C38.6626288,25.5421858 38.75,25.629557 38.75,25.7373348 L38.75,29.4638661 L41.25,29.4638661 L41.25,25.7373348 C41.25,25.629557 41.3373712,25.5421858 41.445149,25.5421858 L46.054851,25.5421858 C46.1626288,25.5421858 46.25,25.629557 46.25,25.7373348 L46.25,29.4638661 L49.0242552,29.4638661 C49.5631442,29.4638661 50,29.900722 50,30.439611 L50,32.4098016 C50,32.9486906 49.5631442,33.3855465 49.0242552,33.3855465 L48.1536861,33.3848635 C48.0251182,31.4820644 46.5076818,29.9867569 44.6625098,29.9867569 C42.8173377,29.9867569 41.2999013,31.4820644 41.1713334,33.3848635 L39.9344541,33.3848635 C39.8058862,31.4820644 38.2884499,29.9867569 36.4432778,29.9867569 C34.5977816,29.9867569 33.0801363,31.4825898 32.9520338,33.3858663 L28.401637,33.386644 C28.1331733,33.7022049 27.7331553,33.9023852 27.2863828,33.9023852 L24.9676415,33.9030374 C24.9889859,33.7337074 25,33.560972 25,33.3855465 C25,31.2196622 23.3210678,29.4638661 21.25,29.4638661 C19.1789322,29.4638661 17.5,31.2196622 17.5,33.3855465 C17.5,33.560972 17.5110141,33.7337074 17.5323585,33.9030374 L16.4636172,33.9023852 C15.6552838,33.9023852 15,33.2471014 15,32.4387679 L15,22.9029793 C15,20.7474234 16.7474234,19 18.9029793,19 L27.2863828,19 Z" id="形状结合" fill="#FFFFFF"></path>
            </g>
        </g>
    </g>
</svg>