<?xml version="1.0" encoding="UTF-8"?>
<svg width="48px" height="48px" viewBox="0 0 48 48" version="1.1" xmlns="http://www.w3.org/2000/svg" xmlns:xlink="http://www.w3.org/1999/xlink">
    <title>切片</title>
    <g id="页面-1" stroke="none" stroke-width="1" fill="none" fill-rule="evenodd">
        <g id="界面图标状态" transform="translate(-436.000000, -548.000000)">
            <g id="icon/运维平台_激活_未选中_故障状态" transform="translate(436.000000, 548.000000)">
                <rect id="矩形备份-20" x="0" y="0" width="48" height="48"></rect>
                <path d="M24,3.428 L24.4290967,3.43383686 C28.9925228,3.54594785 33.1135911,5.44135856 36.1218305,8.44959804 C39.2240775,11.551845 41.1428571,15.8375593 41.1428571,20.5714286 C41.1428571,24.5774331 39.7689074,28.2625892 37.4662066,31.1810662 C35.0418052,34.2537884 31.5884577,36.4773203 27.6255215,37.330358 L27.6255215,37.330358 L24.0000772,43.6963926 L20.3755107,37.3305801 C16.4123086,36.4777422 12.9586957,34.2542421 10.5340992,31.1814539 C8.23121427,28.2629156 6.85714286,24.5776104 6.85714286,20.5714286 C6.85714286,15.8375593 8.7759225,11.551845 11.8781695,8.44959804 C14.9804164,5.34735107 19.2661307,3.42857143 24,3.42857143 L24,3.428 Z" id="形状结合备份-11" stroke="#FFFFFF" stroke-width="1.71428571" fill="#F64C4C"></path>
                <path d="M16.2857143,22.2857143 C17.2324881,22.2857143 18,23.0532261 18,24 C18,24.9467739 17.2324881,25.7142857 16.2857143,25.7142857 C15.3389404,25.7142857 14.5714286,24.9467739 14.5714286,24 C14.5714286,23.0532261 15.3389404,22.2857143 16.2857143,22.2857143 Z M26.7039619,22.6285714 C27.5587134,22.6285714 28.246819,23.3221725 28.246819,24.1714286 C28.246819,25.0206846 27.5587134,25.7142857 26.7039619,25.7142857 C25.8492104,25.7142857 25.1611048,25.0206846 25.1611048,24.1714286 C25.1611048,23.3221725 25.8492104,22.6285714 26.7039619,22.6285714 Z M32.3400067,22.6285714 C33.1947582,22.6285714 33.8828638,23.3221725 33.8828638,24.1714286 C33.8828638,25.0206846 33.1947582,25.7142857 32.3400067,25.7142857 C31.4852552,25.7142857 30.7971496,25.0206846 30.7971496,24.1714286 C30.7971496,23.3221725 31.4852552,22.6285714 32.3400067,22.6285714 Z M20.2142857,14.5674603 C20.8849172,14.5674603 21.4285714,15.1111145 21.4285714,15.781746 L21.428,21.4284603 L24.8571429,21.4285714 L24.8571429,19.0190476 C24.8571429,18.9296301 24.9296301,18.8571429 25.0190476,18.8571429 L28.1238095,18.8571429 C28.2132271,18.8571429 28.2857143,18.9296301 28.2857143,19.0190476 L28.2857143,21.4285714 L30,21.4285714 L30,19.0190476 C30,18.9296301 30.0724872,18.8571429 30.1619048,18.8571429 L33.2666667,18.8571429 C33.3560842,18.8571429 33.4285714,18.9296301 33.4285714,19.0190476 L33.4285714,21.4285714 L35.1904762,21.4285714 C35.6375638,21.4285714 36,21.7910076 36,22.2380952 L36,23.1904762 C36,23.6375638 35.6375638,24 35.1904762,24 L34.7339694,23.9997389 C34.6458991,22.751993 33.6053307,21.7714286 32.3400067,21.7714286 C31.0746827,21.7714286 30.0341143,22.751993 29.946044,23.9997389 L29.0979246,23.9997389 C29.0098543,22.751993 27.9692859,21.7714286 26.7039619,21.7714286 C25.4382977,21.7714286 24.3975099,22.7525204 24.3099284,24.0007455 L21.0545193,24.0012454 C20.8363816,24.2103785 20.5403413,24.3388889 20.2142857,24.3388889 L18.8350366,24.3386907 C18.8496187,24.227862 18.8571429,24.1148097 18.8571429,24 C18.8571429,22.5798392 17.7058751,21.4285714 16.2857143,21.4285714 C14.8655535,21.4285714 13.7142857,22.5798392 13.7142857,24 C13.7142857,24.1148097 13.7218099,24.227862 13.736392,24.3386907 L13.2142857,24.3388889 C12.5436542,24.3388889 12,23.7952347 12,23.1246032 L12,17.8055556 C12,16.0172049 13.4497446,14.5674603 15.2380952,14.5674603 L20.2142857,14.5674603 Z" id="形状结合" fill="#FFFFFF"></path>
            </g>
        </g>
    </g>
</svg>