<?xml version="1.0" encoding="UTF-8"?>
<svg width="80px" height="80px" viewBox="0 0 80 80" version="1.1" xmlns="http://www.w3.org/2000/svg" xmlns:xlink="http://www.w3.org/1999/xlink">
    <title>切片</title>
    <g id="页面-1" stroke="none" stroke-width="1" fill="none" fill-rule="evenodd">
        <g id="界面图标状态" transform="translate(-406.000000, -73.000000)">
            <g id="icon/运维平台_激活_选中_故障状态" transform="translate(406.000000, 72.000000)">
                <rect id="矩形备份-3" x="0" y="1" width="80" height="80"></rect>
                <path d="M28.5,19.0909091 C35.2403843,19.0909091 41.3426571,21.8229897 45.7598337,26.2401663 C50.1770103,30.6573429 52.9090909,36.7596157 52.9090909,43.5 C52.9090909,49.3198525 50.8724521,54.6640883 47.472641,58.8585071 C43.902966,63.2624906 38.8311656,66.3997582 33.036436,67.4885269 L33.036436,67.4885269 L28.5000825,76.5606201 L23.9645929,67.4887201 C18.169602,66.4001609 13.0975378,63.2629322 9.52766792,58.8588882 C6.12767135,54.664412 4.09090909,49.3200287 4.09090909,43.5 C4.09090909,36.7596157 6.82298965,30.6573429 11.2401663,26.2401663 C15.6573429,21.8229897 21.7596157,19.0909091 28.5,19.0909091 Z" id="形状结合备份-13" stroke="#FFFFFF" stroke-width="2.18181818" fill="#F64C4C"></path>
                <path d="M17.25,46.7710929 C18.6307119,46.7710929 19.75,47.9416236 19.75,49.3855465 C19.75,50.8294693 18.6307119,52 17.25,52 C15.8692881,52 14.75,50.8294693 14.75,49.3855465 C14.75,47.9416236 15.8692881,46.7710929 17.25,46.7710929 Z M32.4432778,47.2939836 C33.6897903,47.2939836 34.6932778,48.3517932 34.6932778,49.6469918 C34.6932778,50.9421904 33.6897903,52 32.4432778,52 C31.1967652,52 30.1932778,50.9421904 30.1932778,49.6469918 C30.1932778,48.3517932 31.1967652,47.2939836 32.4432778,47.2939836 Z M40.6625098,47.2939836 C41.9090223,47.2939836 42.9125098,48.3517932 42.9125098,49.6469918 C42.9125098,50.9421904 41.9090223,52 40.6625098,52 C39.4159972,52 38.4125098,50.9421904 38.4125098,49.6469918 C38.4125098,48.3517932 39.4159972,47.2939836 40.6625098,47.2939836 Z M23.4460501,35 C24.1662017,35 24.75,35.5837983 24.75,36.3039499 L24.749,45.463 L29.75,45.4638661 L29.75,41.7160458 C29.75,41.6200256 29.8278398,41.5421858 29.92386,41.5421858 L34.57614,41.5421858 C34.6721602,41.5421858 34.75,41.6200256 34.75,41.7160458 L34.75,45.4638661 L37.25,45.4638661 L37.25,41.7160458 C37.25,41.6200256 37.3278398,41.5421858 37.42386,41.5421858 L42.07614,41.5421858 C42.1721602,41.5421858 42.25,41.6200256 42.25,41.7160458 L42.25,45.4638661 L45.1307001,45.4638661 C45.6108012,45.4638661 46,45.853065 46,46.3331661 L46,48.5162465 C46,48.9963476 45.6108012,49.3855465 45.1307001,49.3855465 L44.1536861,49.3848635 C44.0251182,47.4820644 42.5076818,45.9867569 40.6625098,45.9867569 C38.8173377,45.9867569 37.2999013,47.4820644 37.1713334,49.3848635 L35.9344541,49.3848635 C35.8058862,47.4820644 34.2884499,45.9867569 32.4432778,45.9867569 C30.5977816,45.9867569 29.0801363,47.4825898 28.9520338,49.3858663 L24.4849139,49.3866182 C24.246765,49.7000252 23.8700394,49.9023852 23.4460501,49.9023852 L20.9676415,49.9030374 C20.9889859,49.7337074 21,49.560972 21,49.3855465 C21,47.2196622 19.3210678,45.4638661 17.25,45.4638661 C15.1789322,45.4638661 13.5,47.2196622 13.5,49.3855465 C13.5,49.560972 13.5110141,49.7337074 13.5323585,49.9030374 L12.3039499,49.9023852 C11.5837983,49.9023852 11,49.3185869 11,48.5984353 L11,38.4771997 C11,36.5567954 12.5567954,35 14.4771997,35 L23.4460501,35 Z" id="形状结合" fill="#FFFFFF"></path>
                <g id="编组" transform="translate(37.000000, 0.000000)">
                    <path d="M24.1098114,2.28950954 L42.8204439,28.9001869 C43.4455743,29.7892612 43.2316055,31.0167666 42.3425312,31.641897 C42.0110923,31.8749399 41.6158001,32 41.2106325,32 L3.78936746,32 C2.70251833,32 1.82145302,31.1189347 1.82145302,30.0320856 C1.82145302,29.626918 1.94651311,29.2316258 2.17955607,28.9001869 L20.8901886,2.28950954 C21.515319,1.40043525 22.7428244,1.18646642 23.6318986,1.81159678 C23.8175717,1.94214813 23.97926,2.1038365 24.1098114,2.28950954 Z" id="三角形" fill="#FFDE02"></path>
                    <path d="M22.5715257,23.8735627 C23.6879607,23.8735627 24.5930101,24.7689932 24.5930101,25.8735627 C24.5930101,26.9781322 23.6879607,27.8735627 22.5715257,27.8735627 C21.4550907,27.8735627 20.5500414,26.9781322 20.5500414,25.8735627 C20.5500414,24.7689932 21.4550907,23.8735627 22.5715257,23.8735627 Z M23.1610383,10.8735627 C23.9518945,10.8735627 24.5930101,11.5146783 24.5930101,12.3055344 L24.5930101,20.9971464 C24.5930101,21.7880026 23.9518945,22.4291182 23.1610383,22.4291182 L21.9820132,22.4291182 C21.191157,22.4291182 20.5500414,21.7880026 20.5500414,20.9971464 L20.5500414,12.3055344 C20.5500414,11.5146783 21.191157,10.8735627 21.9820132,10.8735627 L23.1610383,10.8735627 Z" id="形状结合" fill="#060606"></path>
                </g>
            </g>
        </g>
    </g>
</svg>